G04*
G04 #@! TF.GenerationSoftware,Altium Limited,Altium Designer,23.0.1 (38)*
G04*
G04 Layer_Color=8388736*
%FSLAX44Y44*%
%MOMM*%
G71*
G04*
G04 #@! TF.SameCoordinates,7BCDEA22-2D04-4257-93D8-CBB99C7658D5*
G04*
G04*
G04 #@! TF.FilePolarity,Negative*
G04*
G01*
G75*
%ADD15R,1.2532X1.6532*%
%ADD16R,1.6532X1.2532*%
%ADD17C,3.2512*%
%ADD18C,1.7032*%
%ADD19R,1.7032X1.7032*%
%ADD20R,2.3032X2.3032*%
%ADD21C,2.3032*%
%ADD22R,1.4032X1.4032*%
%ADD23C,1.4032*%
%ADD24C,1.6432*%
%ADD25R,1.7032X1.7032*%
%ADD26C,1.4732*%
D15*
X178700Y339875D02*
D03*
X159700D02*
D03*
X189834Y462025D02*
D03*
X208834D02*
D03*
D16*
X195868Y356286D02*
D03*
Y337286D02*
D03*
X229135Y219405D02*
D03*
Y238405D02*
D03*
X245506Y574542D02*
D03*
Y593543D02*
D03*
X246599Y506066D02*
D03*
Y525066D02*
D03*
D17*
X25000Y25000D02*
D03*
X250000D02*
D03*
Y625000D02*
D03*
X25000D02*
D03*
D18*
X253696Y74087D02*
D03*
Y99487D02*
D03*
Y124887D02*
D03*
Y150287D02*
D03*
Y175687D02*
D03*
Y201087D02*
D03*
Y226487D02*
D03*
Y251887D02*
D03*
Y277287D02*
D03*
Y302687D02*
D03*
Y328087D02*
D03*
X180289Y39098D02*
D03*
D19*
X253696Y353487D02*
D03*
D20*
X100000Y550000D02*
D03*
D21*
Y499200D02*
D03*
Y448400D02*
D03*
Y397600D02*
D03*
Y346800D02*
D03*
Y296000D02*
D03*
Y245200D02*
D03*
Y194400D02*
D03*
Y143600D02*
D03*
Y92800D02*
D03*
D22*
X131900Y302700D02*
D03*
X207966Y219792D02*
D03*
X144819Y546305D02*
D03*
X145403Y602752D02*
D03*
D23*
X131900Y277300D02*
D03*
X208100D02*
D03*
Y302700D02*
D03*
X207966Y245192D02*
D03*
X131766D02*
D03*
Y219792D02*
D03*
X144819Y520905D02*
D03*
X221019D02*
D03*
Y546305D02*
D03*
X145403Y577352D02*
D03*
X221603D02*
D03*
Y602752D02*
D03*
D24*
X150000Y407539D02*
D03*
X162700Y394839D02*
D03*
X150000Y382139D02*
D03*
X150000Y475000D02*
D03*
X162700Y462300D02*
D03*
X150000Y449600D02*
D03*
D25*
X154889Y39098D02*
D03*
D26*
X147000Y99000D02*
D03*
M02*
