G04*
G04 #@! TF.GenerationSoftware,Altium Limited,Altium Designer,23.0.1 (38)*
G04*
G04 Layer_Color=32896*
%FSLAX44Y44*%
%MOMM*%
G71*
G04*
G04 #@! TF.SameCoordinates,7BCDEA22-2D04-4257-93D8-CBB99C7658D5*
G04*
G04*
G04 #@! TF.FilePolarity,Positive*
G04*
G01*
G75*
%ADD10C,0.2000*%
%ADD12C,0.2540*%
D10*
X166036Y297631D02*
Y308131D01*
X109352Y573594D02*
Y584094D01*
X141296Y184827D02*
Y195327D01*
X159234Y517807D02*
X169734D01*
X122165Y148483D02*
X132665D01*
X117091Y111976D02*
X127591D01*
X150581Y67620D02*
Y78120D01*
X173081Y91526D02*
X183581D01*
X195983Y91550D02*
X206483D01*
X218728Y91526D02*
X229228D01*
X162939Y169482D02*
X195439D01*
X162939Y120282D02*
Y169482D01*
Y120282D02*
X195439D01*
Y169482D01*
X198939Y170682D02*
X214440D01*
D12*
X175944Y542886D02*
Y550504D01*
X172135D01*
X170866Y549234D01*
Y546695D01*
X172135Y545425D01*
X175944D01*
X173405D02*
X170866Y542886D01*
X168326D02*
X165787D01*
X167057D01*
Y550504D01*
X168326Y549234D01*
X158170Y542886D02*
Y550504D01*
X161978Y546695D01*
X156900D01*
X181184Y187090D02*
Y194707D01*
X177375D01*
X176106Y193438D01*
Y190898D01*
X177375Y189629D01*
X181184D01*
X178645D02*
X176106Y187090D01*
X173566D02*
X171027D01*
X172297D01*
Y194707D01*
X173566Y193438D01*
X167219D02*
X165949Y194707D01*
X163410D01*
X162140Y193438D01*
Y192168D01*
X163410Y190898D01*
X164679D01*
X163410D01*
X162140Y189629D01*
Y188359D01*
X163410Y187090D01*
X165949D01*
X167219Y188359D01*
X177440Y283706D02*
Y291324D01*
X173632D01*
X172362Y290054D01*
Y287515D01*
X173632Y286246D01*
X177440D01*
X174901D02*
X172362Y283706D01*
X169823D02*
X167284D01*
X168553D01*
Y291324D01*
X169823Y290054D01*
X163475D02*
X162205Y291324D01*
X159666D01*
X158397Y290054D01*
Y284976D01*
X159666Y283706D01*
X162205D01*
X163475Y284976D01*
Y290054D01*
X109081Y593698D02*
Y601316D01*
X105273D01*
X104003Y600046D01*
Y597507D01*
X105273Y596237D01*
X109081D01*
X106542D02*
X104003Y593698D01*
X101464Y594968D02*
X100194Y593698D01*
X97655D01*
X96385Y594968D01*
Y600046D01*
X97655Y601316D01*
X100194D01*
X101464Y600046D01*
Y598777D01*
X100194Y597507D01*
X96385D01*
X107681Y10804D02*
X115298D01*
Y14613D01*
X114028Y15882D01*
X111489D01*
X110220Y14613D01*
Y10804D01*
Y13343D02*
X107681Y15882D01*
X115298Y23500D02*
X114028Y20961D01*
X111489Y18422D01*
X108950D01*
X107681Y19691D01*
Y22230D01*
X108950Y23500D01*
X110220D01*
X111489Y22230D01*
Y18422D01*
X128217Y82692D02*
Y90310D01*
X124408D01*
X123138Y89040D01*
Y86501D01*
X124408Y85232D01*
X128217D01*
X125677D02*
X123138Y82692D01*
X115521Y90310D02*
X120599D01*
Y86501D01*
X118060Y87771D01*
X116790D01*
X115521Y86501D01*
Y83962D01*
X116790Y82692D01*
X119330D01*
X120599Y83962D01*
X132709Y169416D02*
Y177034D01*
X128900D01*
X127631Y175764D01*
Y173225D01*
X128900Y171955D01*
X132709D01*
X130170D02*
X127631Y169416D01*
X121283D02*
Y177034D01*
X125092Y173225D01*
X120013D01*
X185043Y62918D02*
Y70535D01*
X181234D01*
X179965Y69265D01*
Y66726D01*
X181234Y65457D01*
X185043D01*
X182504D02*
X179965Y62918D01*
X177426Y69265D02*
X176156Y70535D01*
X173617D01*
X172347Y69265D01*
Y67996D01*
X173617Y66726D01*
X174886D01*
X173617D01*
X172347Y65457D01*
Y64187D01*
X173617Y62918D01*
X176156D01*
X177426Y64187D01*
X208337Y63641D02*
Y71258D01*
X204528D01*
X203259Y69989D01*
Y67449D01*
X204528Y66180D01*
X208337D01*
X205798D02*
X203259Y63641D01*
X195641D02*
X200720D01*
X195641Y68719D01*
Y69989D01*
X196911Y71258D01*
X199450D01*
X200720Y69989D01*
X228702Y63287D02*
Y70904D01*
X224893D01*
X223623Y69635D01*
Y67095D01*
X224893Y65826D01*
X228702D01*
X226162D02*
X223623Y63287D01*
X221084D02*
X218545D01*
X219815D01*
Y70904D01*
X221084Y69635D01*
X185719Y181911D02*
X183180D01*
X184449D01*
Y174294D01*
X185719D01*
X183180D01*
X174293Y180642D02*
X175562Y181911D01*
X178101D01*
X179371Y180642D01*
Y175563D01*
X178101Y174294D01*
X175562D01*
X174293Y175563D01*
X171753Y174294D02*
X169214D01*
X170484D01*
Y181911D01*
X171753Y180642D01*
M02*
