G04*
G04 #@! TF.GenerationSoftware,Altium Limited,Altium Designer,23.0.1 (38)*
G04*
G04 Layer_Color=65535*
%FSLAX44Y44*%
%MOMM*%
G71*
G04*
G04 #@! TF.SameCoordinates,7BCDEA22-2D04-4257-93D8-CBB99C7658D5*
G04*
G04*
G04 #@! TF.FilePolarity,Positive*
G04*
G01*
G75*
%ADD10C,0.2000*%
%ADD11C,0.1000*%
%ADD12C,0.2540*%
D10*
X100500Y593500D02*
G03*
X100500Y593500I-500J0D01*
G01*
X266396Y61387D02*
Y347137D01*
Y366187D01*
X240996D02*
X266396D01*
X240996Y61387D02*
Y366187D01*
Y61387D02*
X266396D01*
X169200Y334625D02*
Y345125D01*
X125900Y314400D02*
X204000D01*
X136000Y265600D02*
X204000D01*
X190618Y346786D02*
X201118D01*
X199333Y456775D02*
Y467275D01*
X223885Y228905D02*
X234384D01*
X135866Y208092D02*
X213966D01*
X135866Y256892D02*
X203866D01*
X138819Y558005D02*
X216919D01*
X148919Y509205D02*
X216919D01*
X139403Y614453D02*
X217503D01*
X149503Y565653D02*
X217503D01*
X240256Y584042D02*
X250756D01*
X241349Y515566D02*
X251849D01*
X192990Y26398D02*
Y51798D01*
X142190Y26398D02*
X192990D01*
X142190D02*
Y51798D01*
X192990D01*
D11*
X134718Y373804D02*
G03*
X134681Y415847I15282J21035D01*
G01*
X134718Y441265D02*
G03*
X134681Y483308I15282J21035D01*
G01*
X120000Y57800D02*
Y585000D01*
X0Y57800D02*
X120000D01*
X0D02*
Y585000D01*
X120000D01*
X134700Y373817D02*
Y415861D01*
X134700Y441278D02*
Y483322D01*
D12*
X145671Y13713D02*
Y21331D01*
X149480D01*
X150750Y20061D01*
Y17522D01*
X149480Y16252D01*
X145671D01*
X158367Y13713D02*
X153289D01*
X158367Y18792D01*
Y20061D01*
X157098Y21331D01*
X154558D01*
X153289Y20061D01*
X157814Y319850D02*
Y327467D01*
X161623D01*
X162893Y326198D01*
Y323659D01*
X161623Y322389D01*
X157814D01*
X160353D02*
X162893Y319850D01*
X165432D02*
X167971D01*
X166701D01*
Y327467D01*
X165432Y326198D01*
X176858Y327467D02*
X174319Y326198D01*
X171780Y323659D01*
Y321119D01*
X173049Y319850D01*
X175588D01*
X176858Y321119D01*
Y322389D01*
X175588Y323659D01*
X171780D01*
X216701Y196431D02*
Y204048D01*
X220510D01*
X221779Y202779D01*
Y200240D01*
X220510Y198970D01*
X216701D01*
X219240D02*
X221779Y196431D01*
X224319D02*
X226858D01*
X225588D01*
Y204048D01*
X224319Y202779D01*
X235745Y204048D02*
X230667D01*
Y200240D01*
X233206Y201509D01*
X234475D01*
X235745Y200240D01*
Y197700D01*
X234475Y196431D01*
X231936D01*
X230667Y197700D01*
X238291Y540782D02*
Y548399D01*
X242100D01*
X243370Y547130D01*
Y544590D01*
X242100Y543321D01*
X238291D01*
X240830D02*
X243370Y540782D01*
X245909D02*
X248448D01*
X247178D01*
Y548399D01*
X245909Y547130D01*
X257335Y540782D02*
X252257D01*
X257335Y545860D01*
Y547130D01*
X256066Y548399D01*
X253526D01*
X252257Y547130D01*
X187535Y440241D02*
Y447858D01*
X191344D01*
X192613Y446589D01*
Y444049D01*
X191344Y442780D01*
X187535D01*
X190074D02*
X192613Y440241D01*
X195153D02*
X197692D01*
X196422D01*
Y447858D01*
X195153Y446589D01*
X201500Y440241D02*
X204040D01*
X202770D01*
Y447858D01*
X201500Y446589D01*
X188839Y320799D02*
Y328417D01*
X192648D01*
X193917Y327147D01*
Y324608D01*
X192648Y323338D01*
X188839D01*
X191378D02*
X193917Y320799D01*
X196457Y327147D02*
X197726Y328417D01*
X200265D01*
X201535Y327147D01*
Y325877D01*
X200265Y324608D01*
X201535Y323338D01*
Y322069D01*
X200265Y320799D01*
X197726D01*
X196457Y322069D01*
Y323338D01*
X197726Y324608D01*
X196457Y325877D01*
Y327147D01*
X197726Y324608D02*
X200265D01*
X238326Y555168D02*
Y562786D01*
X242135D01*
X243404Y561516D01*
Y558977D01*
X242135Y557707D01*
X238326D01*
X240865D02*
X243404Y555168D01*
X245943Y562786D02*
X251022D01*
Y561516D01*
X245943Y556438D01*
Y555168D01*
X149844Y425183D02*
Y430261D01*
X148574Y431531D01*
X146035D01*
X144765Y430261D01*
Y425183D01*
X146035Y423914D01*
X148574D01*
X147304Y426453D02*
X149844Y423914D01*
X148574D02*
X149844Y425183D01*
X157461Y423914D02*
X152383D01*
X157461Y428992D01*
Y430261D01*
X156192Y431531D01*
X153652D01*
X152383Y430261D01*
X151129Y496205D02*
Y501283D01*
X149859Y502553D01*
X147320D01*
X146051Y501283D01*
Y496205D01*
X147320Y494935D01*
X149859D01*
X148590Y497474D02*
X151129Y494935D01*
X149859D02*
X151129Y496205D01*
X153668Y494935D02*
X156207D01*
X154938D01*
Y502553D01*
X153668Y501283D01*
X245632Y371777D02*
Y379394D01*
X249440D01*
X250710Y378125D01*
Y375585D01*
X249440Y374316D01*
X245632D01*
X253249Y371777D02*
X255788D01*
X254519D01*
Y379394D01*
X253249Y378125D01*
X46602Y598056D02*
X44062D01*
X45332D01*
Y591709D01*
X44062Y590439D01*
X42793D01*
X41523Y591709D01*
X49141Y590439D02*
X51680D01*
X50410D01*
Y598056D01*
X49141Y596787D01*
M02*
