G04*
G04 #@! TF.GenerationSoftware,Altium Limited,Altium Designer,23.0.1 (38)*
G04*
G04 Layer_Color=16711935*
%FSLAX44Y44*%
%MOMM*%
G71*
G04*
G04 #@! TF.SameCoordinates,5B070B88-F475-4B99-B5D3-003285C28A76*
G04*
G04*
G04 #@! TF.FilePolarity,Negative*
G04*
G01*
G75*
%ADD14R,1.2532X1.6532*%
%ADD15C,1.4032*%
%ADD16R,1.4032X1.4032*%
%ADD17R,1.7032X1.7032*%
%ADD18C,1.7032*%
%ADD19C,1.6432*%
%ADD20C,1.4732*%
%ADD29R,1.6532X1.2532*%
D14*
X667744Y877834D02*
D03*
X686744D02*
D03*
D15*
X716330Y735900D02*
D03*
Y761300D02*
D03*
X792530D02*
D03*
X716330Y792822D02*
D03*
Y818222D02*
D03*
X792530D02*
D03*
X716330Y674514D02*
D03*
Y699914D02*
D03*
X792530D02*
D03*
X792530Y881334D02*
D03*
Y855934D02*
D03*
X716330D02*
D03*
D16*
X792530Y735900D02*
D03*
X792530Y792822D02*
D03*
Y674514D02*
D03*
X716330Y881334D02*
D03*
D17*
X673444Y707315D02*
D03*
X925827D02*
D03*
D18*
X673444Y732715D02*
D03*
Y758115D02*
D03*
Y783515D02*
D03*
Y808915D02*
D03*
Y834315D02*
D03*
X925827Y732715D02*
D03*
Y758115D02*
D03*
Y783515D02*
D03*
Y808915D02*
D03*
Y834315D02*
D03*
D19*
X866329Y720624D02*
D03*
X879029Y733324D02*
D03*
X891729Y720624D02*
D03*
X866329Y672104D02*
D03*
X879029Y684804D02*
D03*
X891729Y672104D02*
D03*
D20*
X837418Y749369D02*
D03*
D29*
X824889Y716543D02*
D03*
Y735543D02*
D03*
X741887Y735409D02*
D03*
Y754409D02*
D03*
X825318Y701445D02*
D03*
Y682445D02*
D03*
M02*
