G04*
G04 #@! TF.GenerationSoftware,Altium Limited,Altium Designer,23.0.1 (38)*
G04*
G04 Layer_Color=32896*
%FSLAX44Y44*%
%MOMM*%
G71*
G04*
G04 #@! TF.SameCoordinates,5B070B88-F475-4B99-B5D3-003285C28A76*
G04*
G04*
G04 #@! TF.FilePolarity,Positive*
G04*
G01*
G75*
%ADD11C,0.2000*%
%ADD12C,0.2540*%
D11*
X819639Y726043D02*
X830139D01*
X677244Y872584D02*
Y883084D01*
X736637Y744909D02*
X747137D01*
X820068Y691945D02*
X830568D01*
D12*
X812010Y705287D02*
X804392D01*
Y701478D01*
X805662Y700208D01*
X808201D01*
X809470Y701478D01*
Y705287D01*
Y702747D02*
X812010Y700208D01*
X810740Y697669D02*
X812010Y696400D01*
Y693860D01*
X810740Y692591D01*
X805662D01*
X804392Y693860D01*
Y696400D01*
X805662Y697669D01*
X806931D01*
X808201Y696400D01*
Y692591D01*
X660883Y864861D02*
Y857244D01*
X664692D01*
X665961Y858513D01*
Y861053D01*
X664692Y862322D01*
X660883D01*
X663422D02*
X665961Y864861D01*
X668500Y858513D02*
X669770Y857244D01*
X672309D01*
X673579Y858513D01*
Y859783D01*
X672309Y861053D01*
X673579Y862322D01*
Y863592D01*
X672309Y864861D01*
X669770D01*
X668500Y863592D01*
Y862322D01*
X669770Y861053D01*
X668500Y859783D01*
Y858513D01*
X669770Y861053D02*
X672309D01*
X810590Y741082D02*
X802972D01*
Y737273D01*
X804242Y736004D01*
X806781D01*
X808050Y737273D01*
Y741082D01*
Y738543D02*
X810590Y736004D01*
X802972Y728386D02*
Y733465D01*
X806781D01*
X805511Y730926D01*
Y729656D01*
X806781Y728386D01*
X809320D01*
X810590Y729656D01*
Y732195D01*
X809320Y733465D01*
X754385Y730049D02*
X762002D01*
Y733858D01*
X760733Y735128D01*
X758194D01*
X756924Y733858D01*
Y730049D01*
Y732589D02*
X754385Y735128D01*
X760733Y737667D02*
X762002Y738936D01*
Y741476D01*
X760733Y742745D01*
X759463D01*
X758194Y741476D01*
Y740206D01*
Y741476D01*
X756924Y742745D01*
X755655D01*
X754385Y741476D01*
Y738936D01*
X755655Y737667D01*
M02*
