G04*
G04 #@! TF.GenerationSoftware,Altium Limited,Altium Designer,23.0.1 (38)*
G04*
G04 Layer_Physical_Order=1*
G04 Layer_Color=255*
%FSLAX44Y44*%
%MOMM*%
G71*
G04*
G04 #@! TF.SameCoordinates,5B070B88-F475-4B99-B5D3-003285C28A76*
G04*
G04*
G04 #@! TF.FilePolarity,Positive*
G04*
G01*
G75*
%ADD13R,1.0500X1.4500*%
%ADD21C,0.5080*%
%ADD22C,1.2000*%
%ADD23R,1.2000X1.2000*%
%ADD24R,1.5000X1.5000*%
%ADD25C,1.5000*%
%ADD26C,1.4400*%
%ADD27C,1.2700*%
D13*
X850000Y808498D02*
D03*
X831000D02*
D03*
X687354Y673370D02*
D03*
X668354D02*
D03*
X831035Y858080D02*
D03*
X850035D02*
D03*
X835490Y722748D02*
D03*
X816490D02*
D03*
X834348Y674065D02*
D03*
X815348D02*
D03*
X831035Y833594D02*
D03*
X850035D02*
D03*
D21*
X701516Y773484D02*
X710464Y764536D01*
X701516Y818222D02*
X714913D01*
X701516Y773484D02*
Y818222D01*
X689538D02*
X701516D01*
X714457Y761300D02*
X716330D01*
X711222Y764536D02*
X714457Y761300D01*
X710464Y764536D02*
X711222D01*
X791702Y855934D02*
X792346Y856578D01*
X714913Y818913D02*
X716330Y820331D01*
X716330Y761300D02*
X727410Y750220D01*
X716330Y699914D02*
X727410Y710994D01*
Y750220D01*
X673444Y758115D02*
X693541Y738018D01*
X744327Y712241D02*
Y718815D01*
X693541Y707033D02*
Y738018D01*
X720920Y688834D02*
X744327Y712241D01*
X711741Y688834D02*
X720920D01*
X693541Y707033D02*
X711741Y688834D01*
X716330Y855934D02*
X791702D01*
X716330D02*
X716330Y855934D01*
Y820331D02*
Y855934D01*
X673444Y834315D02*
X689538Y818222D01*
X803744Y746980D02*
X847290Y790527D01*
X772492Y746980D02*
X803744D01*
X847290Y790527D02*
Y805788D01*
X923186Y783515D02*
X923999Y782702D01*
X835490Y722748D02*
Y724748D01*
X894258Y783515D01*
X923186D01*
X881889Y758115D02*
X925827D01*
X850776Y727002D02*
X881889Y758115D01*
X850776Y682117D02*
Y727002D01*
X843659Y675000D02*
X850776Y682117D01*
X805898Y722532D02*
X817350D01*
X792530Y735900D02*
X805898Y722532D01*
X900721Y892414D02*
X942464Y850671D01*
X930798Y745295D02*
X942464Y756962D01*
Y850671D01*
X787941Y892414D02*
X900721D01*
X875000Y786951D02*
Y844470D01*
X850035Y858080D02*
X861390D01*
X875000Y844470D01*
X837418Y749369D02*
X875000Y786951D01*
X847290Y805788D02*
X850000Y808498D01*
X812298Y829250D02*
Y863641D01*
X820284Y821264D02*
X839705D01*
X812298Y829250D02*
X820284Y821264D01*
X788459Y869736D02*
X806203D01*
X781450Y876744D02*
X788459Y869736D01*
X806203D02*
X812298Y863641D01*
X781450Y885923D02*
X787941Y892414D01*
X781450Y876744D02*
Y885923D01*
X879029Y733324D02*
X891000Y745295D01*
X930798D01*
X839705Y821264D02*
X850035Y831594D01*
Y833594D01*
X744327Y718815D02*
X772492Y746980D01*
X923529Y730418D02*
Y732780D01*
X891729Y720624D02*
X913736D01*
X923529Y730418D01*
X927119Y678939D02*
Y706023D01*
X925827Y707315D02*
X927119Y706023D01*
X891729Y672104D02*
X920284D01*
X927119Y678939D01*
X792530Y792822D02*
X806657D01*
X818130Y804295D02*
X828290D01*
X806657Y792822D02*
X818130Y804295D01*
X829345Y805350D02*
Y808635D01*
X828290Y804295D02*
X829345Y805350D01*
X673468Y659416D02*
X853641D01*
X670492Y662392D02*
X673468Y659416D01*
X670492Y662392D02*
Y671231D01*
X668354Y673370D02*
X670492Y671231D01*
X853641Y659416D02*
X865764Y671539D01*
X866091D01*
X687502Y673221D02*
X713597D01*
X684878Y675846D02*
X687502Y673221D01*
X713597D02*
X713990Y673614D01*
X684878Y675846D02*
Y684010D01*
X673717Y695171D02*
Y707043D01*
Y695171D02*
X684878Y684010D01*
X673444Y707315D02*
X673717Y707043D01*
X834348Y675000D02*
X843659D01*
X792979Y674065D02*
X815348D01*
X792530Y674514D02*
X792979Y674065D01*
X866329Y672104D02*
Y720624D01*
X831035Y833594D02*
Y858080D01*
Y860079D01*
X792530Y881334D02*
X809781D01*
X831035Y860079D01*
X658413Y795977D02*
X671253Y808817D01*
X658413Y686788D02*
Y795977D01*
X671253Y808817D02*
X672157D01*
X658413Y686788D02*
X667106Y678094D01*
D22*
X716330Y735900D02*
D03*
Y761300D02*
D03*
X792530D02*
D03*
X716330Y792822D02*
D03*
Y818222D02*
D03*
X792530D02*
D03*
X716330Y674514D02*
D03*
Y699914D02*
D03*
X792530D02*
D03*
X792530Y881334D02*
D03*
Y855934D02*
D03*
X716330D02*
D03*
D23*
X792530Y735900D02*
D03*
X792530Y792822D02*
D03*
Y674514D02*
D03*
X716330Y881334D02*
D03*
D24*
X673444Y707315D02*
D03*
X925827D02*
D03*
D25*
X673444Y732715D02*
D03*
Y758115D02*
D03*
Y783515D02*
D03*
Y808915D02*
D03*
Y834315D02*
D03*
X925827Y732715D02*
D03*
Y758115D02*
D03*
Y783515D02*
D03*
Y808915D02*
D03*
Y834315D02*
D03*
D26*
X866329Y720624D02*
D03*
X879029Y733324D02*
D03*
X891729Y720624D02*
D03*
X866329Y672104D02*
D03*
X879029Y684804D02*
D03*
X891729Y672104D02*
D03*
D27*
X837418Y749369D02*
D03*
M02*
