M48
;Layer_Color=9474304
;FILE_FORMAT=4:4
METRIC,LZ
;TYPE=PLATED
T1F00S00C0.2540
T2F00S00C0.7112
T3F00S00C0.7620
T4F00S00C1.0900
T5F00S00C1.4000
T6F00S00C4.0000
%
T01
X0073152Y0027432
X00740736Y003237
X0072136Y0033782
X00819136Y00315031
X00835377Y00411583
X00587756Y00377952
X00549561Y00336936
X0059944Y0028702
X0061976Y0023876
X00657067Y00261704
X00675734Y00225048
X00571985Y0020388
X0052578Y0022606
X00530292Y00246689
X00476717Y00304404
X0042672Y0034798
X0038862Y0031242
X005588Y000762
X0065024Y0012446
X00231768Y00416846
X00199909Y00428314
X00228642Y00458447
X00239688Y0046479
X00206389Y00491502
X00213567Y00524484
X00194381Y00537882
X0017432Y00515965
X0015748Y00479357
X00144347Y00490825
X00122428Y0048895
X000762Y005207
X0003556Y0045974
X00078188Y0041275
X00165526Y00563111
X00177292Y00573024
X00260303Y0056981
X0025654Y0054102
X00259359Y00527262
X004445Y0056388
X00615333Y00528436
X0064663Y00489228
X00644627Y00475377
X00644245Y00450946
X0070612Y0044704
X0078232Y0042672
T02
X00765444Y00301612
X00418652Y00098639
X0010668Y001016
Y0008128
Y0006096
Y0004064
Y000254
X00084422Y00099854
X00034869Y00358635
X00250494Y00253846
X0049022Y0058166
Y005969
Y0061214
X0051054Y0058166
X00545074Y00581664
X00563822Y00581755
Y00598943
X00563626Y00614426
T03
X008001Y001016
X008255
X008509
Y00127
X008255
X008001
Y001524
X008255
X008509
Y001778
X008255
X008001
Y002032
X008255
X008509
Y002286
X008255
X008001
Y00254
X008255
X008509
X004699Y002413
Y002159
Y001905
Y001651
X0051054Y001143
X005334
Y000889
X0051054
X00508Y000635
X005334
Y000381
X00508
X003175Y0017272
Y0019304
Y0021336
X002921
Y001905
Y0017272
X002667
Y001905
Y0021336
T04
X0014224Y0035814
X0016764
X0019304
X0021844
T05
X00087044Y00139635
Y00177735
Y00215835
Y00253935
X0030988Y005969
X0033528
X0036068
X0038608
X0041148
T06
X008382Y000508
X000508
Y005842
X008382
M30
