G04*
G04 #@! TF.GenerationSoftware,Altium Limited,Altium Designer,23.0.1 (38)*
G04*
G04 Layer_Color=8388736*
%FSLAX44Y44*%
%MOMM*%
G71*
G04*
G04 #@! TF.SameCoordinates,185929F6-D6CA-45C1-83F6-0EDFB83A3BC2*
G04*
G04*
G04 #@! TF.FilePolarity,Negative*
G04*
G01*
G75*
%ADD62R,1.4032X0.8032*%
%ADD63R,2.2032X5.7032*%
%ADD64O,0.8000X2.6000*%
%ADD65O,2.6000X0.8000*%
%ADD66O,0.9000X2.6000*%
%ADD67R,1.2032X1.6532*%
%ADD68R,1.4332X0.8032*%
%ADD69R,0.9832X1.1932*%
%ADD70R,1.1532X1.1032*%
%ADD71R,1.6532X1.2032*%
%ADD72R,1.6782X0.5032*%
%ADD73R,0.5032X1.6782*%
%ADD74R,0.8032X0.8032*%
%ADD75R,1.1032X0.7032*%
%ADD76R,1.6032X0.8032*%
%ADD77R,0.8032X0.9532*%
%ADD78R,2.5732X2.6332*%
%ADD79R,2.3032X4.7032*%
%ADD80R,2.4532X2.2532*%
%ADD81R,1.2232X2.3632*%
%ADD82R,8.5332X7.1932*%
%ADD83R,1.4382X2.1132*%
%ADD84R,1.2032X1.6032*%
%ADD85R,1.1532X1.2032*%
%ADD86R,1.1432X1.6332*%
%ADD87R,0.6232X0.6632*%
%ADD88R,1.4532X0.8032*%
%ADD89R,1.2232X1.6732*%
%ADD90R,1.1032X1.1532*%
%ADD91R,1.3032X0.6032*%
%ADD92R,1.1532X1.1532*%
%ADD93R,0.6632X0.6232*%
%ADD94R,1.1932X0.9832*%
%ADD95R,1.2032X1.1532*%
%ADD96R,0.9032X1.2032*%
%ADD97R,1.7532X0.8532*%
%ADD98R,0.9532X1.6032*%
%ADD99R,2.6332X2.5732*%
%ADD100R,1.2032X1.2532*%
%ADD101R,1.2532X2.4032*%
%ADD102R,2.5032X2.7032*%
%ADD103R,1.5532X1.0032*%
%ADD104R,1.4532X4.9032*%
%ADD105R,0.7532X1.0032*%
%ADD106R,1.4032X1.2532*%
%ADD107R,5.6032X3.1032*%
%ADD108C,1.7272*%
%ADD109C,2.3032*%
%ADD110R,2.3032X2.3032*%
%ADD111C,7.4032*%
%ADD112C,1.8382*%
D62*
X301960Y309935D02*
D03*
Y300435D02*
D03*
Y290935D02*
D03*
X327960D02*
D03*
Y309935D02*
D03*
X663240Y84480D02*
D03*
Y93980D02*
D03*
Y103480D02*
D03*
X637240D02*
D03*
Y84480D02*
D03*
D63*
X390002Y433504D02*
D03*
Y528505D02*
D03*
D64*
X527267Y395776D02*
D03*
X538267D02*
D03*
X549267D02*
D03*
X560267D02*
D03*
X571267D02*
D03*
X582267D02*
D03*
X593267D02*
D03*
X604267D02*
D03*
X615267D02*
D03*
X626267D02*
D03*
X637267D02*
D03*
X648267D02*
D03*
X659267D02*
D03*
Y548776D02*
D03*
X648267D02*
D03*
X637267D02*
D03*
X626267D02*
D03*
X615267D02*
D03*
X604267D02*
D03*
X593267D02*
D03*
X582267D02*
D03*
X571267D02*
D03*
X560267D02*
D03*
X549267D02*
D03*
X538267D02*
D03*
D65*
X679267Y428276D02*
D03*
Y439276D02*
D03*
Y450276D02*
D03*
Y461276D02*
D03*
Y472276D02*
D03*
Y483276D02*
D03*
Y494276D02*
D03*
Y505276D02*
D03*
Y516276D02*
D03*
X507267D02*
D03*
Y505276D02*
D03*
Y494276D02*
D03*
Y483276D02*
D03*
Y472276D02*
D03*
Y461276D02*
D03*
Y450276D02*
D03*
Y439276D02*
D03*
Y428276D02*
D03*
D66*
X527267Y548776D02*
D03*
D67*
X561340Y269240D02*
D03*
X542340D02*
D03*
X561340Y246380D02*
D03*
X542340D02*
D03*
X208002Y410805D02*
D03*
X189002D02*
D03*
X577240Y93980D02*
D03*
X596240D02*
D03*
X662280Y43180D02*
D03*
X643280D02*
D03*
X662456Y66383D02*
D03*
X643456D02*
D03*
X207194Y445987D02*
D03*
X188194D02*
D03*
X279400Y353060D02*
D03*
X260400D02*
D03*
X93320Y434340D02*
D03*
X74320D02*
D03*
X110440Y353060D02*
D03*
X91440D02*
D03*
X74320Y459740D02*
D03*
X93320D02*
D03*
X54660Y332223D02*
D03*
X73660D02*
D03*
Y355600D02*
D03*
X54660D02*
D03*
X29250Y513080D02*
D03*
X48250D02*
D03*
X369282Y322361D02*
D03*
X350281D02*
D03*
X350207Y300776D02*
D03*
X369207D02*
D03*
X319380Y353060D02*
D03*
X300380D02*
D03*
D68*
X599000Y273660D02*
D03*
Y254660D02*
D03*
X620200Y264160D02*
D03*
X599000Y319380D02*
D03*
Y300380D02*
D03*
X620200Y309880D02*
D03*
D69*
X541640Y210820D02*
D03*
X555640D02*
D03*
X712410Y373017D02*
D03*
X698410D02*
D03*
X480874Y443684D02*
D03*
X466874D02*
D03*
Y461295D02*
D03*
X480874D02*
D03*
X88468Y503301D02*
D03*
X74468D02*
D03*
X166766Y574040D02*
D03*
X152766D02*
D03*
X222870Y448818D02*
D03*
X236870D02*
D03*
D70*
X639359Y308619D02*
D03*
Y292619D02*
D03*
X422349Y315251D02*
D03*
Y299251D02*
D03*
X339472Y503004D02*
D03*
Y519004D02*
D03*
D71*
X642366Y273660D02*
D03*
Y254660D02*
D03*
X739140Y343560D02*
D03*
Y362560D02*
D03*
X146980Y406877D02*
D03*
Y387877D02*
D03*
X35647Y313950D02*
D03*
Y294950D02*
D03*
D72*
X157265Y490951D02*
D03*
Y485951D02*
D03*
Y495951D02*
D03*
Y500951D02*
D03*
Y505951D02*
D03*
Y510951D02*
D03*
Y515951D02*
D03*
Y520951D02*
D03*
Y525951D02*
D03*
Y530951D02*
D03*
Y535951D02*
D03*
Y540951D02*
D03*
X242025D02*
D03*
Y535951D02*
D03*
Y530951D02*
D03*
Y525951D02*
D03*
Y520951D02*
D03*
Y515951D02*
D03*
Y510951D02*
D03*
Y505951D02*
D03*
Y500951D02*
D03*
Y495951D02*
D03*
Y490951D02*
D03*
Y485951D02*
D03*
D73*
X227145Y471072D02*
D03*
X222145D02*
D03*
X217145D02*
D03*
X212145D02*
D03*
X207145D02*
D03*
X202145D02*
D03*
X197145D02*
D03*
X192145D02*
D03*
X187145D02*
D03*
X182145D02*
D03*
X177145D02*
D03*
X172145D02*
D03*
Y555831D02*
D03*
X177145D02*
D03*
X182145D02*
D03*
X187145D02*
D03*
X192145D02*
D03*
X197145D02*
D03*
X202145D02*
D03*
X207145D02*
D03*
X212145D02*
D03*
X217145D02*
D03*
X222145D02*
D03*
X227145D02*
D03*
D74*
X790400Y437320D02*
D03*
Y454220D02*
D03*
Y473320D02*
D03*
X801000Y446320D02*
D03*
Y464320D02*
D03*
Y482320D02*
D03*
Y428320D02*
D03*
D75*
X857600Y417220D02*
D03*
Y485320D02*
D03*
D76*
X755100Y402320D02*
D03*
Y508320D02*
D03*
X835100Y402320D02*
D03*
Y508320D02*
D03*
D77*
X370840Y268820D02*
D03*
Y279820D02*
D03*
D78*
X593640Y187960D02*
D03*
X656040D02*
D03*
D79*
X177666Y131276D02*
D03*
Y40276D02*
D03*
D80*
X247740Y43180D02*
D03*
X290740D02*
D03*
D81*
X255446Y85751D02*
D03*
X272446D02*
D03*
X289446D02*
D03*
X306446D02*
D03*
X323446D02*
D03*
D82*
X289446Y192501D02*
D03*
D83*
X337271Y217901D02*
D03*
X241621D02*
D03*
D84*
X577240Y71120D02*
D03*
X596240D02*
D03*
X493957Y264553D02*
D03*
X512957D02*
D03*
X492947Y165959D02*
D03*
X511947D02*
D03*
D85*
X594740Y48260D02*
D03*
X578740D02*
D03*
X371220Y347980D02*
D03*
X355220D02*
D03*
D86*
X601253Y133874D02*
D03*
X584853D02*
D03*
X617260Y124000D02*
D03*
X633660D02*
D03*
X617260Y144320D02*
D03*
X633660D02*
D03*
X278820Y266700D02*
D03*
X295220D02*
D03*
X278820Y246380D02*
D03*
X295220D02*
D03*
X328240D02*
D03*
X311840D02*
D03*
D87*
X768860Y327660D02*
D03*
Y321060D02*
D03*
X807619Y305234D02*
D03*
Y298634D02*
D03*
D88*
X494755Y313756D02*
D03*
Y294656D02*
D03*
X515755Y304206D02*
D03*
X462092Y304731D02*
D03*
X441092Y295181D02*
D03*
Y314281D02*
D03*
D89*
X224000Y241300D02*
D03*
X207800D02*
D03*
D90*
X731196Y284836D02*
D03*
X715196D02*
D03*
X731196Y304206D02*
D03*
X715196D02*
D03*
X731196Y324083D02*
D03*
X715196D02*
D03*
X455342Y336141D02*
D03*
X439342D02*
D03*
X512371Y336743D02*
D03*
X528371D02*
D03*
X494765D02*
D03*
X478765D02*
D03*
D91*
X814541Y336833D02*
D03*
Y330333D02*
D03*
Y323833D02*
D03*
X794541D02*
D03*
Y330333D02*
D03*
Y336833D02*
D03*
D92*
X509697Y239754D02*
D03*
X494697D02*
D03*
D93*
X472060Y429863D02*
D03*
X465460D02*
D03*
X830586Y349118D02*
D03*
X837186D02*
D03*
D94*
X322514Y388000D02*
D03*
Y374000D02*
D03*
X353060Y388000D02*
D03*
Y374000D02*
D03*
X388620Y388000D02*
D03*
Y374000D02*
D03*
X269240Y521320D02*
D03*
Y535320D02*
D03*
X139236Y480445D02*
D03*
Y466445D02*
D03*
D95*
X314010Y487906D02*
D03*
Y471906D02*
D03*
Y524602D02*
D03*
Y540602D02*
D03*
X292100Y444500D02*
D03*
Y428500D02*
D03*
X262473Y444487D02*
D03*
Y428487D02*
D03*
D96*
X46310Y489860D02*
D03*
Y444860D02*
D03*
X24810Y489860D02*
D03*
Y444860D02*
D03*
D97*
X35978Y374672D02*
D03*
Y387372D02*
D03*
Y400072D02*
D03*
Y412772D02*
D03*
X90978D02*
D03*
Y400072D02*
D03*
Y387372D02*
D03*
Y374672D02*
D03*
D98*
X269332Y484098D02*
D03*
X283832D02*
D03*
D99*
X175260Y290280D02*
D03*
Y227880D02*
D03*
D100*
X527383Y590013D02*
D03*
D101*
X542133Y605262D02*
D03*
X512633D02*
D03*
D102*
X426921Y183498D02*
D03*
X364921D02*
D03*
D103*
X350624Y280387D02*
D03*
Y259387D02*
D03*
D104*
X269240Y307340D02*
D03*
X236740D02*
D03*
X704299Y98370D02*
D03*
X736799D02*
D03*
D105*
X133250Y157480D02*
D03*
X120750D02*
D03*
D106*
X513505Y202427D02*
D03*
X494505D02*
D03*
D107*
X416560Y35320D02*
D03*
Y132320D02*
D03*
D108*
X469900Y190500D02*
D03*
Y165100D02*
D03*
Y215900D02*
D03*
Y241300D02*
D03*
X266700Y213360D02*
D03*
Y172720D02*
D03*
X292100D02*
D03*
X317500D02*
D03*
X292100Y190500D02*
D03*
X266700D02*
D03*
X317500Y193040D02*
D03*
Y213360D02*
D03*
X292100D02*
D03*
X533400Y114300D02*
D03*
Y88900D02*
D03*
Y63500D02*
D03*
Y38100D02*
D03*
X510540Y114300D02*
D03*
Y88900D02*
D03*
X508000Y63500D02*
D03*
Y38100D02*
D03*
X800100Y101600D02*
D03*
X825500D02*
D03*
X850900D02*
D03*
Y127000D02*
D03*
X825500D02*
D03*
X800100D02*
D03*
Y152400D02*
D03*
X825500D02*
D03*
X850900D02*
D03*
X800100Y177800D02*
D03*
X825500D02*
D03*
X850900D02*
D03*
Y203200D02*
D03*
X825500D02*
D03*
X800100D02*
D03*
Y228600D02*
D03*
X825500D02*
D03*
X850900D02*
D03*
Y254000D02*
D03*
X825500D02*
D03*
X800100D02*
D03*
D109*
X309880Y596900D02*
D03*
X335280D02*
D03*
X360680D02*
D03*
X386080D02*
D03*
X87044Y139635D02*
D03*
Y177735D02*
D03*
Y253935D02*
D03*
Y215835D02*
D03*
D110*
X411480Y596900D02*
D03*
D111*
X50800Y50800D02*
D03*
Y584200D02*
D03*
X838200Y50800D02*
D03*
Y584200D02*
D03*
D112*
X142240Y358140D02*
D03*
X167640D02*
D03*
X193040D02*
D03*
X218440D02*
D03*
M02*
