G04*
G04 #@! TF.GenerationSoftware,Altium Limited,Altium Designer,23.0.1 (38)*
G04*
G04 Layer_Physical_Order=1*
G04 Layer_Color=255*
%FSLAX44Y44*%
%MOMM*%
G71*
G04*
G04 #@! TF.SameCoordinates,185929F6-D6CA-45C1-83F6-0EDFB83A3BC2*
G04*
G04*
G04 #@! TF.FilePolarity,Positive*
G04*
G01*
G75*
%ADD15C,0.2540*%
%ADD16R,1.2000X0.6000*%
%ADD17R,2.0000X5.5000*%
%ADD18O,0.7000X2.5000*%
%ADD19O,2.5000X0.7000*%
%ADD20O,0.8000X2.5000*%
%ADD21R,1.0000X1.4500*%
%ADD22R,1.2300X0.6000*%
%ADD23R,0.7800X0.9900*%
%ADD24R,0.9500X0.9000*%
%ADD25R,1.4500X1.0000*%
%ADD26R,1.4750X0.3000*%
%ADD27R,0.3000X1.4750*%
%ADD28R,0.6000X0.6000*%
%ADD29R,0.9000X0.5000*%
%ADD30R,1.4000X0.6000*%
%ADD31R,0.6000X0.7500*%
%ADD32R,2.3700X2.4300*%
%ADD33R,2.1000X4.5000*%
%ADD34R,2.2500X2.0500*%
%ADD35R,1.0200X2.1600*%
%ADD36R,8.3300X6.9900*%
%ADD37R,1.2350X1.9100*%
%ADD38R,1.0000X1.4000*%
%ADD39R,0.9500X1.0000*%
%ADD40R,0.9400X1.4300*%
%ADD41R,0.4200X0.4600*%
%ADD42R,1.2500X0.6000*%
%ADD43R,1.0200X1.4700*%
%ADD44R,0.9000X0.9500*%
%ADD45R,1.1000X0.4000*%
%ADD46R,0.9500X0.9500*%
%ADD47R,0.4600X0.4200*%
%ADD48R,0.9900X0.7800*%
%ADD49R,1.0000X0.9500*%
%ADD50R,0.7000X1.0000*%
%ADD51R,1.5500X0.6500*%
%ADD52R,0.7500X1.4000*%
%ADD53R,2.4300X2.3700*%
%ADD54R,1.0000X1.0500*%
%ADD55R,1.0500X2.2000*%
%ADD56R,2.3000X2.5000*%
%ADD57R,1.3500X0.8000*%
%ADD58R,1.2500X4.7000*%
%ADD59R,0.5500X0.8000*%
%ADD60R,1.2000X1.0500*%
%ADD61R,5.4000X2.9000*%
%ADD113C,0.5080*%
%ADD114C,0.8000*%
%ADD115C,1.2740*%
%ADD116C,0.7620*%
%ADD117C,1.0160*%
%ADD118C,1.2700*%
%ADD119C,0.3810*%
%ADD120C,1.0200*%
%ADD121C,1.5240*%
%ADD122C,2.1000*%
%ADD123R,2.1000X2.1000*%
%ADD124C,7.2000*%
%ADD125C,1.6350*%
%ADD126C,0.5000*%
%ADD127C,1.2700*%
G36*
X820675Y618525D02*
X818001Y617162D01*
X813093Y613597D01*
X808803Y609307D01*
X805238Y604399D01*
X802484Y598994D01*
X800609Y593225D01*
X799660Y587233D01*
Y581167D01*
X800609Y575175D01*
X802484Y569406D01*
X805238Y564001D01*
X808803Y559093D01*
X813093Y554803D01*
X818001Y551238D01*
X823406Y548484D01*
X829175Y546609D01*
X835167Y545660D01*
X841233D01*
X847225Y546609D01*
X852994Y548484D01*
X858399Y551238D01*
X863307Y554803D01*
X867597Y559093D01*
X871162Y564001D01*
X872324Y566279D01*
X873559Y565984D01*
X873762Y357622D01*
X873547Y69040D01*
X872311Y68744D01*
X871162Y70999D01*
X867597Y75907D01*
X863307Y80197D01*
X858399Y83762D01*
X852994Y86516D01*
X847225Y88391D01*
X841233Y89340D01*
X835167D01*
X829175Y88391D01*
X823406Y86516D01*
X818001Y83762D01*
X813093Y80197D01*
X808803Y75907D01*
X805238Y70999D01*
X802484Y65594D01*
X800609Y59825D01*
X799660Y53833D01*
Y47767D01*
X800609Y41775D01*
X802484Y36006D01*
X805238Y30601D01*
X808803Y25693D01*
X813093Y21403D01*
X818001Y17838D01*
X820675Y16475D01*
X820379Y15240D01*
X190706Y15240D01*
Y36466D01*
X177666D01*
X164626D01*
Y15240D01*
X68622D01*
X68325Y16475D01*
X70999Y17838D01*
X75907Y21403D01*
X80197Y25693D01*
X83762Y30601D01*
X86516Y36006D01*
X88391Y41775D01*
X89340Y47767D01*
Y53833D01*
X88391Y59825D01*
X86516Y65594D01*
X83762Y70999D01*
X80197Y75907D01*
X75907Y80197D01*
X70999Y83762D01*
X65594Y86516D01*
X59825Y88391D01*
X53833Y89340D01*
X47767D01*
X41775Y88391D01*
X36006Y86516D01*
X30601Y83762D01*
X25693Y80197D01*
X21403Y75907D01*
X17838Y70999D01*
X16149Y67685D01*
X14879Y67990D01*
X14879Y332116D01*
X16052Y332602D01*
X26240Y322415D01*
X25856Y321490D01*
X25856D01*
Y306410D01*
X45437D01*
Y306556D01*
X50698D01*
X81759Y275495D01*
Y265941D01*
X79037Y264370D01*
X76609Y261942D01*
X74892Y258968D01*
X74004Y255652D01*
Y252218D01*
X74892Y248902D01*
X76609Y245928D01*
X79037Y243500D01*
X82010Y241784D01*
X85327Y240895D01*
X88760D01*
X92077Y241784D01*
X95050Y243500D01*
X97478Y245928D01*
X99195Y248902D01*
X100084Y252218D01*
Y255652D01*
X99195Y258968D01*
X97478Y261942D01*
X95050Y264370D01*
X92118Y266063D01*
Y277641D01*
X91724Y279623D01*
X90601Y281303D01*
X56506Y315398D01*
X54826Y316521D01*
X52844Y316915D01*
X45437D01*
Y321490D01*
X39360D01*
Y321798D01*
X38966Y323780D01*
X37843Y325461D01*
X23503Y339801D01*
Y378062D01*
X24515Y379075D01*
X25688Y378588D01*
Y368882D01*
X29689D01*
Y365910D01*
X29410Y365749D01*
X27755Y364094D01*
X26585Y362067D01*
X25979Y359806D01*
Y357465D01*
X26585Y355204D01*
X27755Y353177D01*
X29410Y351521D01*
X29689Y351360D01*
Y341051D01*
X30083Y339069D01*
X31206Y337389D01*
X39518Y329078D01*
X39518Y329077D01*
X41198Y327955D01*
X43180Y327561D01*
X47120D01*
Y322433D01*
X62200D01*
Y342013D01*
X47120D01*
Y337920D01*
X45325D01*
X40048Y343197D01*
Y351360D01*
X40327Y351521D01*
X41982Y353177D01*
X43153Y355204D01*
X43759Y357465D01*
Y359806D01*
X43153Y362067D01*
X41982Y364094D01*
X40327Y365749D01*
X40048Y365910D01*
Y368882D01*
X46268D01*
X47021Y367923D01*
Y360310D01*
X47120Y359809D01*
Y345810D01*
X62200D01*
Y365390D01*
X57379D01*
Y370379D01*
X58650Y370906D01*
X66120Y363435D01*
Y345810D01*
X68481D01*
Y342013D01*
X66120D01*
Y322433D01*
X81200D01*
Y327043D01*
X98320D01*
X110374Y314989D01*
Y229459D01*
X101930Y221015D01*
X99110D01*
X97478Y223842D01*
X95050Y226270D01*
X92077Y227987D01*
X88760Y228875D01*
X85327D01*
X82010Y227987D01*
X79037Y226270D01*
X76609Y223842D01*
X74892Y220868D01*
X74004Y217552D01*
Y214118D01*
X74892Y210802D01*
X76609Y207828D01*
X79037Y205401D01*
X82010Y203684D01*
X85327Y202795D01*
X88760D01*
X92077Y203684D01*
X95050Y205401D01*
X97478Y207828D01*
X99110Y210656D01*
X104075D01*
X106057Y211050D01*
X107738Y212173D01*
X119216Y223651D01*
X120339Y225332D01*
X120733Y227314D01*
Y317134D01*
X120339Y319116D01*
X119216Y320797D01*
X119216Y320797D01*
X104128Y335885D01*
X102447Y337008D01*
X100465Y337402D01*
X81200D01*
Y342013D01*
X78840D01*
Y345810D01*
X81200D01*
Y365390D01*
X76728D01*
X76348Y367299D01*
X75225Y368980D01*
X66457Y377748D01*
Y395923D01*
X66335Y396535D01*
X67478Y397299D01*
X67726Y397133D01*
X69461Y396788D01*
X80688D01*
Y394282D01*
X80688D01*
Y393162D01*
X80688D01*
Y381582D01*
X80688D01*
Y380462D01*
X80688D01*
Y368882D01*
X86908D01*
Y362850D01*
X83900D01*
Y343270D01*
X98980D01*
Y362850D01*
X95972D01*
Y368882D01*
X101268D01*
Y370787D01*
X111274D01*
X112760Y371083D01*
X114020Y371925D01*
X131271Y389175D01*
X132113Y390435D01*
X132409Y391922D01*
Y460005D01*
X146726D01*
Y463836D01*
X150154D01*
X151640Y464132D01*
X152900Y464974D01*
X156164Y468238D01*
X156470Y468696D01*
X159945Y472171D01*
X160639Y472038D01*
X161215Y471700D01*
Y389965D01*
X156770D01*
Y395417D01*
X137190D01*
Y380337D01*
X156770D01*
Y382195D01*
X161215D01*
Y366803D01*
X161061Y366714D01*
X159066Y364719D01*
X157655Y362276D01*
X156925Y359551D01*
Y356729D01*
X157655Y354004D01*
X159066Y351561D01*
X161061Y349566D01*
X163504Y348155D01*
X166229Y347425D01*
X169051D01*
X171776Y348155D01*
X174219Y349566D01*
X176214Y351561D01*
X177625Y354004D01*
X178355Y356729D01*
Y359551D01*
X177625Y362276D01*
X176214Y364719D01*
X174219Y366714D01*
X171776Y368125D01*
X169051Y368855D01*
X168985D01*
Y384646D01*
X169132Y384758D01*
X170255Y385114D01*
X187114Y368255D01*
X186948Y366996D01*
X186461Y366714D01*
X184466Y364719D01*
X183055Y362276D01*
X182325Y359551D01*
Y356729D01*
X183055Y354004D01*
X184466Y351561D01*
X186461Y349566D01*
X188904Y348155D01*
X191629Y347425D01*
X194451D01*
X197176Y348155D01*
X199619Y349566D01*
X201614Y351561D01*
X203025Y354004D01*
X203755Y356729D01*
Y359551D01*
X203025Y362276D01*
X201614Y364719D01*
X199619Y366714D01*
X197176Y368125D01*
X196110Y368410D01*
Y368637D01*
X195814Y370124D01*
X194972Y371384D01*
X176602Y389754D01*
Y401721D01*
X180289Y405408D01*
X181462Y404922D01*
Y401015D01*
X196542D01*
Y420595D01*
X181462D01*
Y416688D01*
X180289Y416202D01*
X176116Y420374D01*
Y459304D01*
X176112Y459325D01*
Y461157D01*
X193533D01*
Y455777D01*
X192004D01*
Y445987D01*
Y436197D01*
X193533D01*
Y432586D01*
X193829Y431099D01*
X194671Y429839D01*
X194964Y429546D01*
X194869Y429317D01*
Y427312D01*
X195636Y425460D01*
X197054Y424042D01*
X198906Y423274D01*
X200911D01*
X202764Y424042D01*
X204182Y425460D01*
X204949Y427312D01*
Y429317D01*
X204182Y431169D01*
X202764Y432587D01*
X202634Y432641D01*
X202185Y433313D01*
X201303Y434195D01*
Y436197D01*
X214734D01*
Y455777D01*
X210895D01*
Y461157D01*
X218315D01*
Y456308D01*
X216430D01*
Y452628D01*
X222870D01*
Y448818D01*
X226680D01*
Y441328D01*
X229160D01*
X229310Y441328D01*
Y441328D01*
X230430D01*
Y441328D01*
X243310D01*
Y456308D01*
X242753D01*
X242267Y457481D01*
X242704Y457918D01*
X243546Y459178D01*
X243841Y460665D01*
Y461816D01*
X243961Y461935D01*
X244728Y463788D01*
Y464338D01*
X244928Y464537D01*
X245770Y465797D01*
X246065Y467284D01*
Y481912D01*
X251940D01*
Y492012D01*
X263042D01*
Y474558D01*
X265744D01*
Y458330D01*
X263207Y455793D01*
X262365Y454533D01*
X262070Y453046D01*
Y451777D01*
X254933D01*
Y437197D01*
X270013D01*
Y451611D01*
X272376Y453974D01*
X273218Y455234D01*
X273514Y456721D01*
Y474558D01*
X275622D01*
Y493638D01*
X272422D01*
X272169Y494906D01*
X271721Y495577D01*
X272400Y496847D01*
X275614D01*
X277917Y494544D01*
X277542Y493638D01*
X277542D01*
Y474558D01*
X280135D01*
Y458766D01*
X280431Y457280D01*
X281273Y456019D01*
X284836Y452456D01*
X284560Y451790D01*
X284560D01*
Y437210D01*
X299640D01*
Y451790D01*
X295055D01*
X294803Y453059D01*
X293961Y454319D01*
X287904Y460375D01*
Y474558D01*
X290122D01*
Y493638D01*
X287717D01*
Y494123D01*
X287421Y495609D01*
X286579Y496870D01*
X282610Y500839D01*
X283096Y502012D01*
X306430D01*
X310228Y498215D01*
Y495196D01*
X306470D01*
Y480616D01*
X321550D01*
Y486276D01*
X322818Y486528D01*
X324079Y487370D01*
X332673Y495964D01*
X335405D01*
Y448618D01*
X335701Y447132D01*
X336543Y445871D01*
X351657Y430758D01*
X352917Y429916D01*
X354403Y429620D01*
X377462D01*
Y403465D01*
X402542D01*
Y463545D01*
X377462D01*
Y437389D01*
X356012D01*
X343175Y450227D01*
Y495964D01*
X346762D01*
Y510044D01*
X332182D01*
Y505026D01*
X330913Y504774D01*
X329653Y503932D01*
X320917Y495196D01*
X317997D01*
Y499824D01*
X317701Y501310D01*
X316859Y502571D01*
X310879Y508551D01*
X315959Y513632D01*
X316801Y514892D01*
X317097Y516379D01*
Y517312D01*
X321550D01*
Y521740D01*
X323177D01*
X329653Y515265D01*
X330913Y514422D01*
X332182Y514170D01*
Y511964D01*
X346762D01*
Y526044D01*
X344135D01*
Y531681D01*
X352129Y539675D01*
X377462D01*
Y498465D01*
X402542D01*
Y558545D01*
X377462D01*
Y547445D01*
X350520D01*
X349033Y547149D01*
X347773Y546307D01*
X337503Y536037D01*
X336661Y534776D01*
X336365Y533290D01*
Y526044D01*
X332182D01*
Y525382D01*
X331009Y524896D01*
X327533Y528372D01*
X326273Y529214D01*
X324787Y529510D01*
X321550D01*
Y531892D01*
X306470D01*
Y517312D01*
X306992D01*
X307478Y516138D01*
X306091Y514751D01*
X277946D01*
X276730Y514880D01*
Y517510D01*
X269240D01*
Y525130D01*
X276730D01*
Y527610D01*
X276730Y527760D01*
X276730D01*
Y528880D01*
X276730D01*
Y541760D01*
X272828D01*
Y554355D01*
X303817Y585343D01*
X304847Y584749D01*
X308163Y583860D01*
X311597D01*
X314913Y584749D01*
X317887Y586465D01*
X320315Y588893D01*
X321883Y591609D01*
X322540Y591745D01*
X322620D01*
X323277Y591609D01*
X324845Y588893D01*
X327273Y586465D01*
X330247Y584749D01*
X331470Y584421D01*
Y596900D01*
Y609379D01*
X330247Y609051D01*
X327273Y607335D01*
X324845Y604907D01*
X323277Y602191D01*
X322620Y602055D01*
X322540D01*
X321883Y602191D01*
X320315Y604907D01*
X317887Y607335D01*
X314913Y609051D01*
X311597Y609940D01*
X308163D01*
X304847Y609051D01*
X301873Y607335D01*
X299445Y604907D01*
X297729Y601933D01*
X296840Y598617D01*
Y595183D01*
X297729Y591867D01*
X298323Y590837D01*
X266197Y558710D01*
X265355Y557450D01*
X265059Y555964D01*
Y541760D01*
X261750D01*
X261249Y542822D01*
X260813Y543875D01*
X259395Y545293D01*
X257542Y546060D01*
X255537D01*
X253685Y545293D01*
X253263Y544870D01*
X251940D01*
Y544991D01*
X232110D01*
Y536912D01*
Y531665D01*
X230936Y531179D01*
X221487Y540629D01*
X220226Y541471D01*
X218740Y541766D01*
X197624D01*
X197236Y542154D01*
X195383Y542922D01*
X193378D01*
X191526Y542154D01*
X190108Y540737D01*
X189341Y538884D01*
Y536879D01*
X190108Y535027D01*
X191526Y533609D01*
X193378Y532842D01*
X195383D01*
X197236Y533609D01*
X197624Y533997D01*
X217131D01*
X227978Y523150D01*
X229238Y522308D01*
X230725Y522012D01*
X232110D01*
Y519815D01*
X217822D01*
X217296Y521085D01*
X217840Y521629D01*
X218607Y523481D01*
Y525486D01*
X217840Y527339D01*
X216422Y528757D01*
X214569Y529524D01*
X212564D01*
X210712Y528757D01*
X210255Y528299D01*
X177141D01*
X171837Y533603D01*
X170577Y534445D01*
X169090Y534740D01*
X167180D01*
Y544991D01*
X147350D01*
Y536912D01*
Y524781D01*
X126181D01*
X124694Y524486D01*
X123434Y523644D01*
X113839Y514049D01*
X112997Y512789D01*
X112701Y511302D01*
Y459384D01*
X111431Y458858D01*
X107345Y462945D01*
X105874Y463927D01*
X104140Y464272D01*
X100860D01*
Y469530D01*
X85780D01*
Y451572D01*
X81947D01*
Y456645D01*
X81860Y457083D01*
Y469530D01*
X66780D01*
Y464272D01*
X38766D01*
Y498056D01*
X38470Y499543D01*
X37628Y500803D01*
X36307Y502124D01*
X36790Y503290D01*
X36790D01*
Y522870D01*
X21710D01*
Y503290D01*
X25589D01*
X25841Y502021D01*
X26683Y500761D01*
X28871Y498573D01*
X28620Y497968D01*
Y489860D01*
Y482320D01*
X30850D01*
X30997Y481111D01*
Y462158D01*
X31032Y461979D01*
X30520Y460742D01*
Y458737D01*
X31287Y456885D01*
X32705Y455467D01*
X34557Y454700D01*
X36562D01*
X37789Y455208D01*
X66780D01*
Y449950D01*
X72883D01*
Y448900D01*
X73228Y447165D01*
X74210Y445695D01*
X74602Y445303D01*
X74116Y444130D01*
X66780D01*
Y439897D01*
X66735Y438692D01*
X65001Y438347D01*
X63530Y437364D01*
X63530Y437364D01*
X59190Y433024D01*
X58207Y431554D01*
X57862Y429819D01*
Y408386D01*
X58207Y406652D01*
X58468Y406262D01*
X57704Y405119D01*
X57150Y405229D01*
X47339D01*
X46268Y405862D01*
Y406982D01*
X46268Y407132D01*
Y408962D01*
X35978D01*
X25688D01*
Y407132D01*
X25688Y406982D01*
Y405862D01*
X25688Y405712D01*
Y394282D01*
X25688D01*
Y393784D01*
X25550Y393046D01*
X24745Y392374D01*
X23469Y392120D01*
X21788Y390998D01*
X16052Y385261D01*
X14879Y385747D01*
Y567010D01*
X16149Y567315D01*
X17838Y564001D01*
X21403Y559093D01*
X25693Y554803D01*
X30601Y551238D01*
X36006Y548484D01*
X41775Y546609D01*
X47767Y545660D01*
X53833D01*
X59825Y546609D01*
X65594Y548484D01*
X70999Y551238D01*
X75907Y554803D01*
X80197Y559093D01*
X83762Y564001D01*
X86516Y569406D01*
X88391Y575175D01*
X89340Y581167D01*
Y587233D01*
X88391Y593225D01*
X86516Y598994D01*
X83762Y604399D01*
X80197Y609307D01*
X75907Y613597D01*
X70999Y617162D01*
X68325Y618525D01*
X68621Y619760D01*
X483472D01*
X483998Y618490D01*
X483106Y617599D01*
X482154Y615950D01*
X498286D01*
X497334Y617599D01*
X496442Y618490D01*
X496968Y619760D01*
X504089D01*
X504843Y618802D01*
X504843Y618490D01*
Y609072D01*
X512633D01*
X520423D01*
Y618490D01*
X520423Y618802D01*
X521177Y619760D01*
X533588D01*
X534343Y618802D01*
X534343Y618490D01*
Y609072D01*
X542133D01*
X549923D01*
Y618490D01*
X549923Y618802D01*
X550677Y619760D01*
X555170D01*
X555805Y618660D01*
X555560Y618236D01*
X571692D01*
X571447Y618660D01*
X572082Y619760D01*
X820379D01*
X820675Y618525D01*
D02*
G37*
G36*
X147350Y496410D02*
X146080Y495562D01*
X145349Y495864D01*
X143344D01*
X141492Y495097D01*
X140329Y493935D01*
X139081Y493101D01*
X135882Y489902D01*
X135040Y488642D01*
X134745Y487155D01*
Y486885D01*
X132409D01*
Y500803D01*
X138618Y507012D01*
X147350D01*
Y496410D01*
D02*
G37*
G36*
X172438Y522015D02*
X172338Y520818D01*
X172190Y520538D01*
X171465Y520237D01*
X170047Y518820D01*
X169280Y516967D01*
Y514962D01*
X170047Y513110D01*
X171465Y511692D01*
X173318Y510925D01*
X175323D01*
X177175Y511692D01*
X177529Y512046D01*
X232110D01*
Y501912D01*
Y491912D01*
Y481912D01*
X238296D01*
Y469669D01*
X236833Y469063D01*
X236567Y468796D01*
X231185D01*
Y480987D01*
X223104D01*
Y471072D01*
X221185D01*
Y480987D01*
X206029D01*
Y485214D01*
X207278Y486462D01*
X207392D01*
X209244Y487229D01*
X210662Y488647D01*
X211429Y490500D01*
Y492505D01*
X210662Y494357D01*
X209244Y495775D01*
X207392Y496542D01*
X205387D01*
X203534Y495775D01*
X202116Y494357D01*
X201349Y492505D01*
Y491521D01*
X199398Y489570D01*
X198556Y488310D01*
X198260Y486823D01*
Y480987D01*
X174033D01*
X173228Y481968D01*
X173303Y482346D01*
Y493522D01*
X173007Y495009D01*
X172165Y496269D01*
X169790Y498644D01*
X168530Y499486D01*
X167180Y499754D01*
Y506912D01*
Y516912D01*
Y525477D01*
X168450Y526003D01*
X172438Y522015D01*
D02*
G37*
G36*
X104688Y452783D02*
Y418437D01*
X103554Y417304D01*
X101268D01*
Y418562D01*
X80688D01*
Y418313D01*
X79632Y417607D01*
X79191Y417790D01*
X77186D01*
X75333Y417023D01*
X73916Y415605D01*
X73148Y413753D01*
Y411748D01*
X73916Y409895D01*
X75333Y408477D01*
X77186Y407710D01*
X79191D01*
X79632Y407893D01*
X79818Y407769D01*
X80688Y406982D01*
X80349Y405852D01*
X71338D01*
X66926Y410264D01*
Y424550D01*
X81860D01*
Y442508D01*
X85697D01*
Y437431D01*
X85780Y437013D01*
Y424550D01*
X100860D01*
Y444130D01*
X94761D01*
Y445180D01*
X94416Y446914D01*
X93434Y448385D01*
X93434Y448385D01*
X93042Y448777D01*
X93528Y449950D01*
X100860D01*
Y455208D01*
X102263D01*
X104688Y452783D01*
D02*
G37*
G36*
X112701Y411836D02*
Y393531D01*
X110427Y391256D01*
X101268D01*
Y393162D01*
X101269D01*
Y394282D01*
X101268D01*
Y405862D01*
X101269D01*
Y406970D01*
X101298Y408240D01*
X105432D01*
X107166Y408585D01*
X108636Y409567D01*
X111431Y412362D01*
X112701Y411836D01*
D02*
G37*
G36*
X124639Y483268D02*
Y393531D01*
X121452Y390343D01*
X120281Y390969D01*
X120471Y391922D01*
Y483272D01*
X121426Y483910D01*
X123431D01*
X123583Y483973D01*
X124639Y483268D01*
D02*
G37*
%LPC*%
G36*
X424520Y609940D02*
X398440D01*
Y604112D01*
X397170Y603772D01*
X396515Y604907D01*
X394087Y607335D01*
X391113Y609051D01*
X387797Y609940D01*
X384363D01*
X381047Y609051D01*
X378073Y607335D01*
X375645Y604907D01*
X374077Y602191D01*
X373420Y602055D01*
X373340D01*
X372683Y602191D01*
X371115Y604907D01*
X368687Y607335D01*
X365713Y609051D01*
X362397Y609940D01*
X358963D01*
X355647Y609051D01*
X352673Y607335D01*
X350245Y604907D01*
X348677Y602191D01*
X348020Y602055D01*
X347940D01*
X347283Y602191D01*
X345715Y604907D01*
X343287Y607335D01*
X340313Y609051D01*
X339090Y609379D01*
Y596900D01*
Y584421D01*
X340313Y584749D01*
X343287Y586465D01*
X345715Y588893D01*
X347283Y591609D01*
X347940Y591745D01*
X348020D01*
X348677Y591609D01*
X350245Y588893D01*
X352673Y586465D01*
X355647Y584749D01*
X357379Y584285D01*
X357383Y584281D01*
X358149Y583213D01*
X358184Y583130D01*
X358256Y581862D01*
X358256Y578589D01*
X358552Y577102D01*
X359394Y575842D01*
X360138Y575098D01*
X360138Y575098D01*
X367052Y568184D01*
X368312Y567342D01*
X369799Y567047D01*
X438982D01*
X439830Y565777D01*
X439460Y564883D01*
Y564334D01*
X428291Y553165D01*
X427449Y551905D01*
X427153Y550418D01*
Y422487D01*
X406457Y401790D01*
X252317D01*
X236808Y417300D01*
Y417849D01*
X236040Y419701D01*
X234623Y421119D01*
X232770Y421886D01*
X230765D01*
X228913Y421119D01*
X227495Y419701D01*
X226728Y417849D01*
Y415843D01*
X227495Y413991D01*
X228913Y412573D01*
X230765Y411806D01*
X231314D01*
X247961Y395159D01*
X249221Y394317D01*
X250708Y394021D01*
X315023D01*
Y391810D01*
X330004D01*
Y394021D01*
X345570D01*
Y391810D01*
X360550D01*
Y394021D01*
X381130D01*
Y391810D01*
X396110D01*
Y394021D01*
X408066D01*
X409552Y394317D01*
X410812Y395159D01*
X433412Y417759D01*
X434682Y417233D01*
Y389983D01*
X434978Y388496D01*
X435820Y387236D01*
X477441Y345615D01*
X477907Y345303D01*
X477522Y344033D01*
X471725D01*
Y340553D01*
X478765D01*
X485805D01*
Y343577D01*
X486765Y344123D01*
X487725Y343577D01*
Y329453D01*
X491415D01*
Y319296D01*
X485965D01*
Y308216D01*
X503545D01*
Y319296D01*
X499185D01*
Y329453D01*
X501805D01*
Y332859D01*
X505331D01*
Y329453D01*
X519411D01*
X519411Y343577D01*
X520371Y344123D01*
X521331Y343577D01*
Y329453D01*
X535411D01*
Y331772D01*
X549487D01*
X549561Y331757D01*
X550263Y331897D01*
X550564D01*
X550842Y332012D01*
X551543Y332151D01*
X552138Y332549D01*
X552416Y332664D01*
X552629Y332877D01*
X553224Y333274D01*
X553621Y333869D01*
X553834Y334082D01*
X553949Y334360D01*
X554347Y334954D01*
X554486Y335656D01*
X554601Y335934D01*
Y336235D01*
X554741Y336936D01*
X554693Y337177D01*
X555842Y337791D01*
X555871Y337795D01*
X557455Y336211D01*
Y279030D01*
X553800D01*
Y259450D01*
X557455D01*
Y256170D01*
X553800D01*
Y236590D01*
X568880D01*
Y256170D01*
X565225D01*
Y259450D01*
X568880D01*
Y268079D01*
X570143Y268097D01*
X570438Y266610D01*
X571280Y265350D01*
X584717Y251913D01*
X585978Y251071D01*
X587464Y250775D01*
X590310D01*
Y249120D01*
X607690D01*
Y260200D01*
X590310D01*
Y258625D01*
X589040Y258578D01*
X577912Y269706D01*
Y342913D01*
X577616Y344399D01*
X576774Y345660D01*
X565574Y356860D01*
X566060Y358033D01*
X599133D01*
X616315Y340851D01*
Y315420D01*
X611510D01*
Y304340D01*
X619707D01*
Y298797D01*
X620003Y297310D01*
X620845Y296050D01*
X627051Y289844D01*
X628311Y289002D01*
X629797Y288706D01*
X632069D01*
Y285579D01*
X646649D01*
Y299659D01*
X632069D01*
Y297609D01*
X630799Y297083D01*
X627477Y300406D01*
Y304340D01*
X628890D01*
Y315420D01*
X624085D01*
Y342460D01*
X623789Y343947D01*
X622947Y345207D01*
X618987Y349167D01*
X619873Y350077D01*
X647396Y323983D01*
Y316620D01*
X646649Y315659D01*
X632069D01*
Y301579D01*
X646649D01*
Y301579D01*
X647367Y301877D01*
X659534Y289710D01*
Y267280D01*
X658478Y266575D01*
X658070Y266744D01*
X657026D01*
X652156Y271614D01*
Y281200D01*
X632576D01*
Y277545D01*
X607690D01*
Y279200D01*
X590310D01*
Y277545D01*
X588133D01*
Y315088D01*
X590310D01*
Y313840D01*
X607690D01*
Y324920D01*
X590310D01*
Y322857D01*
X585736D01*
X584249Y322561D01*
X582989Y321719D01*
X581501Y320231D01*
X580659Y318971D01*
X580363Y317484D01*
Y275148D01*
X580659Y273661D01*
X581501Y272401D01*
X582989Y270913D01*
X584249Y270071D01*
X585736Y269775D01*
X590310D01*
Y268120D01*
X607690D01*
Y269775D01*
X610271D01*
X611510Y269700D01*
Y258620D01*
X615875D01*
Y242003D01*
X615487Y241615D01*
X614720Y239762D01*
Y237757D01*
X615487Y235905D01*
X616905Y234487D01*
X618758Y233720D01*
X620762D01*
X622615Y234487D01*
X624033Y235905D01*
X624800Y237757D01*
Y239762D01*
X624033Y241615D01*
X623645Y242003D01*
Y258620D01*
X625913D01*
X626264Y258498D01*
X627090Y257865D01*
Y210563D01*
X627287Y209571D01*
X627662Y209010D01*
X627279Y208011D01*
X627084Y207764D01*
X575399D01*
Y209332D01*
X575103Y210819D01*
X574261Y212079D01*
X572773Y213567D01*
X571513Y214409D01*
X570026Y214705D01*
X562080D01*
Y218310D01*
X549350D01*
X549200Y218310D01*
X548080D01*
X547930Y218310D01*
X545525D01*
Y236590D01*
X549880D01*
Y256170D01*
X534800D01*
Y250587D01*
X533530Y250579D01*
X533147Y250962D01*
X531295Y251729D01*
X529290D01*
X527438Y250962D01*
X526020Y249544D01*
X525252Y247692D01*
Y245687D01*
X526020Y243834D01*
X527438Y242417D01*
X529290Y241649D01*
X531295D01*
X533147Y242417D01*
X533530Y242799D01*
X534800Y242792D01*
Y236590D01*
X537755D01*
Y218310D01*
X535200D01*
Y203330D01*
X547930D01*
X548080Y203330D01*
X549200D01*
X549350Y203330D01*
X562080D01*
Y206935D01*
X566421D01*
X567269Y205665D01*
X566945Y204882D01*
Y202877D01*
X567712Y201025D01*
X569130Y199607D01*
X570982Y198840D01*
X572987D01*
X574840Y199607D01*
X575228Y199995D01*
X579250D01*
Y191770D01*
X593640D01*
X608030D01*
Y199995D01*
X627090D01*
Y154010D01*
X626420D01*
Y134630D01*
X626420D01*
Y133690D01*
X626420D01*
Y114310D01*
X627090D01*
Y112154D01*
X626071Y111618D01*
X625860Y111589D01*
X624101Y113347D01*
X624500Y114310D01*
X624500D01*
Y120190D01*
X617260D01*
X610020D01*
Y116370D01*
X596352D01*
X592217Y120505D01*
Y128631D01*
X592743Y129161D01*
X594013Y128638D01*
Y124184D01*
X597443D01*
Y133874D01*
Y143563D01*
X594331D01*
X594013Y143563D01*
X592850Y143821D01*
X592618Y144379D01*
X591193Y146236D01*
X584056Y153374D01*
X582199Y154799D01*
X580036Y155695D01*
X577715Y156000D01*
X520583D01*
X519487Y156419D01*
Y175499D01*
X504407D01*
Y156419D01*
X503310Y156000D01*
X501583D01*
X500487Y156419D01*
X500486Y157270D01*
Y175499D01*
X496446D01*
Y194637D01*
X503045D01*
Y210217D01*
X485965D01*
Y194637D01*
X488677D01*
Y175499D01*
X485406D01*
Y157270D01*
X485406Y156419D01*
X484310Y156000D01*
X476863D01*
X476439Y157270D01*
X478030Y158862D01*
X479368Y161178D01*
X479398Y161290D01*
X460402D01*
X460432Y161178D01*
X461770Y158862D01*
X463662Y156970D01*
X465978Y155632D01*
X466703Y155438D01*
X466980Y154049D01*
X466100Y153374D01*
X461084Y148358D01*
X454012Y141287D01*
X446100D01*
Y149360D01*
X432101D01*
Y168458D01*
X440961D01*
Y198538D01*
X432101D01*
Y214211D01*
X431707Y216194D01*
X430584Y217874D01*
X397832Y250626D01*
X396151Y251749D01*
X394169Y252143D01*
X360892D01*
X359914Y252847D01*
X359914Y253413D01*
Y255195D01*
X368126D01*
X369613Y255491D01*
X370873Y256333D01*
X373587Y259047D01*
X374429Y260307D01*
X374725Y261794D01*
Y262530D01*
X376380D01*
Y274641D01*
X378920D01*
X380902Y275035D01*
X382583Y276157D01*
X392282Y285858D01*
X393405Y287538D01*
X393800Y289520D01*
Y312420D01*
X393660Y313121D01*
Y313423D01*
X393545Y313701D01*
X393405Y314402D01*
X393008Y314997D01*
X392893Y315275D01*
X392680Y315488D01*
X392505Y315750D01*
Y316351D01*
X392209Y317837D01*
X391367Y319098D01*
X384966Y325499D01*
X383706Y326340D01*
X382219Y326636D01*
X376822D01*
Y332151D01*
X375440D01*
X374925Y333116D01*
X374893Y333421D01*
X375168Y334804D01*
Y340440D01*
X378510D01*
Y355520D01*
X375105D01*
Y370115D01*
X381130D01*
Y367560D01*
X396110D01*
Y380290D01*
X396110Y380440D01*
Y381560D01*
X396110Y381710D01*
Y384190D01*
X381130D01*
Y381710D01*
X381130Y381560D01*
Y380440D01*
X381130Y380290D01*
Y377885D01*
X360550D01*
Y380290D01*
X360550Y380440D01*
Y381560D01*
X360550Y381710D01*
Y384190D01*
X345570D01*
Y381710D01*
X345570Y381560D01*
Y380440D01*
X345570Y380290D01*
Y377667D01*
X330004D01*
Y380290D01*
X330004Y380440D01*
Y381560D01*
X330004Y381710D01*
Y384190D01*
X315023D01*
Y381710D01*
X315023Y381560D01*
Y380440D01*
X315023Y380290D01*
Y367560D01*
X330004D01*
Y369898D01*
X345570D01*
Y367560D01*
X360550D01*
Y370115D01*
X367335D01*
Y355520D01*
X363930D01*
Y340440D01*
X367399D01*
Y336413D01*
X365666Y334679D01*
X364824Y333419D01*
X364572Y332151D01*
X361742D01*
Y312571D01*
X376822D01*
Y318867D01*
X380610D01*
X384305Y315172D01*
X384232Y314997D01*
X383835Y314402D01*
X383695Y313701D01*
X383580Y313423D01*
Y313121D01*
X383441Y312420D01*
Y291665D01*
X377650Y285875D01*
X376380Y286110D01*
Y286110D01*
X365300D01*
Y273530D01*
Y262965D01*
X359914D01*
Y265927D01*
X341334D01*
Y253413D01*
X341334Y252847D01*
X340355Y252143D01*
X335480D01*
Y256070D01*
X333226D01*
Y285395D01*
X336500D01*
Y296475D01*
X320107D01*
X318845Y297737D01*
Y303363D01*
X319420Y304395D01*
X320115Y304395D01*
X336500D01*
Y315475D01*
X332566D01*
X332399Y316745D01*
X334011Y318357D01*
X342742D01*
Y312571D01*
X346635D01*
Y310566D01*
X342667D01*
Y290986D01*
X357747D01*
Y310566D01*
X354405D01*
Y312571D01*
X357822D01*
Y332151D01*
X355533D01*
X355007Y333421D01*
X358009Y336423D01*
X358851Y337683D01*
X359147Y339170D01*
Y340440D01*
X362510D01*
Y355520D01*
X347930D01*
Y340440D01*
X349379D01*
X349865Y339267D01*
X347535Y336936D01*
X346693Y335676D01*
X346397Y334189D01*
Y332151D01*
X342742D01*
Y326126D01*
X332401D01*
X330915Y325830D01*
X329655Y324988D01*
X325649Y320983D01*
X324807Y319722D01*
X324511Y318236D01*
Y315475D01*
X319420Y315475D01*
X318845Y316507D01*
Y326051D01*
X322787Y329993D01*
X323629Y331253D01*
X323925Y332740D01*
Y343270D01*
X326920D01*
Y362850D01*
X311840D01*
Y343270D01*
X316155D01*
Y334349D01*
X312213Y330407D01*
X311371Y329147D01*
X311075Y327660D01*
Y316507D01*
X310500Y315475D01*
X309805Y315475D01*
X305845D01*
Y343270D01*
X307920D01*
Y362850D01*
X292840D01*
Y357137D01*
X286940D01*
Y362850D01*
X271860D01*
Y343270D01*
X286940D01*
Y349368D01*
X292840D01*
Y343270D01*
X298075D01*
Y315475D01*
X293420D01*
Y304395D01*
Y304245D01*
X301960D01*
Y296625D01*
X293420D01*
Y296114D01*
X287791D01*
X278030Y305875D01*
Y333380D01*
X260450D01*
Y281300D01*
X278030D01*
Y289566D01*
X279203Y290052D01*
X281983Y287272D01*
X283663Y286150D01*
X285645Y285755D01*
X293420D01*
Y285395D01*
X310500D01*
Y293659D01*
X311770Y294044D01*
X312213Y293381D01*
X316891Y288703D01*
X318151Y287861D01*
X319420Y287609D01*
Y285395D01*
X322867D01*
Y256070D01*
X321000D01*
Y236690D01*
X335480D01*
Y241784D01*
X392024D01*
X421742Y212066D01*
Y198538D01*
X412881D01*
Y168458D01*
X421742D01*
Y149360D01*
X387020D01*
Y139125D01*
X324445D01*
X322463Y138731D01*
X320783Y137608D01*
X302784Y119609D01*
X301661Y117928D01*
X301267Y115946D01*
Y99091D01*
X298806D01*
Y72411D01*
X314086D01*
Y99091D01*
X311626D01*
Y113801D01*
X326591Y128766D01*
X387020D01*
Y115280D01*
X411414D01*
Y103883D01*
X410368Y102070D01*
X409762Y99809D01*
Y97468D01*
X410368Y95207D01*
X411538Y93180D01*
X413193Y91525D01*
X415220Y90355D01*
X417481Y89749D01*
X419822D01*
X422083Y90355D01*
X424110Y91525D01*
X425765Y93180D01*
X426936Y95207D01*
X427542Y97468D01*
Y99809D01*
X426936Y102070D01*
X426786Y102330D01*
Y115280D01*
X446100D01*
Y123353D01*
X457727D01*
X460047Y123659D01*
X462210Y124555D01*
X464067Y125980D01*
X473765Y135677D01*
X476154Y138067D01*
X574001D01*
X575886Y136182D01*
Y133874D01*
X576192Y131553D01*
X577088Y129390D01*
X577613Y128706D01*
Y124184D01*
X579268D01*
Y117823D01*
X579761Y115345D01*
X581165Y113245D01*
X589092Y105318D01*
X589507Y105040D01*
X589122Y103770D01*
X588700D01*
Y84190D01*
X592355D01*
Y80660D01*
X588700D01*
Y61580D01*
X590855D01*
Y55800D01*
X587450D01*
Y40720D01*
X602030D01*
Y55800D01*
X598625D01*
Y61580D01*
X603780D01*
Y67235D01*
X607060D01*
X608547Y67531D01*
X609807Y68373D01*
X622029Y80595D01*
X628700D01*
Y78940D01*
X638981D01*
X639771Y77670D01*
X639571Y76668D01*
Y76173D01*
X635916D01*
Y56593D01*
X643098D01*
X643301Y56103D01*
X643493Y55323D01*
X642732Y54184D01*
X642490Y52970D01*
X635740D01*
Y33390D01*
X650820D01*
Y51119D01*
X654740D01*
Y46990D01*
X662280D01*
X669820D01*
Y52970D01*
X665877D01*
X665255Y54240D01*
X665766Y55005D01*
X666062Y56492D01*
Y56593D01*
X669996D01*
Y65888D01*
X674010D01*
X675496Y66184D01*
X676757Y67026D01*
X678244Y68514D01*
X679087Y69774D01*
X679382Y71261D01*
Y82992D01*
X679087Y84479D01*
X678244Y85739D01*
X676757Y87227D01*
X675496Y88069D01*
X674010Y88365D01*
X671780D01*
Y90170D01*
X663240D01*
X654700D01*
Y88440D01*
Y78940D01*
X671613D01*
Y73658D01*
X669996D01*
Y76173D01*
X654916D01*
Y58889D01*
X650996D01*
Y76173D01*
X650114D01*
X649628Y77346D01*
X651298Y79017D01*
X652140Y80277D01*
X652436Y81763D01*
Y102020D01*
X652140Y103506D01*
X651298Y104766D01*
X649810Y106254D01*
X648550Y107096D01*
X647063Y107392D01*
X645780D01*
Y109020D01*
X646988Y109170D01*
X653492D01*
X654700Y109020D01*
Y97940D01*
Y97790D01*
X660325D01*
X660762Y97498D01*
X663240Y97005D01*
X665718Y97498D01*
X666155Y97790D01*
X671780D01*
Y97794D01*
X695509D01*
Y72330D01*
X713089D01*
Y109170D01*
X728009D01*
Y72330D01*
X745589D01*
Y109170D01*
X754591D01*
X755582Y109367D01*
X756422Y109929D01*
X756983Y110769D01*
X757180Y111760D01*
Y238760D01*
X757088Y239224D01*
X757008Y239690D01*
X756990Y239718D01*
X756983Y239751D01*
X756721Y240144D01*
X756468Y240544D01*
X730275Y268107D01*
X730281Y268132D01*
X730912Y269280D01*
X732523D01*
X734375Y270047D01*
X735793Y271465D01*
X736560Y273318D01*
Y275322D01*
X736165Y276276D01*
X737014Y277546D01*
X738236D01*
Y280951D01*
X780105D01*
X781592Y281247D01*
X782852Y282089D01*
X801709Y300946D01*
X802979Y300420D01*
Y293794D01*
X803809D01*
Y298634D01*
X807619D01*
Y300394D01*
X812259D01*
Y300394D01*
Y310074D01*
X802979D01*
Y310035D01*
X801709Y309509D01*
X798426Y312792D01*
Y319293D01*
X802581D01*
Y320155D01*
X803850Y320407D01*
X805110Y321250D01*
X805328Y321467D01*
X806501Y320981D01*
Y319293D01*
X814612D01*
X815098Y318120D01*
X814863Y317886D01*
X814096Y316033D01*
Y314028D01*
X814863Y312176D01*
X816281Y310758D01*
X818133Y309991D01*
X820139D01*
X821991Y310758D01*
X822548Y311315D01*
X822811D01*
X824297Y311611D01*
X825557Y312453D01*
X827045Y313941D01*
X827887Y315201D01*
X828183Y316688D01*
Y344478D01*
X835426D01*
Y349118D01*
X837186D01*
Y352929D01*
X842026D01*
Y353759D01*
X837268D01*
X836782Y354932D01*
X848567Y366717D01*
X849409Y367977D01*
X849705Y369464D01*
Y411264D01*
X850560Y412180D01*
X864640D01*
Y422260D01*
X862405D01*
Y480280D01*
X864640D01*
Y490360D01*
X850560D01*
Y489025D01*
X842349D01*
X829767Y501607D01*
X830253Y502780D01*
X831290D01*
Y508320D01*
Y513860D01*
X825560D01*
Y507104D01*
X824787Y506691D01*
X824290Y506540D01*
X822960Y506805D01*
X782320D01*
X780833Y506509D01*
X779573Y505667D01*
X771953Y498047D01*
X771111Y496787D01*
X770815Y495300D01*
Y452120D01*
X771111Y450633D01*
X771953Y449373D01*
X777753Y443573D01*
X778795Y442877D01*
X778680Y441858D01*
X778584Y441607D01*
X710365D01*
X708878Y441311D01*
X707618Y440469D01*
X699634Y432485D01*
X692719D01*
X692621Y432631D01*
X691858Y433141D01*
Y434411D01*
X692621Y434922D01*
X693956Y436920D01*
X694425Y439276D01*
X693956Y441633D01*
X692621Y443631D01*
X691858Y444141D01*
Y445411D01*
X692621Y445922D01*
X693956Y447920D01*
X694425Y450276D01*
X693956Y452633D01*
X692621Y454631D01*
X691858Y455141D01*
Y456411D01*
X692621Y456922D01*
X693956Y458920D01*
X694425Y461276D01*
X693956Y463633D01*
X692621Y465631D01*
X691858Y466141D01*
Y467411D01*
X692621Y467922D01*
X693956Y469920D01*
X694425Y472276D01*
X693956Y474633D01*
X692621Y476631D01*
X691858Y477141D01*
Y478411D01*
X692621Y478922D01*
X693956Y480920D01*
X694425Y483276D01*
X693956Y485633D01*
X692621Y487631D01*
X691858Y488141D01*
Y489411D01*
X692621Y489922D01*
X693956Y491920D01*
X694425Y494276D01*
X693956Y496633D01*
X692621Y498631D01*
X691858Y499141D01*
Y500411D01*
X692621Y500922D01*
X693956Y502920D01*
X694425Y505276D01*
X693956Y507633D01*
X692621Y509631D01*
X691858Y510141D01*
Y511411D01*
X692621Y511922D01*
X693956Y513920D01*
X694425Y516276D01*
X693956Y518633D01*
X692621Y520631D01*
X690623Y521966D01*
X688267Y522435D01*
X670267D01*
X667910Y521966D01*
X665912Y520631D01*
X664577Y518633D01*
X664108Y516276D01*
X664577Y513920D01*
X665912Y511922D01*
X666676Y511411D01*
Y510141D01*
X665912Y509631D01*
X664577Y507633D01*
X664108Y505276D01*
X664577Y502920D01*
X665912Y500922D01*
X666676Y500411D01*
Y499141D01*
X665912Y498631D01*
X664577Y496633D01*
X664108Y494276D01*
X664577Y491920D01*
X665912Y489922D01*
X666676Y489411D01*
Y488141D01*
X665912Y487631D01*
X664577Y485633D01*
X664108Y483276D01*
X664144Y483098D01*
X662973Y482472D01*
X653471Y491975D01*
X652210Y492817D01*
X650724Y493113D01*
X649873D01*
X649485Y493501D01*
X647632Y494268D01*
X645627D01*
X643775Y493501D01*
X642357Y492083D01*
X641590Y490231D01*
Y488226D01*
X642357Y486373D01*
X643775Y484955D01*
X645627Y484188D01*
X647632D01*
X649485Y484955D01*
X649494Y484964D01*
X664075Y470383D01*
X664548Y470067D01*
X664577Y469920D01*
X665912Y467922D01*
X666676Y467411D01*
Y466155D01*
X665625Y465613D01*
X653585Y477653D01*
X652324Y478495D01*
X650838Y478791D01*
X648341D01*
X647482Y479650D01*
X645630Y480417D01*
X643625D01*
X641772Y479650D01*
X640355Y478232D01*
X639587Y476380D01*
Y474375D01*
X640355Y472522D01*
X641772Y471104D01*
X643625Y470337D01*
X645630D01*
X647283Y471022D01*
X649229D01*
X661721Y458530D01*
X662981Y457687D01*
X664344Y457416D01*
X664515Y457308D01*
X664524Y457292D01*
X663784Y456022D01*
X644348D01*
X644166Y455985D01*
X643243D01*
X642390Y455632D01*
X642366Y455628D01*
X642346Y455614D01*
X641390Y455218D01*
X639972Y453801D01*
X639576Y452844D01*
X639563Y452824D01*
X639558Y452801D01*
X639205Y451948D01*
Y451025D01*
X639169Y450842D01*
X639205Y450660D01*
Y449943D01*
X639479Y449281D01*
X639563Y448860D01*
X639801Y448504D01*
X639972Y448091D01*
X640288Y447775D01*
X640686Y447180D01*
X641281Y446782D01*
X641390Y446673D01*
X641533Y446614D01*
X642366Y446057D01*
X644348Y445663D01*
X666300D01*
X666676Y445411D01*
Y444141D01*
X665912Y443631D01*
X664577Y441633D01*
X664108Y439276D01*
X664577Y436920D01*
X665912Y434922D01*
X666676Y434411D01*
Y433141D01*
X665912Y432631D01*
X664577Y430633D01*
X664108Y428276D01*
X664577Y425920D01*
X665912Y423922D01*
X667910Y422587D01*
X670267Y422118D01*
X688267D01*
X690623Y422587D01*
X692621Y423922D01*
X693152Y424716D01*
X700539D01*
X708525Y416729D01*
Y380507D01*
X705970D01*
Y380507D01*
X704850D01*
Y380507D01*
X702309D01*
Y383615D01*
X702013Y385102D01*
X701171Y386362D01*
X667684Y419850D01*
X666424Y420691D01*
X664937Y420987D01*
X628168D01*
X626681Y420691D01*
X625421Y419850D01*
X623933Y418362D01*
X623091Y417101D01*
X622795Y415615D01*
Y409721D01*
X621912Y409131D01*
X621402Y408367D01*
X620132D01*
X619621Y409131D01*
X617623Y410466D01*
X615267Y410935D01*
X612910Y410466D01*
X610912Y409131D01*
X610402Y408367D01*
X609132D01*
X608621Y409131D01*
X606623Y410466D01*
X604267Y410935D01*
X601910Y410466D01*
X599912Y409131D01*
X599402Y408367D01*
X598132D01*
X597621Y409131D01*
X595623Y410466D01*
X593267Y410935D01*
X590910Y410466D01*
X588912Y409131D01*
X588402Y408367D01*
X587132D01*
X586621Y409131D01*
X584623Y410466D01*
X582267Y410935D01*
X579910Y410466D01*
X577912Y409131D01*
X577402Y408367D01*
X576132D01*
X575621Y409131D01*
X573623Y410466D01*
X571267Y410935D01*
X568910Y410466D01*
X566912Y409131D01*
X566402Y408367D01*
X565132D01*
X564621Y409131D01*
X562623Y410466D01*
X560267Y410935D01*
X557910Y410466D01*
X555912Y409131D01*
X555402Y408367D01*
X554132D01*
X553621Y409131D01*
X551623Y410466D01*
X549267Y410935D01*
X546910Y410466D01*
X544912Y409131D01*
X544402Y408367D01*
X543132D01*
X542621Y409131D01*
X540623Y410466D01*
X538267Y410935D01*
X535910Y410466D01*
X533912Y409131D01*
X533402Y408367D01*
X532132D01*
X531621Y409131D01*
X529623Y410466D01*
X527267Y410935D01*
X524910Y410466D01*
X522912Y409131D01*
X521577Y407133D01*
X521108Y404776D01*
Y397228D01*
X519935Y396742D01*
X511872Y404805D01*
Y422118D01*
X516267D01*
X518623Y422587D01*
X520621Y423922D01*
X521956Y425920D01*
X522425Y428276D01*
X521956Y430633D01*
X520621Y432631D01*
X519857Y433141D01*
Y434411D01*
X520621Y434922D01*
X521956Y436920D01*
X522425Y439276D01*
X521956Y441633D01*
X520621Y443631D01*
X519857Y444141D01*
Y445411D01*
X520621Y445922D01*
X521956Y447920D01*
X522425Y450276D01*
X521956Y452633D01*
X520621Y454631D01*
X519857Y455141D01*
Y456411D01*
X520621Y456922D01*
X520985Y457466D01*
X507267D01*
Y465086D01*
X520985D01*
X520621Y465631D01*
X519857Y466141D01*
Y467411D01*
X520621Y467922D01*
X520985Y468466D01*
X507267D01*
Y476086D01*
X520985D01*
X520621Y476631D01*
X519857Y477141D01*
Y478411D01*
X520621Y478922D01*
X521956Y480920D01*
X522425Y483276D01*
X521956Y485633D01*
X520621Y487631D01*
X519857Y488141D01*
Y489411D01*
X520621Y489922D01*
X521956Y491920D01*
X522425Y494276D01*
X521956Y496633D01*
X520621Y498631D01*
X519857Y499141D01*
Y500411D01*
X520621Y500922D01*
X520985Y501466D01*
X507267D01*
X493548D01*
X493912Y500922D01*
X494676Y500411D01*
Y499141D01*
X493912Y498631D01*
X492577Y496633D01*
X492108Y494276D01*
X492577Y491920D01*
X493912Y489922D01*
X494676Y489411D01*
Y488141D01*
X493912Y487631D01*
X493810Y487479D01*
X493175Y487195D01*
X492373Y487049D01*
X492000Y487123D01*
X491636Y487233D01*
X491508Y487221D01*
X491382Y487246D01*
X471291Y487246D01*
X470797Y487147D01*
X470306Y487051D01*
X470303Y487049D01*
X470300Y487049D01*
X469882Y486769D01*
X469464Y486492D01*
X469463Y486489D01*
X469460Y486487D01*
X469179Y486068D01*
X468901Y485653D01*
X468900Y485650D01*
X468898Y485647D01*
X468800Y485155D01*
X468701Y484663D01*
X468661Y469691D01*
X468647Y469675D01*
X467622Y468785D01*
X460434D01*
Y465105D01*
X466874D01*
Y457485D01*
X460434D01*
Y453805D01*
X467297D01*
X468301Y452776D01*
X468270Y451778D01*
X467574Y451174D01*
X460434D01*
Y447494D01*
X466874D01*
Y439874D01*
X460434D01*
Y436194D01*
X468178D01*
X468511Y436069D01*
X468548Y435684D01*
X467436Y434503D01*
X460620D01*
Y433673D01*
X465460D01*
Y426053D01*
X460620D01*
Y425223D01*
X467641D01*
X468538Y424324D01*
X468451Y392141D01*
X467277Y391656D01*
X458545Y400389D01*
Y537634D01*
X477397Y556486D01*
X478239Y557747D01*
X478535Y559233D01*
Y578180D01*
X478239Y579666D01*
X477397Y580927D01*
X458677Y599647D01*
X457417Y600489D01*
X455930Y600785D01*
X424520D01*
Y609940D01*
D02*
G37*
G36*
X571692Y610616D02*
X555560D01*
X556512Y608967D01*
X558105Y607374D01*
X558229Y607173D01*
X558158Y605851D01*
X556708Y604402D01*
X555756Y602753D01*
X571888D01*
X570936Y604402D01*
X569342Y605995D01*
X569219Y606195D01*
X569290Y607518D01*
X570740Y608967D01*
X571692Y610616D01*
D02*
G37*
G36*
X498286Y608330D02*
X482154D01*
X483106Y606681D01*
X484474Y605314D01*
X484649Y604520D01*
X484474Y603726D01*
X483106Y602359D01*
X482154Y600710D01*
X498286D01*
X497334Y602359D01*
X495966Y603726D01*
X495791Y604520D01*
X495966Y605314D01*
X497334Y606681D01*
X498286Y608330D01*
D02*
G37*
G36*
X549923Y601452D02*
X542133D01*
X534343D01*
Y597803D01*
X520423D01*
Y601452D01*
X512633D01*
X504843D01*
Y591722D01*
X508838D01*
X509006Y590452D01*
X507109Y589944D01*
X505081Y588774D01*
X503426Y587119D01*
X502474Y585470D01*
X510540D01*
Y581660D01*
X514350D01*
Y573594D01*
X515999Y574546D01*
X517654Y576201D01*
X518824Y578229D01*
X519430Y580490D01*
X520670Y580418D01*
Y557276D01*
Y548776D01*
Y540276D01*
X520895Y538569D01*
X521554Y536978D01*
X522602Y535612D01*
X523969Y534564D01*
X525559Y533905D01*
X527267Y533680D01*
X528974Y533905D01*
X530565Y534564D01*
X531931Y535612D01*
X532258Y536039D01*
X533528Y535997D01*
X533912Y535422D01*
X534457Y535058D01*
Y548776D01*
Y563308D01*
X533863Y563626D01*
Y581693D01*
X534047Y581785D01*
X534914Y582131D01*
X536184Y581605D01*
Y580494D01*
X536790Y578233D01*
X537960Y576205D01*
X539616Y574550D01*
X541264Y573599D01*
Y581664D01*
X548884D01*
Y573599D01*
X550533Y574550D01*
X552188Y576205D01*
X553358Y578233D01*
X553803Y579892D01*
X555118D01*
X555538Y578323D01*
X556708Y576296D01*
X558363Y574641D01*
X560012Y573689D01*
Y581755D01*
X563822D01*
Y585565D01*
X571888D01*
X570936Y587213D01*
X569281Y588868D01*
X567986Y589616D01*
Y591082D01*
X569281Y591829D01*
X570936Y593484D01*
X571888Y595133D01*
X555756D01*
X556708Y593484D01*
X558363Y591829D01*
X559658Y591082D01*
Y589616D01*
X558363Y588868D01*
X556708Y587213D01*
X555538Y585186D01*
X555093Y583527D01*
X553778D01*
X553358Y585095D01*
X552188Y587123D01*
X550533Y588778D01*
X548506Y589948D01*
X546624Y590452D01*
X546791Y591722D01*
X549923D01*
Y601452D01*
D02*
G37*
G36*
X498286Y593090D02*
X482154D01*
X483106Y591441D01*
X484474Y590074D01*
X484649Y589280D01*
X484474Y588486D01*
X483106Y587119D01*
X482154Y585470D01*
X498286D01*
X497334Y587119D01*
X495966Y588486D01*
X495791Y589280D01*
X495966Y590074D01*
X497334Y591441D01*
X498286Y593090D01*
D02*
G37*
G36*
X571888Y577945D02*
X567632D01*
Y573689D01*
X569281Y574641D01*
X570936Y576296D01*
X571888Y577945D01*
D02*
G37*
G36*
X506730Y577850D02*
X502474D01*
X503426Y576201D01*
X505081Y574546D01*
X506730Y573594D01*
Y577850D01*
D02*
G37*
G36*
X498286D02*
X494030D01*
Y573594D01*
X495679Y574546D01*
X497334Y576201D01*
X498286Y577850D01*
D02*
G37*
G36*
X486410D02*
X482154D01*
X483106Y576201D01*
X484761Y574546D01*
X486410Y573594D01*
Y577850D01*
D02*
G37*
G36*
X159206Y581530D02*
Y581530D01*
X159093Y581530D01*
X146326D01*
Y566550D01*
X149104D01*
X149356Y565281D01*
X150199Y564021D01*
X158001Y556218D01*
X158267Y555821D01*
X161058Y553030D01*
X162318Y552188D01*
X163805Y551892D01*
X168105D01*
Y545916D01*
X176185D01*
Y555831D01*
X178104D01*
Y545916D01*
X231185D01*
Y564275D01*
X232835Y565925D01*
X257060D01*
X257448Y565537D01*
X259301Y564770D01*
X261306D01*
X263158Y565537D01*
X264576Y566955D01*
X265343Y568807D01*
Y570812D01*
X264576Y572665D01*
X263158Y574083D01*
X261306Y574850D01*
X259301D01*
X257448Y574083D01*
X257060Y573694D01*
X231226D01*
X229739Y573399D01*
X228479Y572557D01*
X224493Y568570D01*
X223650Y567310D01*
X223355Y565824D01*
Y565746D01*
X181103D01*
Y569214D01*
X177292D01*
Y573024D01*
X173482D01*
Y577925D01*
X173206D01*
Y581530D01*
X170576D01*
Y574040D01*
X162956D01*
Y581530D01*
X160439D01*
X160326Y581530D01*
Y581530D01*
X159206D01*
D02*
G37*
G36*
X321550Y547892D02*
X317820D01*
Y544412D01*
X321550D01*
Y547892D01*
D02*
G37*
G36*
X310200D02*
X306470D01*
Y544412D01*
X310200D01*
Y547892D01*
D02*
G37*
G36*
X321550Y536792D02*
X317820D01*
Y533312D01*
X321550D01*
Y536792D01*
D02*
G37*
G36*
X310200D02*
X306470D01*
Y533312D01*
X310200D01*
Y536792D01*
D02*
G37*
G36*
X516267Y522435D02*
X511077D01*
Y520086D01*
X520985D01*
X520621Y520631D01*
X518623Y521966D01*
X516267Y522435D01*
D02*
G37*
G36*
X503457D02*
X498267D01*
X495910Y521966D01*
X493912Y520631D01*
X493548Y520086D01*
X503457D01*
Y522435D01*
D02*
G37*
G36*
X77203Y525740D02*
X75198D01*
X73345Y524973D01*
X71927Y523555D01*
X71160Y521702D01*
Y520210D01*
X70879Y519789D01*
X70583Y518302D01*
Y518275D01*
X55790D01*
Y522870D01*
X40710D01*
Y503290D01*
X42091D01*
Y497400D01*
X40270D01*
Y482320D01*
X52350D01*
Y490320D01*
X52450Y490820D01*
X52449Y490820D01*
Y503290D01*
X55790D01*
Y510505D01*
X68028D01*
Y495811D01*
X80758D01*
X80908Y495811D01*
X82028D01*
X82178Y495811D01*
X84658D01*
Y503301D01*
Y510791D01*
X82178D01*
X82028Y510791D01*
X80908D01*
X80758Y510791D01*
X78320D01*
Y514229D01*
X78352Y514390D01*
Y516136D01*
X79055Y516427D01*
X80473Y517845D01*
X81240Y519697D01*
Y521702D01*
X80473Y523555D01*
X79055Y524973D01*
X77203Y525740D01*
D02*
G37*
G36*
X844640Y513860D02*
X838910D01*
Y512130D01*
X844640D01*
Y513860D01*
D02*
G37*
G36*
X764640D02*
X758910D01*
Y512130D01*
X764640D01*
Y513860D01*
D02*
G37*
G36*
X751290D02*
X745560D01*
Y512130D01*
X751290D01*
Y513860D01*
D02*
G37*
G36*
X520985Y512466D02*
X507267D01*
X493548D01*
X493912Y511922D01*
X494676Y511411D01*
Y510141D01*
X493912Y509631D01*
X493548Y509086D01*
X507267D01*
X520985D01*
X520621Y509631D01*
X519857Y510141D01*
Y511411D01*
X520621Y511922D01*
X520985Y512466D01*
D02*
G37*
G36*
X92278Y510791D02*
Y507111D01*
X94908D01*
Y510791D01*
X92278D01*
D02*
G37*
G36*
X844640Y504510D02*
X838910D01*
Y502780D01*
X844640D01*
Y504510D01*
D02*
G37*
G36*
X764640D02*
X758910D01*
Y502780D01*
X764640D01*
Y504510D01*
D02*
G37*
G36*
X751290D02*
X745560D01*
Y502780D01*
X751290D01*
Y504510D01*
D02*
G37*
G36*
X94908Y499491D02*
X92278D01*
Y495811D01*
X94908D01*
Y499491D01*
D02*
G37*
G36*
X21000Y497400D02*
X18770D01*
Y493670D01*
X21000D01*
Y497400D01*
D02*
G37*
G36*
Y486050D02*
X18770D01*
Y482320D01*
X21000D01*
Y486050D01*
D02*
G37*
G36*
X321550Y479196D02*
X317820D01*
Y475716D01*
X321550D01*
Y479196D01*
D02*
G37*
G36*
X310200D02*
X306470D01*
Y475716D01*
X310200D01*
Y479196D01*
D02*
G37*
G36*
X321550Y468096D02*
X317820D01*
Y464616D01*
X321550D01*
Y468096D01*
D02*
G37*
G36*
X310200D02*
X306470D01*
Y464616D01*
X310200D01*
Y468096D01*
D02*
G37*
G36*
X184384Y455777D02*
X180654D01*
Y449797D01*
X184384D01*
Y455777D01*
D02*
G37*
G36*
X698500Y583005D02*
X658046D01*
X656560Y582709D01*
X655300Y581867D01*
X645520Y572087D01*
X644678Y570827D01*
X644382Y569340D01*
Y562445D01*
X643912Y562131D01*
X643402Y561367D01*
X642132D01*
X641621Y562131D01*
X639623Y563466D01*
X637267Y563935D01*
X634910Y563466D01*
X632912Y562131D01*
X632402Y561367D01*
X631132D01*
X630621Y562131D01*
X628623Y563466D01*
X626267Y563935D01*
X623910Y563466D01*
X621912Y562131D01*
X621402Y561367D01*
X620132D01*
X619621Y562131D01*
X619077Y562495D01*
Y548776D01*
X611457D01*
Y562495D01*
X610912Y562131D01*
X610402Y561367D01*
X609132D01*
X608621Y562131D01*
X606623Y563466D01*
X604267Y563935D01*
X601910Y563466D01*
X599912Y562131D01*
X599402Y561367D01*
X598132D01*
X597621Y562131D01*
X595623Y563466D01*
X593267Y563935D01*
X590910Y563466D01*
X588912Y562131D01*
X588402Y561367D01*
X587132D01*
X586621Y562131D01*
X584623Y563466D01*
X582267Y563935D01*
X579910Y563466D01*
X577912Y562131D01*
X577402Y561367D01*
X576132D01*
X575621Y562131D01*
X573623Y563466D01*
X571267Y563935D01*
X568910Y563466D01*
X566912Y562131D01*
X566402Y561367D01*
X565132D01*
X564621Y562131D01*
X562623Y563466D01*
X560267Y563935D01*
X557910Y563466D01*
X555912Y562131D01*
X555402Y561367D01*
X554132D01*
X553621Y562131D01*
X551623Y563466D01*
X549267Y563935D01*
X546910Y563466D01*
X544912Y562131D01*
X544402Y561367D01*
X543132D01*
X542621Y562131D01*
X542077Y562495D01*
Y548776D01*
Y535058D01*
X542621Y535422D01*
X543132Y536186D01*
X544402D01*
X544912Y535422D01*
X546910Y534087D01*
X549267Y533618D01*
X551623Y534087D01*
X553621Y535422D01*
X554132Y536186D01*
X555402D01*
X555912Y535422D01*
X557910Y534087D01*
X560267Y533618D01*
X562623Y534087D01*
X564621Y535422D01*
X565132Y536186D01*
X566402D01*
X566912Y535422D01*
X568910Y534087D01*
X571267Y533618D01*
X573623Y534087D01*
X575621Y535422D01*
X576132Y536186D01*
X577402D01*
X577912Y535422D01*
X579910Y534087D01*
X582267Y533618D01*
X584623Y534087D01*
X586621Y535422D01*
X587132Y536186D01*
X588402D01*
X588912Y535422D01*
X590910Y534087D01*
X593267Y533618D01*
X595623Y534087D01*
X597621Y535422D01*
X598132Y536186D01*
X599402D01*
X599912Y535422D01*
X601910Y534087D01*
X604267Y533618D01*
X606623Y534087D01*
X608621Y535422D01*
X609132Y536186D01*
X610402D01*
X610912Y535422D01*
X612748Y534195D01*
X612837Y533497D01*
X612755Y532823D01*
X612478Y532709D01*
X612016Y532246D01*
X618651D01*
X618188Y532709D01*
X617869Y532841D01*
X617757Y533410D01*
X617836Y534229D01*
X619621Y535422D01*
X620132Y536186D01*
X621402D01*
X621912Y535422D01*
X623910Y534087D01*
X626267Y533618D01*
X628623Y534087D01*
X630621Y535422D01*
X631132Y536186D01*
X632402D01*
X632912Y535422D01*
X634910Y534087D01*
X637267Y533618D01*
X639623Y534087D01*
X641621Y535422D01*
X642132Y536186D01*
X643402D01*
X643912Y535422D01*
X645910Y534087D01*
X648267Y533618D01*
X650623Y534087D01*
X652621Y535422D01*
X653132Y536186D01*
X654402D01*
X654912Y535422D01*
X656910Y534087D01*
X659267Y533618D01*
X661623Y534087D01*
X663621Y535422D01*
X664956Y537420D01*
X665425Y539776D01*
Y557776D01*
X664956Y560133D01*
X663621Y562131D01*
X661623Y563466D01*
X659267Y563935D01*
X656910Y563466D01*
X654912Y562131D01*
X654402Y561367D01*
X653132D01*
X652621Y562131D01*
X652151Y562445D01*
Y567731D01*
X659656Y575235D01*
X696891D01*
X702235Y569891D01*
Y450283D01*
X701847Y449895D01*
X701080Y448042D01*
Y446037D01*
X701847Y444185D01*
X703265Y442767D01*
X705117Y442000D01*
X707122D01*
X708975Y442767D01*
X710393Y444185D01*
X711160Y446037D01*
Y448042D01*
X710393Y449895D01*
X710005Y450283D01*
Y571500D01*
X709709Y572987D01*
X708867Y574247D01*
X701247Y581867D01*
X699987Y582709D01*
X698500Y583005D01*
D02*
G37*
G36*
X219060Y445008D02*
X216430D01*
Y441328D01*
X219060D01*
Y445008D01*
D02*
G37*
G36*
X52350Y452400D02*
X40270D01*
Y437320D01*
X52350D01*
Y452400D01*
D02*
G37*
G36*
X30850D02*
X18770D01*
Y437320D01*
X30850D01*
Y452400D01*
D02*
G37*
G36*
X184384Y442177D02*
X180654D01*
Y436197D01*
X184384D01*
Y442177D01*
D02*
G37*
G36*
X288290Y435790D02*
X284560D01*
Y432372D01*
X270013D01*
Y435777D01*
X266283D01*
Y428487D01*
Y421197D01*
X270013D01*
Y424603D01*
X284560D01*
Y421210D01*
X288290D01*
Y428500D01*
Y435790D01*
D02*
G37*
G36*
X299640D02*
X295910D01*
Y432310D01*
X299640D01*
Y435790D01*
D02*
G37*
G36*
X258663Y435777D02*
X254933D01*
Y432297D01*
X258663D01*
Y435777D01*
D02*
G37*
G36*
X299640Y424690D02*
X295910D01*
Y421210D01*
X299640D01*
Y424690D01*
D02*
G37*
G36*
X258663Y424677D02*
X254933D01*
Y421197D01*
X258663D01*
Y424677D01*
D02*
G37*
G36*
X46268Y418562D02*
X39788D01*
Y416582D01*
X46268D01*
Y418562D01*
D02*
G37*
G36*
X32168D02*
X25688D01*
Y416582D01*
X32168D01*
Y418562D01*
D02*
G37*
G36*
X215542Y420595D02*
X211812D01*
Y414615D01*
X215542D01*
Y420595D01*
D02*
G37*
G36*
X204192D02*
X200462D01*
Y414615D01*
X204192D01*
Y420595D01*
D02*
G37*
G36*
X156770Y414417D02*
X150790D01*
Y410687D01*
X156770D01*
Y414417D01*
D02*
G37*
G36*
X143170D02*
X137190D01*
Y410687D01*
X143170D01*
Y414417D01*
D02*
G37*
G36*
X215542Y406995D02*
X211812D01*
Y401015D01*
X215542D01*
Y406995D01*
D02*
G37*
G36*
X204192D02*
X200462D01*
Y401015D01*
X204192D01*
Y406995D01*
D02*
G37*
G36*
X156770Y403067D02*
X150790D01*
Y399337D01*
X156770D01*
Y403067D01*
D02*
G37*
G36*
X143170D02*
X137190D01*
Y399337D01*
X143170D01*
Y403067D01*
D02*
G37*
G36*
X143651Y368855D02*
X140829D01*
X138104Y368125D01*
X135661Y366714D01*
X133666Y364719D01*
X132484Y362672D01*
X129540D01*
X129540Y362672D01*
X127806Y362327D01*
X126335Y361345D01*
X126335Y361345D01*
X122583Y357592D01*
X117980D01*
Y362850D01*
X102900D01*
Y343270D01*
X117980D01*
Y348528D01*
X124460D01*
X126194Y348873D01*
X127665Y349855D01*
X131314Y353505D01*
X132602Y353403D01*
X133666Y351561D01*
X135661Y349566D01*
X137060Y348758D01*
Y344217D01*
X137455Y342234D01*
X138577Y340554D01*
X170081Y309051D01*
Y304670D01*
X160570D01*
Y275890D01*
X189950D01*
Y282781D01*
X203109D01*
X205098Y283043D01*
X206952Y283811D01*
X208544Y285032D01*
X223165Y299654D01*
X227950D01*
Y281300D01*
X229054D01*
Y273800D01*
Y259473D01*
X220771Y251190D01*
X216710D01*
X216360Y251190D01*
X215440D01*
X215090Y251190D01*
X211610D01*
Y241300D01*
Y231410D01*
X215090D01*
X215440Y231410D01*
X216360D01*
X216710Y231410D01*
X231640D01*
Y240321D01*
X241109Y249790D01*
X242693Y249578D01*
X243381Y248387D01*
X245036Y246732D01*
X247063Y245562D01*
X249324Y244956D01*
X251665D01*
X253926Y245562D01*
X255022Y246195D01*
X262778Y238439D01*
X264458Y237316D01*
X266441Y236922D01*
X271580D01*
Y236690D01*
X286060D01*
Y256070D01*
X286060D01*
Y257010D01*
X286060D01*
Y276390D01*
X271580D01*
Y274419D01*
X244426D01*
Y281300D01*
X245530D01*
Y333380D01*
X227950D01*
Y315026D01*
X219982D01*
X219982Y315026D01*
X217993Y314764D01*
X216139Y313996D01*
X214547Y312775D01*
X199925Y298153D01*
X189950D01*
Y304670D01*
X180439D01*
Y311196D01*
X180439Y311197D01*
X180045Y313179D01*
X178923Y314859D01*
X147420Y346362D01*
Y348758D01*
X148819Y349566D01*
X150814Y351561D01*
X152225Y354004D01*
X152955Y356729D01*
Y359551D01*
X152225Y362276D01*
X150814Y364719D01*
X148819Y366714D01*
X146376Y368125D01*
X143651Y368855D01*
D02*
G37*
G36*
X222250Y368212D02*
Y361950D01*
X228512D01*
X228425Y362276D01*
X227014Y364719D01*
X225019Y366714D01*
X222576Y368125D01*
X222250Y368212D01*
D02*
G37*
G36*
X214630D02*
X214304Y368125D01*
X211861Y366714D01*
X209866Y364719D01*
X208455Y362276D01*
X208368Y361950D01*
X214630D01*
Y368212D01*
D02*
G37*
G36*
X267940Y362850D02*
X264210D01*
Y356870D01*
X267940D01*
Y362850D01*
D02*
G37*
G36*
X256590D02*
X252860D01*
Y356870D01*
X256590D01*
Y362850D01*
D02*
G37*
G36*
X228512Y354330D02*
X222250D01*
Y348068D01*
X222576Y348155D01*
X225019Y349566D01*
X227014Y351561D01*
X228425Y354004D01*
X228512Y354330D01*
D02*
G37*
G36*
X214630D02*
X208368D01*
X208455Y354004D01*
X209866Y351561D01*
X211861Y349566D01*
X214304Y348155D01*
X214630Y348068D01*
Y354330D01*
D02*
G37*
G36*
X842026Y345308D02*
X840996D01*
Y344478D01*
X842026D01*
Y345308D01*
D02*
G37*
G36*
X267940Y349250D02*
X264210D01*
Y343270D01*
X267940D01*
Y349250D01*
D02*
G37*
G36*
X256590D02*
X252860D01*
Y343270D01*
X256590D01*
Y349250D01*
D02*
G37*
G36*
X485805Y332933D02*
X482575D01*
Y329453D01*
X485805D01*
Y332933D01*
D02*
G37*
G36*
X474955D02*
X471725D01*
Y329453D01*
X474955D01*
Y332933D01*
D02*
G37*
G36*
X427723Y353020D02*
X425718D01*
X423865Y352253D01*
X422447Y350835D01*
X421680Y348983D01*
Y346978D01*
X422447Y345125D01*
X423865Y343707D01*
X425718Y342940D01*
X427723D01*
X429375Y343625D01*
X431112D01*
X432301Y343431D01*
Y328851D01*
X446381D01*
Y343431D01*
X443226D01*
Y344077D01*
X442930Y345564D01*
X442088Y346824D01*
X438656Y350256D01*
X437396Y351098D01*
X435909Y351394D01*
X430434D01*
X429575Y352253D01*
X427723Y353020D01*
D02*
G37*
G36*
X462382Y343431D02*
X448302D01*
Y328851D01*
X451616D01*
Y317062D01*
X449882D01*
Y319821D01*
X432302D01*
Y318165D01*
X429639D01*
Y322291D01*
X415059D01*
Y308211D01*
X429639D01*
Y310396D01*
X432302D01*
Y308741D01*
X449882D01*
Y309293D01*
X453302D01*
Y299191D01*
X470882D01*
Y299224D01*
X476717D01*
X477418Y299364D01*
X477719D01*
X477997Y299479D01*
X478699Y299619D01*
X479294Y300016D01*
X479572Y300131D01*
X479784Y300344D01*
X480379Y300742D01*
X480776Y301336D01*
X480989Y301549D01*
X481105Y301827D01*
X481502Y302422D01*
X481641Y303123D01*
X481757Y303402D01*
Y303703D01*
X481896Y304404D01*
X481757Y305105D01*
Y305406D01*
X481641Y305685D01*
X481502Y306386D01*
X481105Y306981D01*
X480989Y307259D01*
X480776Y307472D01*
X480379Y308067D01*
X479784Y308464D01*
X479572Y308677D01*
X479294Y308792D01*
X478699Y309189D01*
X477997Y309329D01*
X477719Y309444D01*
X477418D01*
X476717Y309583D01*
X470882D01*
Y310271D01*
X458395D01*
X457869Y311541D01*
X458247Y311919D01*
X459089Y313179D01*
X459385Y314666D01*
Y328851D01*
X462382D01*
Y343431D01*
D02*
G37*
G36*
X376747Y310566D02*
X373017D01*
Y304586D01*
X376747D01*
Y310566D01*
D02*
G37*
G36*
X365397D02*
X361667D01*
Y304586D01*
X365397D01*
Y310566D01*
D02*
G37*
G36*
X429639Y306291D02*
X426159D01*
Y303061D01*
X429639D01*
Y306291D01*
D02*
G37*
G36*
X418539D02*
X415059D01*
Y303061D01*
X418539D01*
Y306291D01*
D02*
G37*
G36*
X449882Y300721D02*
X444902D01*
Y298991D01*
X449882D01*
Y300721D01*
D02*
G37*
G36*
X437282D02*
X432302D01*
Y298991D01*
X437282D01*
Y300721D01*
D02*
G37*
G36*
X31837Y302490D02*
X25856D01*
Y298760D01*
X31837D01*
Y302490D01*
D02*
G37*
G36*
X503545Y300196D02*
X498565D01*
Y298466D01*
X503545D01*
Y300196D01*
D02*
G37*
G36*
X490945D02*
X485965D01*
Y298466D01*
X490945D01*
Y300196D01*
D02*
G37*
G36*
X812259Y294825D02*
X811429D01*
Y293794D01*
X812259D01*
Y294825D01*
D02*
G37*
G36*
X429639Y295441D02*
X426159D01*
Y292211D01*
X429639D01*
Y295441D01*
D02*
G37*
G36*
X418539D02*
X415059D01*
Y292211D01*
X418539D01*
Y295441D01*
D02*
G37*
G36*
X376747Y296966D02*
X373017D01*
Y290986D01*
X376747D01*
Y296966D01*
D02*
G37*
G36*
X365397D02*
X361667D01*
Y290986D01*
X365397D01*
Y296966D01*
D02*
G37*
G36*
X449882Y291371D02*
X444902D01*
Y289641D01*
X449882D01*
Y291371D01*
D02*
G37*
G36*
X437282D02*
X432302D01*
Y289641D01*
X437282D01*
Y291371D01*
D02*
G37*
G36*
X503545Y290846D02*
X498565D01*
Y289116D01*
X503545D01*
Y290846D01*
D02*
G37*
G36*
X490945D02*
X485965D01*
Y289116D01*
X490945D01*
Y290846D01*
D02*
G37*
G36*
X31837Y291140D02*
X25856D01*
Y287410D01*
X31837D01*
Y291140D01*
D02*
G37*
G36*
X359914Y286927D02*
X354434D01*
Y284197D01*
X359914D01*
Y286927D01*
D02*
G37*
G36*
X346814D02*
X341334D01*
Y284197D01*
X346814D01*
Y286927D01*
D02*
G37*
G36*
X607690Y305920D02*
X590310D01*
Y294840D01*
X595555D01*
Y290263D01*
X595167Y289875D01*
X594400Y288022D01*
Y286017D01*
X595167Y284165D01*
X596585Y282747D01*
X598438Y281980D01*
X600443D01*
X602295Y282747D01*
X603713Y284165D01*
X604480Y286017D01*
Y288022D01*
X603713Y289875D01*
X603325Y290263D01*
Y294840D01*
X607690D01*
Y305920D01*
D02*
G37*
G36*
X359914Y276577D02*
X354434D01*
Y273847D01*
X359914D01*
Y276577D01*
D02*
G37*
G36*
X346814D02*
X341334D01*
Y273847D01*
X346814D01*
Y276577D01*
D02*
G37*
G36*
X549880Y279030D02*
X546150D01*
Y273050D01*
X549880D01*
Y279030D01*
D02*
G37*
G36*
X538530D02*
X534800D01*
Y273050D01*
X538530D01*
Y279030D01*
D02*
G37*
G36*
X302460Y276390D02*
X299030D01*
Y270510D01*
X302460D01*
Y276390D01*
D02*
G37*
G36*
X291410D02*
X287980D01*
Y270510D01*
X291410D01*
Y276390D01*
D02*
G37*
G36*
X549880Y265430D02*
X546150D01*
Y259450D01*
X549880D01*
Y265430D01*
D02*
G37*
G36*
X538530D02*
X534800D01*
Y259450D01*
X538530D01*
Y265430D01*
D02*
G37*
G36*
X854710Y263498D02*
Y257810D01*
X860397D01*
X860368Y257922D01*
X859030Y260238D01*
X857138Y262130D01*
X854822Y263468D01*
X854710Y263498D01*
D02*
G37*
G36*
X847090D02*
X846978Y263468D01*
X844662Y262130D01*
X842770Y260238D01*
X841432Y257922D01*
X841403Y257810D01*
X847090D01*
Y263498D01*
D02*
G37*
G36*
X829310D02*
Y257810D01*
X834997D01*
X834968Y257922D01*
X833630Y260238D01*
X831738Y262130D01*
X829422Y263468D01*
X829310Y263498D01*
D02*
G37*
G36*
X821690D02*
X821578Y263468D01*
X819262Y262130D01*
X817370Y260238D01*
X816032Y257922D01*
X816003Y257810D01*
X821690D01*
Y263498D01*
D02*
G37*
G36*
X803910D02*
Y257810D01*
X809597D01*
X809568Y257922D01*
X808230Y260238D01*
X806338Y262130D01*
X804022Y263468D01*
X803910Y263498D01*
D02*
G37*
G36*
X796290D02*
X796178Y263468D01*
X793862Y262130D01*
X791970Y260238D01*
X790632Y257922D01*
X790602Y257810D01*
X796290D01*
Y263498D01*
D02*
G37*
G36*
X319080Y256070D02*
X315650D01*
Y250190D01*
X319080D01*
Y256070D01*
D02*
G37*
G36*
X302460Y262890D02*
X295220D01*
X287980D01*
Y257340D01*
X287980Y257010D01*
Y256070D01*
X287980Y255740D01*
Y250190D01*
X295220D01*
X302460D01*
Y255740D01*
X302460Y256070D01*
Y257010D01*
X302460Y257340D01*
Y262890D01*
D02*
G37*
G36*
X308030Y256070D02*
X304600D01*
Y250190D01*
X308030D01*
Y256070D01*
D02*
G37*
G36*
X473710Y250798D02*
Y245110D01*
X479398D01*
X479368Y245222D01*
X478030Y247538D01*
X476138Y249430D01*
X473822Y250768D01*
X473710Y250798D01*
D02*
G37*
G36*
X466090D02*
X465978Y250768D01*
X463662Y249430D01*
X461770Y247538D01*
X460432Y245222D01*
X460402Y245110D01*
X466090D01*
Y250798D01*
D02*
G37*
G36*
X203990Y251190D02*
X200160D01*
Y245110D01*
X203990D01*
Y251190D01*
D02*
G37*
G36*
X860397Y250190D02*
X854710D01*
Y244503D01*
X854822Y244532D01*
X857138Y245870D01*
X859030Y247762D01*
X860368Y250078D01*
X860397Y250190D01*
D02*
G37*
G36*
X847090D02*
X841403D01*
X841432Y250078D01*
X842770Y247762D01*
X844662Y245870D01*
X846978Y244532D01*
X847090Y244503D01*
Y250190D01*
D02*
G37*
G36*
X834997D02*
X829310D01*
Y244503D01*
X829422Y244532D01*
X831738Y245870D01*
X833630Y247762D01*
X834968Y250078D01*
X834997Y250190D01*
D02*
G37*
G36*
X821690D02*
X816003D01*
X816032Y250078D01*
X817370Y247762D01*
X819262Y245870D01*
X821578Y244532D01*
X821690Y244503D01*
Y250190D01*
D02*
G37*
G36*
X809597D02*
X803910D01*
Y244503D01*
X804022Y244532D01*
X806338Y245870D01*
X808230Y247762D01*
X809568Y250078D01*
X809597Y250190D01*
D02*
G37*
G36*
X796290D02*
X790602D01*
X790632Y250078D01*
X791970Y247762D01*
X793862Y245870D01*
X796178Y244532D01*
X796290Y244503D01*
Y250190D01*
D02*
G37*
G36*
X319080Y242570D02*
X315650D01*
Y236690D01*
X319080D01*
Y242570D01*
D02*
G37*
G36*
X308030D02*
X304600D01*
Y236690D01*
X308030D01*
Y242570D01*
D02*
G37*
G36*
X302460D02*
X299030D01*
Y236690D01*
X302460D01*
Y242570D01*
D02*
G37*
G36*
X291410D02*
X287980D01*
Y236690D01*
X291410D01*
Y242570D01*
D02*
G37*
G36*
X854710Y238097D02*
Y232410D01*
X860397D01*
X860368Y232522D01*
X859030Y234838D01*
X857138Y236730D01*
X854822Y238068D01*
X854710Y238097D01*
D02*
G37*
G36*
X847090D02*
X846978Y238068D01*
X844662Y236730D01*
X842770Y234838D01*
X841432Y232522D01*
X841403Y232410D01*
X847090D01*
Y238097D01*
D02*
G37*
G36*
X829310D02*
Y232410D01*
X834997D01*
X834968Y232522D01*
X833630Y234838D01*
X831738Y236730D01*
X829422Y238068D01*
X829310Y238097D01*
D02*
G37*
G36*
X821690D02*
X821578Y238068D01*
X819262Y236730D01*
X817370Y234838D01*
X816032Y232522D01*
X816003Y232410D01*
X821690D01*
Y238097D01*
D02*
G37*
G36*
X803910D02*
Y232410D01*
X809597D01*
X809568Y232522D01*
X808230Y234838D01*
X806338Y236730D01*
X804022Y238068D01*
X803910Y238097D01*
D02*
G37*
G36*
X796290D02*
X796178Y238068D01*
X793862Y236730D01*
X791970Y234838D01*
X790632Y232522D01*
X790602Y232410D01*
X796290D01*
Y238097D01*
D02*
G37*
G36*
X479398Y237490D02*
X473710D01*
Y231803D01*
X473822Y231832D01*
X476138Y233170D01*
X478030Y235062D01*
X479368Y237378D01*
X479398Y237490D01*
D02*
G37*
G36*
X466090D02*
X460402D01*
X460432Y237378D01*
X461770Y235062D01*
X463662Y233170D01*
X465978Y231832D01*
X466090Y231803D01*
Y237490D01*
D02*
G37*
G36*
X189950Y242270D02*
X179070D01*
Y231690D01*
X189950D01*
Y242270D01*
D02*
G37*
G36*
X171450D02*
X160570D01*
Y231690D01*
X171450D01*
Y242270D01*
D02*
G37*
G36*
X203990Y237490D02*
X200160D01*
Y231410D01*
X203990D01*
Y237490D01*
D02*
G37*
G36*
X524545Y309746D02*
X506965D01*
Y298666D01*
X511582D01*
Y289121D01*
X496554Y274093D01*
X486417D01*
Y255013D01*
X495545D01*
X496031Y253840D01*
X491764Y249573D01*
X490922Y248313D01*
X490670Y247044D01*
X487407D01*
Y232464D01*
X501137D01*
X501987Y232464D01*
X503257Y232464D01*
X511493D01*
X520173Y223784D01*
X521434Y222942D01*
X521854Y222858D01*
X522925Y221787D01*
X524777Y221020D01*
X526782D01*
X528635Y221787D01*
X530053Y223205D01*
X530820Y225058D01*
Y227062D01*
X530053Y228915D01*
X528635Y230333D01*
X526782Y231100D01*
X524777D01*
X524118Y230827D01*
X516987Y237958D01*
Y247044D01*
X503051D01*
X502385Y248314D01*
X502601Y248627D01*
X509312D01*
X510799Y248923D01*
X512059Y249765D01*
X514778Y252484D01*
X515620Y253745D01*
X515873Y255013D01*
X520497D01*
Y274093D01*
X509201D01*
X508715Y275267D01*
X518214Y284765D01*
X519056Y286026D01*
X519351Y287512D01*
Y298666D01*
X524545D01*
Y309746D01*
D02*
G37*
G36*
X473710Y225397D02*
Y219710D01*
X479398D01*
X479368Y219822D01*
X478030Y222138D01*
X476138Y224030D01*
X473822Y225368D01*
X473710Y225397D01*
D02*
G37*
G36*
X466090D02*
X465978Y225368D01*
X463662Y224030D01*
X461770Y222138D01*
X460432Y219822D01*
X460402Y219710D01*
X466090D01*
Y225397D01*
D02*
G37*
G36*
X860397Y224790D02*
X854710D01*
Y219102D01*
X854822Y219132D01*
X857138Y220470D01*
X859030Y222362D01*
X860368Y224678D01*
X860397Y224790D01*
D02*
G37*
G36*
X847090D02*
X841403D01*
X841432Y224678D01*
X842770Y222362D01*
X844662Y220470D01*
X846978Y219132D01*
X847090Y219102D01*
Y224790D01*
D02*
G37*
G36*
X834997D02*
X829310D01*
Y219102D01*
X829422Y219132D01*
X831738Y220470D01*
X833630Y222362D01*
X834968Y224678D01*
X834997Y224790D01*
D02*
G37*
G36*
X821690D02*
X816003D01*
X816032Y224678D01*
X817370Y222362D01*
X819262Y220470D01*
X821578Y219132D01*
X821690Y219102D01*
Y224790D01*
D02*
G37*
G36*
X809597D02*
X803910D01*
Y219102D01*
X804022Y219132D01*
X806338Y220470D01*
X808230Y222362D01*
X809568Y224678D01*
X809597Y224790D01*
D02*
G37*
G36*
X796290D02*
X790602D01*
X790632Y224678D01*
X791970Y222362D01*
X793862Y220470D01*
X796178Y219132D01*
X796290Y219102D01*
Y224790D01*
D02*
G37*
G36*
X189950Y224070D02*
X179070D01*
Y213490D01*
X189950D01*
Y224070D01*
D02*
G37*
G36*
X171450D02*
X160570D01*
Y213490D01*
X171450D01*
Y224070D01*
D02*
G37*
G36*
X854710Y212698D02*
Y207010D01*
X860397D01*
X860368Y207122D01*
X859030Y209438D01*
X857138Y211330D01*
X854822Y212668D01*
X854710Y212698D01*
D02*
G37*
G36*
X847090D02*
X846978Y212668D01*
X844662Y211330D01*
X842770Y209438D01*
X841432Y207122D01*
X841403Y207010D01*
X847090D01*
Y212698D01*
D02*
G37*
G36*
X829310D02*
Y207010D01*
X834997D01*
X834968Y207122D01*
X833630Y209438D01*
X831738Y211330D01*
X829422Y212668D01*
X829310Y212698D01*
D02*
G37*
G36*
X821690D02*
X821578Y212668D01*
X819262Y211330D01*
X817370Y209438D01*
X816032Y207122D01*
X816003Y207010D01*
X821690D01*
Y212698D01*
D02*
G37*
G36*
X803910D02*
Y207010D01*
X809597D01*
X809568Y207122D01*
X808230Y209438D01*
X806338Y211330D01*
X804022Y212668D01*
X803910Y212698D01*
D02*
G37*
G36*
X796290D02*
X796178Y212668D01*
X793862Y211330D01*
X791970Y209438D01*
X790632Y207122D01*
X790602Y207010D01*
X796290D01*
Y212698D01*
D02*
G37*
G36*
X479398Y212090D02*
X473710D01*
Y206402D01*
X473822Y206432D01*
X476138Y207770D01*
X478030Y209662D01*
X479368Y211978D01*
X479398Y212090D01*
D02*
G37*
G36*
X466090D02*
X460402D01*
X460432Y211978D01*
X461770Y209662D01*
X463662Y207770D01*
X465978Y206432D01*
X466090Y206402D01*
Y212090D01*
D02*
G37*
G36*
X522045Y210217D02*
X517315D01*
Y206237D01*
X522045D01*
Y210217D01*
D02*
G37*
G36*
X509695D02*
X504965D01*
Y206237D01*
X509695D01*
Y210217D01*
D02*
G37*
G36*
X522045Y198617D02*
X517315D01*
Y194637D01*
X522045D01*
Y198617D01*
D02*
G37*
G36*
X509695D02*
X504965D01*
Y194637D01*
X509695D01*
Y198617D01*
D02*
G37*
G36*
X473710Y199998D02*
Y194310D01*
X479398D01*
X479368Y194422D01*
X478030Y196738D01*
X476138Y198630D01*
X473822Y199968D01*
X473710Y199998D01*
D02*
G37*
G36*
X466090D02*
X465978Y199968D01*
X463662Y198630D01*
X461770Y196738D01*
X460432Y194422D01*
X460402Y194310D01*
X466090D01*
Y199998D01*
D02*
G37*
G36*
X860397Y199390D02*
X854710D01*
Y193703D01*
X854822Y193732D01*
X857138Y195070D01*
X859030Y196962D01*
X860368Y199278D01*
X860397Y199390D01*
D02*
G37*
G36*
X847090D02*
X841403D01*
X841432Y199278D01*
X842770Y196962D01*
X844662Y195070D01*
X846978Y193732D01*
X847090Y193703D01*
Y199390D01*
D02*
G37*
G36*
X834997D02*
X829310D01*
Y193703D01*
X829422Y193732D01*
X831738Y195070D01*
X833630Y196962D01*
X834968Y199278D01*
X834997Y199390D01*
D02*
G37*
G36*
X821690D02*
X816003D01*
X816032Y199278D01*
X817370Y196962D01*
X819262Y195070D01*
X821578Y193732D01*
X821690Y193703D01*
Y199390D01*
D02*
G37*
G36*
X809597D02*
X803910D01*
Y193703D01*
X804022Y193732D01*
X806338Y195070D01*
X808230Y196962D01*
X809568Y199278D01*
X809597Y199390D01*
D02*
G37*
G36*
X796290D02*
X790602D01*
X790632Y199278D01*
X791970Y196962D01*
X793862Y195070D01*
X796178Y193732D01*
X796290Y193703D01*
Y199390D01*
D02*
G37*
G36*
X345986Y229991D02*
X293256D01*
Y192501D01*
X285636D01*
Y229991D01*
X232906D01*
Y205811D01*
X239214D01*
X240100Y204900D01*
X238677Y153993D01*
X238683Y153957D01*
X238676Y153921D01*
X238768Y153460D01*
X238847Y152997D01*
X238866Y152966D01*
X238873Y152930D01*
X239134Y152539D01*
X239384Y152142D01*
X239414Y152120D01*
X239435Y152090D01*
X240885Y150640D01*
X241725Y150078D01*
X242716Y149881D01*
X336176D01*
X337167Y150078D01*
X338007Y150640D01*
X338569Y151480D01*
X338766Y152471D01*
Y205811D01*
X345986D01*
Y229991D01*
D02*
G37*
G36*
X378961Y198538D02*
X368731D01*
Y187308D01*
X378961D01*
Y198538D01*
D02*
G37*
G36*
X361111D02*
X350881D01*
Y187308D01*
X361111D01*
Y198538D01*
D02*
G37*
G36*
X854710Y187297D02*
Y181610D01*
X860397D01*
X860368Y181722D01*
X859030Y184038D01*
X857138Y185930D01*
X854822Y187268D01*
X854710Y187297D01*
D02*
G37*
G36*
X847090D02*
X846978Y187268D01*
X844662Y185930D01*
X842770Y184038D01*
X841432Y181722D01*
X841403Y181610D01*
X847090D01*
Y187297D01*
D02*
G37*
G36*
X829310D02*
Y181610D01*
X834997D01*
X834968Y181722D01*
X833630Y184038D01*
X831738Y185930D01*
X829422Y187268D01*
X829310Y187297D01*
D02*
G37*
G36*
X821690D02*
X821578Y187268D01*
X819262Y185930D01*
X817370Y184038D01*
X816032Y181722D01*
X816003Y181610D01*
X821690D01*
Y187297D01*
D02*
G37*
G36*
X803910D02*
Y181610D01*
X809597D01*
X809568Y181722D01*
X808230Y184038D01*
X806338Y185930D01*
X804022Y187268D01*
X803910Y187297D01*
D02*
G37*
G36*
X796290D02*
X796178Y187268D01*
X793862Y185930D01*
X791970Y184038D01*
X790632Y181722D01*
X790602Y181610D01*
X796290D01*
Y187297D01*
D02*
G37*
G36*
X90854Y190214D02*
Y181545D01*
X99523D01*
X99195Y182768D01*
X97478Y185742D01*
X95050Y188170D01*
X92077Y189886D01*
X90854Y190214D01*
D02*
G37*
G36*
X479398Y186690D02*
X473710D01*
Y181003D01*
X473822Y181032D01*
X476138Y182370D01*
X478030Y184262D01*
X479368Y186578D01*
X479398Y186690D01*
D02*
G37*
G36*
X466090D02*
X460402D01*
X460432Y186578D01*
X461770Y184262D01*
X463662Y182370D01*
X465978Y181032D01*
X466090Y181003D01*
Y186690D01*
D02*
G37*
G36*
X608030Y184150D02*
X597450D01*
Y173270D01*
X608030D01*
Y184150D01*
D02*
G37*
G36*
X589830D02*
X579250D01*
Y173270D01*
X589830D01*
Y184150D01*
D02*
G37*
G36*
X473710Y174597D02*
Y168910D01*
X479398D01*
X479368Y169022D01*
X478030Y171338D01*
X476138Y173230D01*
X473822Y174568D01*
X473710Y174597D01*
D02*
G37*
G36*
X466090D02*
X465978Y174568D01*
X463662Y173230D01*
X461770Y171338D01*
X460432Y169022D01*
X460402Y168910D01*
X466090D01*
Y174597D01*
D02*
G37*
G36*
X378961Y179688D02*
X368731D01*
Y168458D01*
X378961D01*
Y179688D01*
D02*
G37*
G36*
X361111D02*
X350881D01*
Y168458D01*
X361111D01*
Y179688D01*
D02*
G37*
G36*
X860397Y173990D02*
X854710D01*
Y168302D01*
X854822Y168332D01*
X857138Y169670D01*
X859030Y171562D01*
X860368Y173878D01*
X860397Y173990D01*
D02*
G37*
G36*
X847090D02*
X841403D01*
X841432Y173878D01*
X842770Y171562D01*
X844662Y169670D01*
X846978Y168332D01*
X847090Y168302D01*
Y173990D01*
D02*
G37*
G36*
X834997D02*
X829310D01*
Y168302D01*
X829422Y168332D01*
X831738Y169670D01*
X833630Y171562D01*
X834968Y173878D01*
X834997Y173990D01*
D02*
G37*
G36*
X821690D02*
X816003D01*
X816032Y173878D01*
X817370Y171562D01*
X819262Y169670D01*
X821578Y168332D01*
X821690Y168302D01*
Y173990D01*
D02*
G37*
G36*
X809597D02*
X803910D01*
Y168302D01*
X804022Y168332D01*
X806338Y169670D01*
X808230Y171562D01*
X809568Y173878D01*
X809597Y173990D01*
D02*
G37*
G36*
X796290D02*
X790602D01*
X790632Y173878D01*
X791970Y171562D01*
X793862Y169670D01*
X796178Y168332D01*
X796290Y168302D01*
Y173990D01*
D02*
G37*
G36*
X99523Y173925D02*
X90854D01*
Y165256D01*
X92077Y165584D01*
X95050Y167300D01*
X97478Y169728D01*
X99195Y172702D01*
X99523Y173925D01*
D02*
G37*
G36*
X45437Y302490D02*
X39457D01*
Y294950D01*
Y287410D01*
X45437D01*
X45437Y287410D01*
Y287410D01*
X46374Y286695D01*
X51224Y281846D01*
Y192517D01*
X51618Y190535D01*
X52741Y188855D01*
X67522Y174073D01*
X69203Y172950D01*
X71185Y172556D01*
X74977D01*
X76609Y169728D01*
X79037Y167300D01*
X82010Y165584D01*
X83234Y165256D01*
Y177735D01*
Y190214D01*
X82010Y189886D01*
X79037Y188170D01*
X76609Y185742D01*
X74977Y182915D01*
X73330D01*
X61582Y194662D01*
Y283991D01*
X61188Y285973D01*
X60065Y287654D01*
X50265Y297454D01*
X48585Y298577D01*
X46603Y298971D01*
X45437D01*
Y302490D01*
D02*
G37*
G36*
X126040Y164020D02*
X124560D01*
Y161290D01*
X126040D01*
Y164020D01*
D02*
G37*
G36*
X116940D02*
X115460D01*
Y161290D01*
X116940D01*
Y164020D01*
D02*
G37*
G36*
X854710Y161898D02*
Y156210D01*
X860397D01*
X860368Y156322D01*
X859030Y158638D01*
X857138Y160530D01*
X854822Y161868D01*
X854710Y161898D01*
D02*
G37*
G36*
X847090D02*
X846978Y161868D01*
X844662Y160530D01*
X842770Y158638D01*
X841432Y156322D01*
X841403Y156210D01*
X847090D01*
Y161898D01*
D02*
G37*
G36*
X829310D02*
Y156210D01*
X834997D01*
X834968Y156322D01*
X833630Y158638D01*
X831738Y160530D01*
X829422Y161868D01*
X829310Y161898D01*
D02*
G37*
G36*
X821690D02*
X821578Y161868D01*
X819262Y160530D01*
X817370Y158638D01*
X816032Y156322D01*
X816003Y156210D01*
X821690D01*
Y161898D01*
D02*
G37*
G36*
X803910D02*
Y156210D01*
X809597D01*
X809568Y156322D01*
X808230Y158638D01*
X806338Y160530D01*
X804022Y161868D01*
X803910Y161898D01*
D02*
G37*
G36*
X796290D02*
X796178Y161868D01*
X793862Y160530D01*
X791970Y158638D01*
X790632Y156322D01*
X790602Y156210D01*
X796290D01*
Y161898D01*
D02*
G37*
G36*
X126040Y153670D02*
X124560D01*
Y150940D01*
X126040D01*
Y153670D01*
D02*
G37*
G36*
X116940D02*
X115460D01*
Y150940D01*
X116940D01*
Y153670D01*
D02*
G37*
G36*
X138540Y164020D02*
X127960D01*
Y150940D01*
X128142D01*
Y149404D01*
X95716D01*
X95050Y150070D01*
X92077Y151786D01*
X88760Y152675D01*
X85327D01*
X82010Y151786D01*
X79037Y150070D01*
X76609Y147642D01*
X74892Y144668D01*
X74004Y141352D01*
Y137918D01*
X74892Y134602D01*
X76609Y131628D01*
X79037Y129200D01*
X82010Y127484D01*
X85327Y126595D01*
X88760D01*
X92077Y127484D01*
X95050Y129200D01*
X97280Y131431D01*
X164626D01*
Y106236D01*
X190706D01*
Y122289D01*
X225682D01*
X246459Y101511D01*
Y85751D01*
X246765Y83425D01*
X247663Y81257D01*
X247806Y81071D01*
Y72411D01*
X263086D01*
X263459Y71295D01*
Y60474D01*
X263612Y59311D01*
X263765Y58148D01*
X264663Y55980D01*
X266091Y54119D01*
X276950Y43260D01*
Y30390D01*
X304530D01*
Y34193D01*
X323937D01*
X326893Y31237D01*
X328755Y29809D01*
X330922Y28911D01*
X332085Y28758D01*
X333248Y28605D01*
X387020D01*
Y18280D01*
X446100D01*
Y52360D01*
X387020D01*
Y46579D01*
X336970D01*
X334015Y49535D01*
X332154Y50963D01*
X329986Y51861D01*
X327660Y52167D01*
X304530D01*
Y55970D01*
X289660D01*
X281433Y64196D01*
Y71295D01*
X281806Y72411D01*
X282703Y72411D01*
X285636D01*
Y85751D01*
Y99091D01*
X281806D01*
Y90611D01*
X280536Y90119D01*
X280086Y90614D01*
Y99091D01*
X264806D01*
X264433Y100206D01*
Y105234D01*
X264127Y107560D01*
X263229Y109727D01*
X261801Y111589D01*
X235759Y137631D01*
X233898Y139059D01*
X231730Y139957D01*
X230567Y140110D01*
X229404Y140263D01*
X190706D01*
Y156316D01*
X164626D01*
Y149404D01*
X138501D01*
Y150940D01*
X138540D01*
Y164020D01*
D02*
G37*
G36*
X624500Y154010D02*
X621070D01*
Y148130D01*
X624500D01*
Y154010D01*
D02*
G37*
G36*
X613450D02*
X610020D01*
Y148130D01*
X613450D01*
Y154010D01*
D02*
G37*
G36*
X860397Y148590D02*
X854710D01*
Y142902D01*
X854822Y142932D01*
X857138Y144270D01*
X859030Y146162D01*
X860368Y148478D01*
X860397Y148590D01*
D02*
G37*
G36*
X847090D02*
X841403D01*
X841432Y148478D01*
X842770Y146162D01*
X844662Y144270D01*
X846978Y142932D01*
X847090Y142902D01*
Y148590D01*
D02*
G37*
G36*
X834997D02*
X829310D01*
Y142902D01*
X829422Y142932D01*
X831738Y144270D01*
X833630Y146162D01*
X834968Y148478D01*
X834997Y148590D01*
D02*
G37*
G36*
X821690D02*
X816003D01*
X816032Y148478D01*
X817370Y146162D01*
X819262Y144270D01*
X821578Y142932D01*
X821690Y142902D01*
Y148590D01*
D02*
G37*
G36*
X809597D02*
X803910D01*
Y142902D01*
X804022Y142932D01*
X806338Y144270D01*
X808230Y146162D01*
X809568Y148478D01*
X809597Y148590D01*
D02*
G37*
G36*
X796290D02*
X790602D01*
X790632Y148478D01*
X791970Y146162D01*
X793862Y144270D01*
X796178Y142932D01*
X796290Y142902D01*
Y148590D01*
D02*
G37*
G36*
X605063Y143563D02*
Y137683D01*
X608493D01*
Y143563D01*
X605063D01*
D02*
G37*
G36*
X854710Y136497D02*
Y130810D01*
X860397D01*
X860368Y130922D01*
X859030Y133238D01*
X857138Y135130D01*
X854822Y136468D01*
X854710Y136497D01*
D02*
G37*
G36*
X847090D02*
X846978Y136468D01*
X844662Y135130D01*
X842770Y133238D01*
X841432Y130922D01*
X841403Y130810D01*
X847090D01*
Y136497D01*
D02*
G37*
G36*
X829310D02*
Y130810D01*
X834997D01*
X834968Y130922D01*
X833630Y133238D01*
X831738Y135130D01*
X829422Y136468D01*
X829310Y136497D01*
D02*
G37*
G36*
X821690D02*
X821578Y136468D01*
X819262Y135130D01*
X817370Y133238D01*
X816032Y130922D01*
X816003Y130810D01*
X821690D01*
Y136497D01*
D02*
G37*
G36*
X803910D02*
Y130810D01*
X809597D01*
X809568Y130922D01*
X808230Y133238D01*
X806338Y135130D01*
X804022Y136468D01*
X803910Y136497D01*
D02*
G37*
G36*
X796290D02*
X796178Y136468D01*
X793862Y135130D01*
X791970Y133238D01*
X790632Y130922D01*
X790602Y130810D01*
X796290D01*
Y136497D01*
D02*
G37*
G36*
X624500Y140510D02*
X617260D01*
X610020D01*
Y134960D01*
X610020Y134630D01*
Y133690D01*
X610020Y133360D01*
Y127810D01*
X617260D01*
X624500D01*
Y133360D01*
X624500Y133690D01*
Y134630D01*
X624500Y134960D01*
Y140510D01*
D02*
G37*
G36*
X608493Y130063D02*
X605063D01*
Y124184D01*
X608493D01*
Y130063D01*
D02*
G37*
G36*
X537210Y123798D02*
Y118110D01*
X542897D01*
X542868Y118222D01*
X541530Y120538D01*
X539638Y122430D01*
X537322Y123768D01*
X537210Y123798D01*
D02*
G37*
G36*
X529590D02*
X529478Y123768D01*
X527162Y122430D01*
X525270Y120538D01*
X523932Y118222D01*
X523903Y118110D01*
X529590D01*
Y123798D01*
D02*
G37*
G36*
X514350D02*
Y118110D01*
X520037D01*
X520008Y118222D01*
X518670Y120538D01*
X516778Y122430D01*
X514462Y123768D01*
X514350Y123798D01*
D02*
G37*
G36*
X506730D02*
X506618Y123768D01*
X504302Y122430D01*
X502410Y120538D01*
X501072Y118222D01*
X501043Y118110D01*
X506730D01*
Y123798D01*
D02*
G37*
G36*
X860397Y123190D02*
X854710D01*
Y117502D01*
X854822Y117532D01*
X857138Y118870D01*
X859030Y120762D01*
X860368Y123078D01*
X860397Y123190D01*
D02*
G37*
G36*
X847090D02*
X841403D01*
X841432Y123078D01*
X842770Y120762D01*
X844662Y118870D01*
X846978Y117532D01*
X847090Y117502D01*
Y123190D01*
D02*
G37*
G36*
X834997D02*
X829310D01*
Y117502D01*
X829422Y117532D01*
X831738Y118870D01*
X833630Y120762D01*
X834968Y123078D01*
X834997Y123190D01*
D02*
G37*
G36*
X821690D02*
X816003D01*
X816032Y123078D01*
X817370Y120762D01*
X819262Y118870D01*
X821578Y117532D01*
X821690Y117502D01*
Y123190D01*
D02*
G37*
G36*
X809597D02*
X803910D01*
Y117502D01*
X804022Y117532D01*
X806338Y118870D01*
X808230Y120762D01*
X809568Y123078D01*
X809597Y123190D01*
D02*
G37*
G36*
X796290D02*
X790602D01*
X790632Y123078D01*
X791970Y120762D01*
X793862Y118870D01*
X796178Y117532D01*
X796290Y117502D01*
Y123190D01*
D02*
G37*
G36*
X854710Y111097D02*
Y105410D01*
X860397D01*
X860368Y105522D01*
X859030Y107838D01*
X857138Y109730D01*
X854822Y111068D01*
X854710Y111097D01*
D02*
G37*
G36*
X847090D02*
X846978Y111068D01*
X844662Y109730D01*
X842770Y107838D01*
X841432Y105522D01*
X841403Y105410D01*
X847090D01*
Y111097D01*
D02*
G37*
G36*
X829310D02*
Y105410D01*
X834997D01*
X834968Y105522D01*
X833630Y107838D01*
X831738Y109730D01*
X829422Y111068D01*
X829310Y111097D01*
D02*
G37*
G36*
X821690D02*
X821578Y111068D01*
X819262Y109730D01*
X817370Y107838D01*
X816032Y105522D01*
X816003Y105410D01*
X821690D01*
Y111097D01*
D02*
G37*
G36*
X803910D02*
Y105410D01*
X809597D01*
X809568Y105522D01*
X808230Y107838D01*
X806338Y109730D01*
X804022Y111068D01*
X803910Y111097D01*
D02*
G37*
G36*
X796290D02*
X796178Y111068D01*
X793862Y109730D01*
X791970Y107838D01*
X790632Y105522D01*
X790602Y105410D01*
X796290D01*
Y111097D01*
D02*
G37*
G36*
X110490Y109666D02*
Y105410D01*
X114746D01*
X113794Y107059D01*
X112139Y108714D01*
X110490Y109666D01*
D02*
G37*
G36*
X102870D02*
X101221Y108714D01*
X99566Y107059D01*
X98614Y105410D01*
X102870D01*
Y109666D01*
D02*
G37*
G36*
X542897Y110490D02*
X537210D01*
Y104803D01*
X537322Y104832D01*
X539638Y106170D01*
X541530Y108062D01*
X542868Y110378D01*
X542897Y110490D01*
D02*
G37*
G36*
X529590D02*
X523903D01*
X523932Y110378D01*
X525270Y108062D01*
X527162Y106170D01*
X529478Y104832D01*
X529590Y104803D01*
Y110490D01*
D02*
G37*
G36*
X520037D02*
X514350D01*
Y104803D01*
X514462Y104832D01*
X516778Y106170D01*
X518670Y108062D01*
X520008Y110378D01*
X520037Y110490D01*
D02*
G37*
G36*
X506730D02*
X501043D01*
X501072Y110378D01*
X502410Y108062D01*
X504302Y106170D01*
X506618Y104832D01*
X506730Y104803D01*
Y110490D01*
D02*
G37*
G36*
X88232Y107920D02*
Y103664D01*
X92487D01*
X91536Y105313D01*
X89881Y106968D01*
X88232Y107920D01*
D02*
G37*
G36*
X80612D02*
X78963Y106968D01*
X77308Y105313D01*
X76356Y103664D01*
X80612D01*
Y107920D01*
D02*
G37*
G36*
X584780Y103770D02*
X581050D01*
Y97790D01*
X584780D01*
Y103770D01*
D02*
G37*
G36*
X573430D02*
X569700D01*
Y97790D01*
X573430D01*
Y103770D01*
D02*
G37*
G36*
X114746Y97790D02*
X110490D01*
Y93534D01*
X112139Y94486D01*
X113794Y96141D01*
X114746Y97790D01*
D02*
G37*
G36*
X102870D02*
X98614D01*
X99566Y96141D01*
X101221Y94486D01*
X102870Y93534D01*
Y97790D01*
D02*
G37*
G36*
X537210Y98398D02*
Y92710D01*
X542897D01*
X542868Y92822D01*
X541530Y95138D01*
X539638Y97030D01*
X537322Y98368D01*
X537210Y98398D01*
D02*
G37*
G36*
X529590D02*
X529478Y98368D01*
X527162Y97030D01*
X525270Y95138D01*
X523932Y92822D01*
X523903Y92710D01*
X529590D01*
Y98398D01*
D02*
G37*
G36*
X514350D02*
Y92710D01*
X520037D01*
X520008Y92822D01*
X518670Y95138D01*
X516778Y97030D01*
X514462Y98368D01*
X514350Y98398D01*
D02*
G37*
G36*
X506730D02*
X506618Y98368D01*
X504302Y97030D01*
X502410Y95138D01*
X501072Y92822D01*
X501043Y92710D01*
X506730D01*
Y98398D01*
D02*
G37*
G36*
X860397Y97790D02*
X854710D01*
Y92102D01*
X854822Y92132D01*
X857138Y93470D01*
X859030Y95362D01*
X860368Y97678D01*
X860397Y97790D01*
D02*
G37*
G36*
X847090D02*
X841403D01*
X841432Y97678D01*
X842770Y95362D01*
X844662Y93470D01*
X846978Y92132D01*
X847090Y92102D01*
Y97790D01*
D02*
G37*
G36*
X834997D02*
X829310D01*
Y92102D01*
X829422Y92132D01*
X831738Y93470D01*
X833630Y95362D01*
X834968Y97678D01*
X834997Y97790D01*
D02*
G37*
G36*
X821690D02*
X816003D01*
X816032Y97678D01*
X817370Y95362D01*
X819262Y93470D01*
X821578Y92132D01*
X821690Y92102D01*
Y97790D01*
D02*
G37*
G36*
X809597D02*
X803910D01*
Y92102D01*
X804022Y92132D01*
X806338Y93470D01*
X808230Y95362D01*
X809568Y97678D01*
X809597Y97790D01*
D02*
G37*
G36*
X796290D02*
X790602D01*
X790632Y97678D01*
X791970Y95362D01*
X793862Y93470D01*
X796178Y92132D01*
X796290Y92102D01*
Y97790D01*
D02*
G37*
G36*
X92487Y96044D02*
X88232D01*
Y91789D01*
X89881Y92740D01*
X91536Y94396D01*
X92487Y96044D01*
D02*
G37*
G36*
X80612D02*
X76356D01*
X77308Y94396D01*
X78963Y92740D01*
X80612Y91789D01*
Y96044D01*
D02*
G37*
G36*
X331086Y99091D02*
X327256D01*
Y89561D01*
X331086D01*
Y99091D01*
D02*
G37*
G36*
X319636D02*
X315806D01*
Y89561D01*
X319636D01*
Y99091D01*
D02*
G37*
G36*
X297086D02*
X293256D01*
Y89561D01*
X297086D01*
Y99091D01*
D02*
G37*
G36*
X110490Y89346D02*
Y85090D01*
X114746D01*
X113794Y86739D01*
X112139Y88394D01*
X110490Y89346D01*
D02*
G37*
G36*
X102870D02*
X101221Y88394D01*
X99566Y86739D01*
X98614Y85090D01*
X102870D01*
Y89346D01*
D02*
G37*
G36*
X584780Y90170D02*
X581050D01*
Y84190D01*
X584780D01*
Y90170D01*
D02*
G37*
G36*
X573430D02*
X569700D01*
Y84190D01*
X573430D01*
Y90170D01*
D02*
G37*
G36*
X542897Y85090D02*
X537210D01*
Y79402D01*
X537322Y79432D01*
X539638Y80770D01*
X541530Y82662D01*
X542868Y84978D01*
X542897Y85090D01*
D02*
G37*
G36*
X529590D02*
X523903D01*
X523932Y84978D01*
X525270Y82662D01*
X527162Y80770D01*
X529478Y79432D01*
X529590Y79402D01*
Y85090D01*
D02*
G37*
G36*
X520037D02*
X514350D01*
Y79402D01*
X514462Y79432D01*
X516778Y80770D01*
X518670Y82662D01*
X520008Y84978D01*
X520037Y85090D01*
D02*
G37*
G36*
X506730D02*
X501043D01*
X501072Y84978D01*
X502410Y82662D01*
X504302Y80770D01*
X506618Y79432D01*
X506730Y79402D01*
Y85090D01*
D02*
G37*
G36*
X114746Y77470D02*
X110490D01*
Y73214D01*
X112139Y74166D01*
X113794Y75821D01*
X114746Y77470D01*
D02*
G37*
G36*
X102870D02*
X98614D01*
X99566Y75821D01*
X101221Y74166D01*
X102870Y73214D01*
Y77470D01*
D02*
G37*
G36*
X331086Y81941D02*
X327256D01*
Y72411D01*
X331086D01*
Y81941D01*
D02*
G37*
G36*
X319636D02*
X315806D01*
Y72411D01*
X319636D01*
Y81941D01*
D02*
G37*
G36*
X297086Y81941D02*
X293256D01*
Y72411D01*
X297086D01*
Y81941D01*
D02*
G37*
G36*
X537210Y72997D02*
Y67310D01*
X542897D01*
X542868Y67422D01*
X541530Y69738D01*
X539638Y71630D01*
X537322Y72968D01*
X537210Y72997D01*
D02*
G37*
G36*
X529590D02*
X529478Y72968D01*
X527162Y71630D01*
X525270Y69738D01*
X523932Y67422D01*
X523903Y67310D01*
X529590D01*
Y72997D01*
D02*
G37*
G36*
X511810D02*
Y67310D01*
X517497D01*
X517468Y67422D01*
X516130Y69738D01*
X514238Y71630D01*
X511922Y72968D01*
X511810Y72997D01*
D02*
G37*
G36*
X504190D02*
X504078Y72968D01*
X501762Y71630D01*
X499870Y69738D01*
X498532Y67422D01*
X498503Y67310D01*
X504190D01*
Y72997D01*
D02*
G37*
G36*
X110490Y69026D02*
Y64770D01*
X114746D01*
X113794Y66419D01*
X112139Y68074D01*
X110490Y69026D01*
D02*
G37*
G36*
X102870D02*
X101221Y68074D01*
X99566Y66419D01*
X98614Y64770D01*
X102870D01*
Y69026D01*
D02*
G37*
G36*
X542897Y59690D02*
X537210D01*
Y54002D01*
X537322Y54032D01*
X539638Y55370D01*
X541530Y57262D01*
X542868Y59578D01*
X542897Y59690D01*
D02*
G37*
G36*
X529590D02*
X523903D01*
X523932Y59578D01*
X525270Y57262D01*
X527162Y55370D01*
X529478Y54032D01*
X529590Y54002D01*
Y59690D01*
D02*
G37*
G36*
X517497D02*
X511810D01*
Y54002D01*
X511922Y54032D01*
X514238Y55370D01*
X516130Y57262D01*
X517468Y59578D01*
X517497Y59690D01*
D02*
G37*
G36*
X504190D02*
X498503D01*
X498532Y59578D01*
X499870Y57262D01*
X501762Y55370D01*
X504078Y54032D01*
X504190Y54002D01*
Y59690D01*
D02*
G37*
G36*
X114746Y57150D02*
X110490D01*
Y52894D01*
X112139Y53846D01*
X113794Y55501D01*
X114746Y57150D01*
D02*
G37*
G36*
X102870D02*
X98614D01*
X99566Y55501D01*
X101221Y53846D01*
X102870Y52894D01*
Y57150D01*
D02*
G37*
G36*
X261530Y55970D02*
X251550D01*
Y46990D01*
X261530D01*
Y55970D01*
D02*
G37*
G36*
X243930D02*
X233950D01*
Y46990D01*
X243930D01*
Y55970D01*
D02*
G37*
G36*
X110490Y48706D02*
Y44450D01*
X114746D01*
X113794Y46099D01*
X112139Y47754D01*
X110490Y48706D01*
D02*
G37*
G36*
X102870D02*
X101221Y47754D01*
X99566Y46099D01*
X98614Y44450D01*
X102870D01*
Y48706D01*
D02*
G37*
G36*
X190706Y65316D02*
X181476D01*
Y44086D01*
X190706D01*
Y65316D01*
D02*
G37*
G36*
X173856D02*
X164626D01*
Y44086D01*
X173856D01*
Y65316D01*
D02*
G37*
G36*
X537210Y47597D02*
Y41910D01*
X542897D01*
X542868Y42022D01*
X541530Y44338D01*
X539638Y46230D01*
X537322Y47568D01*
X537210Y47597D01*
D02*
G37*
G36*
X529590D02*
X529478Y47568D01*
X527162Y46230D01*
X525270Y44338D01*
X523932Y42022D01*
X523903Y41910D01*
X529590D01*
Y47597D01*
D02*
G37*
G36*
X511810D02*
Y41910D01*
X517497D01*
X517468Y42022D01*
X516130Y44338D01*
X514238Y46230D01*
X511922Y47568D01*
X511810Y47597D01*
D02*
G37*
G36*
X504190D02*
X504078Y47568D01*
X501762Y46230D01*
X499870Y44338D01*
X498532Y42022D01*
X498503Y41910D01*
X504190D01*
Y47597D01*
D02*
G37*
G36*
X559803Y81240D02*
X557798D01*
X555945Y80473D01*
X554527Y79055D01*
X553760Y77203D01*
Y75198D01*
X554527Y73345D01*
X555945Y71927D01*
X557798Y71160D01*
X558346D01*
X561133Y68373D01*
X562393Y67531D01*
X563880Y67235D01*
X569700D01*
Y61580D01*
X573355D01*
Y55800D01*
X571450D01*
Y40720D01*
X586030D01*
Y55800D01*
X581125D01*
Y61580D01*
X584780D01*
Y80660D01*
X569700D01*
Y75005D01*
X565489D01*
X563840Y76654D01*
Y77203D01*
X563073Y79055D01*
X561655Y80473D01*
X559803Y81240D01*
D02*
G37*
G36*
X669820Y39370D02*
X666090D01*
Y33390D01*
X669820D01*
Y39370D01*
D02*
G37*
G36*
X658470D02*
X654740D01*
Y33390D01*
X658470D01*
Y39370D01*
D02*
G37*
G36*
X261530D02*
X251550D01*
Y30390D01*
X261530D01*
Y39370D01*
D02*
G37*
G36*
X243930D02*
X233950D01*
Y30390D01*
X243930D01*
Y39370D01*
D02*
G37*
G36*
X114746Y36830D02*
X98614D01*
X99566Y35181D01*
X100934Y33814D01*
X101109Y33020D01*
X100934Y32226D01*
X99566Y30859D01*
X98614Y29210D01*
X114746D01*
X113794Y30859D01*
X112426Y32226D01*
X112251Y33020D01*
X112426Y33814D01*
X113794Y35181D01*
X114746Y36830D01*
D02*
G37*
G36*
X542897Y34290D02*
X537210D01*
Y28602D01*
X537322Y28632D01*
X539638Y29970D01*
X541530Y31862D01*
X542868Y34178D01*
X542897Y34290D01*
D02*
G37*
G36*
X529590D02*
X523903D01*
X523932Y34178D01*
X525270Y31862D01*
X527162Y29970D01*
X529478Y28632D01*
X529590Y28602D01*
Y34290D01*
D02*
G37*
G36*
X517497D02*
X511810D01*
Y28602D01*
X511922Y28632D01*
X514238Y29970D01*
X516130Y31862D01*
X517468Y34178D01*
X517497Y34290D01*
D02*
G37*
G36*
X504190D02*
X498503D01*
X498532Y34178D01*
X499870Y31862D01*
X501762Y29970D01*
X504078Y28632D01*
X504190Y28602D01*
Y34290D01*
D02*
G37*
G36*
X114746Y21590D02*
X110490D01*
Y17334D01*
X112139Y18286D01*
X113794Y19941D01*
X114746Y21590D01*
D02*
G37*
G36*
X102870D02*
X98614D01*
X99566Y19941D01*
X101221Y18286D01*
X102870Y17334D01*
Y21590D01*
D02*
G37*
%LPD*%
G36*
X463282Y584054D02*
X462656Y582884D01*
X462020Y583011D01*
X425438D01*
X424520Y583860D01*
Y593015D01*
X454321D01*
X463282Y584054D01*
D02*
G37*
G36*
X374077Y591609D02*
X375645Y588893D01*
X378073Y586465D01*
X381047Y584749D01*
X384363Y583860D01*
X384703D01*
Y580614D01*
X384999Y579127D01*
X385841Y577867D01*
X387328Y576379D01*
X387767Y576086D01*
X387382Y574816D01*
X371408D01*
X366026Y580198D01*
X366026Y582662D01*
X366135Y583213D01*
X366188Y584426D01*
X366158Y584499D01*
X366952Y585464D01*
X368687Y586465D01*
X371115Y588893D01*
X372683Y591609D01*
X373340Y591745D01*
X373420D01*
X374077Y591609D01*
D02*
G37*
G36*
X492188Y483674D02*
X492108Y483276D01*
X492577Y480920D01*
X493912Y478922D01*
X494676Y478411D01*
Y477141D01*
X493912Y476631D01*
X492577Y474633D01*
X492108Y472276D01*
X492577Y469920D01*
X493912Y467922D01*
X494676Y467411D01*
Y466141D01*
X493912Y465631D01*
X492577Y463633D01*
X492108Y461276D01*
X492577Y458920D01*
X493912Y456922D01*
X494676Y456411D01*
Y455141D01*
X493912Y454631D01*
X493548Y454086D01*
X507267D01*
Y446466D01*
X493548D01*
X493912Y445922D01*
X494676Y445411D01*
Y444141D01*
X493912Y443631D01*
X493548Y443086D01*
X507267D01*
Y435466D01*
X493548D01*
X493912Y434922D01*
X494676Y434411D01*
Y433141D01*
X493912Y432631D01*
X492577Y430633D01*
X492108Y428276D01*
X492577Y425920D01*
X493912Y423922D01*
X495910Y422587D01*
X498267Y422118D01*
X509282D01*
Y403732D01*
X521108Y391906D01*
Y386776D01*
X521577Y384420D01*
X522912Y382422D01*
X524910Y381087D01*
X527267Y380618D01*
X529623Y381087D01*
X531621Y382422D01*
X532132Y383186D01*
X533402D01*
X533912Y382422D01*
X535910Y381087D01*
X538267Y380618D01*
X540623Y381087D01*
X542621Y382422D01*
X543132Y383186D01*
X544402D01*
X544912Y382422D01*
X546910Y381087D01*
X549267Y380618D01*
X551623Y381087D01*
X553621Y382422D01*
X554132Y383186D01*
X555402D01*
X555912Y382422D01*
X557910Y381087D01*
X560267Y380618D01*
X562623Y381087D01*
X564621Y382422D01*
X565132Y383186D01*
X566402D01*
X566912Y382422D01*
X568910Y381087D01*
X571267Y380618D01*
X573623Y381087D01*
X575621Y382422D01*
X576132Y383186D01*
X577402D01*
X577912Y382422D01*
X579910Y381087D01*
X582048Y380661D01*
X582644Y379948D01*
X582923Y379454D01*
X582716Y378955D01*
Y376950D01*
X583483Y375097D01*
X584901Y373679D01*
X586754Y372912D01*
X588759D01*
X590611Y373679D01*
X592029Y375097D01*
X592796Y376950D01*
Y377498D01*
X595160Y379863D01*
X596002Y381123D01*
X596052Y381373D01*
X597621Y382422D01*
X598132Y383186D01*
X599402D01*
X599912Y382422D01*
X601910Y381087D01*
X604267Y380618D01*
X606623Y381087D01*
X608621Y382422D01*
X609132Y383186D01*
X610402D01*
X610912Y382422D01*
X612910Y381087D01*
X615267Y380618D01*
X617623Y381087D01*
X619621Y382422D01*
X620132Y383186D01*
X621402D01*
X621912Y382422D01*
X623910Y381087D01*
X626267Y380618D01*
X628623Y381087D01*
X630621Y382422D01*
X631132Y383186D01*
X632402D01*
X632912Y382422D01*
X634910Y381087D01*
X635123Y381045D01*
X664135Y352032D01*
Y318335D01*
X664429Y316859D01*
Y314995D01*
X698498Y280926D01*
X708156D01*
Y277546D01*
X717733D01*
X754591Y238760D01*
Y111760D01*
X745589D01*
Y124410D01*
X740609D01*
Y98370D01*
X732989D01*
Y124410D01*
X728009D01*
Y111760D01*
X713089D01*
Y124410D01*
X695509D01*
Y111760D01*
X629680D01*
Y114310D01*
X629850D01*
Y124000D01*
X637470D01*
Y114310D01*
X640900D01*
Y120575D01*
X646430D01*
Y124460D01*
Y128345D01*
X640900D01*
Y133690D01*
X640900D01*
Y134630D01*
X640900D01*
Y140510D01*
X633660D01*
Y144320D01*
X629850D01*
Y154010D01*
X629680D01*
Y199995D01*
X630150D01*
X631637Y200291D01*
X632897Y201133D01*
X666165Y234401D01*
X667008Y235662D01*
X667303Y237148D01*
Y291319D01*
X667008Y292806D01*
X666165Y294066D01*
X649986Y310245D01*
Y325097D01*
X608409Y364514D01*
X603640D01*
X603489Y364665D01*
X602229Y365507D01*
X600742Y365803D01*
X493131D01*
X471030Y387904D01*
X471130Y425223D01*
X476900D01*
Y426053D01*
X472060D01*
Y433673D01*
X476900D01*
Y434503D01*
X472835D01*
X471973Y435739D01*
X472162Y436194D01*
X473164D01*
X473314Y436194D01*
X474434D01*
X474584Y436194D01*
X477064D01*
Y443684D01*
Y451174D01*
X474584D01*
X474434Y451174D01*
X473314D01*
X473164Y451174D01*
X472100D01*
X471203Y452073D01*
X471208Y453805D01*
X473164D01*
X473314Y453805D01*
X474434D01*
X474584Y453805D01*
X477064D01*
Y461295D01*
Y468785D01*
X474584D01*
X474434Y468785D01*
X473314D01*
X473164Y468785D01*
X472147D01*
X471250Y469684D01*
X471291Y484656D01*
X491382Y484656D01*
X492188Y483674D01*
D02*
G37*
G36*
X819075Y475911D02*
Y452998D01*
X817902Y452512D01*
X813007Y457407D01*
X811747Y458249D01*
X810260Y458545D01*
X807712D01*
X806540Y458780D01*
Y469860D01*
X795940D01*
Y476780D01*
X806540D01*
Y478435D01*
X816551D01*
X819075Y475911D01*
D02*
G37*
G36*
X788051Y498876D02*
X788400Y497765D01*
X787193Y496559D01*
X786351Y495299D01*
X786055Y493812D01*
Y478860D01*
X784860D01*
Y467780D01*
X795460D01*
Y459760D01*
X784860D01*
Y450205D01*
X782109D01*
X778585Y453729D01*
Y493691D01*
X783929Y499035D01*
X787930D01*
X788051Y498876D01*
D02*
G37*
G36*
X784860Y432498D02*
X783655Y431622D01*
X783323Y431760D01*
X781318D01*
X779465Y430993D01*
X778047Y429575D01*
X777280Y427723D01*
Y425718D01*
X778047Y423865D01*
X779465Y422447D01*
X781318Y421680D01*
X783323D01*
X785175Y422447D01*
X786034Y423306D01*
X795460D01*
Y422780D01*
X805572D01*
Y407206D01*
X755311Y356945D01*
X748930D01*
Y370100D01*
X743025D01*
Y371370D01*
X742729Y372857D01*
X741887Y374117D01*
X739066Y376938D01*
X737805Y377780D01*
X736319Y378076D01*
X718850D01*
Y380507D01*
X716295D01*
Y418339D01*
X715999Y419825D01*
X715157Y421085D01*
X707189Y429053D01*
X711974Y433837D01*
X784860D01*
Y432498D01*
D02*
G37*
G36*
X850560Y480280D02*
X854635D01*
Y422260D01*
X850560D01*
X849705Y423176D01*
Y469900D01*
X849409Y471387D01*
X848567Y472647D01*
X841228Y479985D01*
X841755Y481255D01*
X850560D01*
Y480280D01*
D02*
G37*
G36*
X841935Y468291D02*
Y407860D01*
X840560D01*
X840335Y408074D01*
X839816Y409130D01*
X840417Y410581D01*
Y412586D01*
X839649Y414438D01*
X839187Y414901D01*
Y411583D01*
X831567D01*
Y414901D01*
X831104Y414438D01*
X830337Y412586D01*
Y410581D01*
X830938Y409130D01*
X830418Y408074D01*
X830194Y407860D01*
X826845D01*
Y477520D01*
X826549Y479007D01*
X825707Y480267D01*
X820907Y485067D01*
X819647Y485909D01*
X818160Y486205D01*
X806540D01*
Y487860D01*
X795460D01*
Y478860D01*
X793825D01*
Y491415D01*
X818811D01*
X841935Y468291D01*
D02*
G37*
G36*
X729350Y370100D02*
Y356945D01*
X710269D01*
X702957Y364257D01*
X703483Y365527D01*
X704850D01*
Y365527D01*
X705970D01*
Y365527D01*
X718850D01*
Y370307D01*
X728166D01*
X729350Y370100D01*
D02*
G37*
G36*
X838910Y396780D02*
X841935D01*
Y371073D01*
X827839Y356976D01*
X826997Y355716D01*
X826701Y354230D01*
Y353759D01*
X825746D01*
Y353010D01*
X824300Y352723D01*
X823039Y351880D01*
X821552Y350393D01*
X820710Y349132D01*
X820414Y347646D01*
Y341373D01*
X811000D01*
X810474Y342643D01*
X810761Y342930D01*
X811603Y344190D01*
X811899Y345677D01*
Y373929D01*
X825707Y387737D01*
X826549Y388997D01*
X826845Y390484D01*
Y396780D01*
X831290D01*
Y402320D01*
X838910D01*
Y396780D01*
D02*
G37*
G36*
X694540Y382006D02*
Y380507D01*
X691970D01*
Y365527D01*
X694525D01*
Y363310D01*
X694821Y361823D01*
X695663Y360563D01*
X705913Y350313D01*
X707173Y349471D01*
X708660Y349175D01*
X729350D01*
Y346785D01*
X726440D01*
X724953Y346489D01*
X723693Y345647D01*
X720906Y342860D01*
X720358D01*
X718505Y342093D01*
X717087Y340675D01*
X716320Y338823D01*
Y336818D01*
X717087Y334965D01*
X718505Y333547D01*
X720358Y332780D01*
X722363D01*
X724215Y333547D01*
X725633Y334965D01*
X726400Y336818D01*
Y337366D01*
X728049Y339015D01*
X729350D01*
Y336020D01*
X748930D01*
Y349175D01*
X756920D01*
X758407Y349471D01*
X759667Y350313D01*
X811257Y401903D01*
X812527Y401377D01*
Y398245D01*
X792640Y378358D01*
X791798Y377097D01*
X791502Y375611D01*
Y341373D01*
X786501D01*
Y340718D01*
X783873D01*
X782387Y340422D01*
X781126Y339580D01*
X774566Y333020D01*
X773500Y332500D01*
Y332500D01*
X773500Y332500D01*
X764220D01*
Y331545D01*
X762000D01*
X760513Y331249D01*
X759253Y330407D01*
X739409Y310563D01*
X738236Y311049D01*
Y311496D01*
X724156D01*
Y296916D01*
X738236D01*
Y300915D01*
X739140D01*
X740627Y301211D01*
X741887Y302053D01*
X762950Y323116D01*
X763721Y322936D01*
X764220Y322590D01*
Y316220D01*
X765050D01*
Y321060D01*
X772670D01*
Y316220D01*
X773500D01*
Y317175D01*
X778069D01*
X779556Y317471D01*
X780816Y318313D01*
X785328Y322825D01*
X786501Y322339D01*
Y319293D01*
X790657D01*
Y311183D01*
X790952Y309696D01*
X791795Y308436D01*
X795003Y305228D01*
X778496Y288721D01*
X738236D01*
Y292126D01*
X724156D01*
Y277546D01*
X726026D01*
X726875Y276276D01*
X726480Y275322D01*
Y273944D01*
X725210Y273437D01*
X721946Y276871D01*
X722236Y277546D01*
X722236D01*
Y292126D01*
X708156D01*
Y288721D01*
X703128D01*
X672572Y319276D01*
X672569Y319629D01*
X673639Y320078D01*
X673938Y320056D01*
X692540Y301453D01*
X693801Y300611D01*
X695287Y300316D01*
X706083D01*
X706113Y300322D01*
X708156D01*
Y296916D01*
X722236D01*
Y311496D01*
X708156D01*
Y308091D01*
X706089D01*
X706058Y308085D01*
X696896D01*
X679675Y325306D01*
X679804Y326515D01*
X680930Y326870D01*
X686464Y321337D01*
X687724Y320494D01*
X689211Y320199D01*
X708156D01*
Y316793D01*
X722236D01*
Y331373D01*
X708156D01*
Y327968D01*
X690820D01*
X687550Y331238D01*
Y361008D01*
X687254Y362495D01*
X686412Y363755D01*
X665088Y385079D01*
X665425Y386776D01*
Y404776D01*
X664956Y407133D01*
X663621Y409131D01*
X661623Y410466D01*
X659267Y410935D01*
X656910Y410466D01*
X654912Y409131D01*
X654402Y408367D01*
X653132D01*
X652621Y409131D01*
X650623Y410466D01*
X648267Y410935D01*
X645910Y410466D01*
X643912Y409131D01*
X643402Y408367D01*
X642132D01*
X641621Y409131D01*
X639623Y410466D01*
X637267Y410935D01*
X634910Y410466D01*
X632912Y409131D01*
X632628Y408705D01*
X631259Y408636D01*
X630565Y409402D01*
Y413218D01*
X663328D01*
X694540Y382006D01*
D02*
G37*
G36*
X570143Y341304D02*
Y279048D01*
X568880Y279030D01*
Y279030D01*
X565225D01*
Y337820D01*
X564929Y339307D01*
X564087Y340567D01*
X554115Y350539D01*
X554641Y351809D01*
X559638D01*
X570143Y341304D01*
D02*
G37*
G36*
X632576Y256706D02*
Y247120D01*
X652156D01*
Y257692D01*
X653426Y258218D01*
X654212Y257431D01*
X656065Y256664D01*
X658070D01*
X658478Y256833D01*
X659534Y256127D01*
Y238757D01*
X630853Y210077D01*
X629680Y210563D01*
Y257865D01*
X629818Y257971D01*
X630950Y258332D01*
X632576Y256706D01*
D02*
G37*
G36*
X620234Y98902D02*
X622335Y97498D01*
X624812Y97006D01*
X637240D01*
X639718Y97498D01*
X640378Y97940D01*
X644667D01*
Y90020D01*
X628700D01*
Y88365D01*
X620420D01*
X618933Y88069D01*
X617673Y87227D01*
X605451Y75005D01*
X603780D01*
Y80660D01*
X600125D01*
Y84190D01*
X603780D01*
Y103421D01*
X615715D01*
X620234Y98902D01*
D02*
G37*
%LPC*%
G36*
X484684Y468785D02*
Y465105D01*
X487314D01*
Y468785D01*
X484684D01*
D02*
G37*
G36*
X487314Y457485D02*
X484684D01*
Y453805D01*
X487314D01*
Y457485D01*
D02*
G37*
G36*
X484684Y451174D02*
Y447494D01*
X487314D01*
Y451174D01*
X484684D01*
D02*
G37*
G36*
X487314Y439874D02*
X484684D01*
Y436194D01*
X487314D01*
Y439874D01*
D02*
G37*
G36*
X670430Y202650D02*
X659850D01*
Y191770D01*
X670430D01*
Y202650D01*
D02*
G37*
G36*
X652230D02*
X641650D01*
Y191770D01*
X652230D01*
Y202650D01*
D02*
G37*
G36*
X670430Y184150D02*
X659850D01*
Y173270D01*
X670430D01*
Y184150D01*
D02*
G37*
G36*
X652230D02*
X641650D01*
Y173270D01*
X652230D01*
Y184150D01*
D02*
G37*
G36*
X640900Y154010D02*
X637470D01*
Y148130D01*
X640900D01*
Y154010D01*
D02*
G37*
G36*
X764640Y407860D02*
X758910D01*
Y406130D01*
X764640D01*
Y407860D01*
D02*
G37*
G36*
X751290D02*
X745560D01*
Y406130D01*
X751290D01*
Y407860D01*
D02*
G37*
G36*
X764640Y398510D02*
X758910D01*
Y396780D01*
X764640D01*
Y398510D01*
D02*
G37*
G36*
X751290D02*
X745560D01*
Y396780D01*
X751290D01*
Y398510D01*
D02*
G37*
G36*
X738236Y331373D02*
X724156D01*
Y316793D01*
X738236D01*
Y318138D01*
X739292Y318843D01*
X739733Y318660D01*
X741738D01*
X743591Y319428D01*
X745009Y320845D01*
X745776Y322698D01*
Y324703D01*
X745009Y326555D01*
X743591Y327973D01*
X741738Y328740D01*
X739733D01*
X739292Y328558D01*
X738236Y329263D01*
Y331373D01*
D02*
G37*
G36*
X769254Y309677D02*
Y305422D01*
X773510D01*
X772558Y307070D01*
X770903Y308725D01*
X769254Y309677D01*
D02*
G37*
G36*
X761634D02*
X759986Y308725D01*
X758331Y307070D01*
X757379Y305422D01*
X761634D01*
Y309677D01*
D02*
G37*
G36*
X773510Y297802D02*
X769254D01*
Y293546D01*
X770903Y294498D01*
X772558Y296153D01*
X773510Y297802D01*
D02*
G37*
G36*
X761634D02*
X757379D01*
X758331Y296153D01*
X759986Y294498D01*
X761634Y293546D01*
Y297802D01*
D02*
G37*
%LPD*%
G36*
X271580Y257010D02*
X271580D01*
Y256070D01*
X271580D01*
Y247281D01*
X268586D01*
X259817Y256050D01*
X258953Y256628D01*
X258779Y257277D01*
X257608Y259305D01*
X255953Y260960D01*
X253926Y262130D01*
X251665Y262736D01*
X249324D01*
X247063Y262130D01*
X245696Y261341D01*
X244426Y262074D01*
Y264060D01*
X271580D01*
Y257010D01*
D02*
G37*
G36*
X336176Y152471D02*
X242716D01*
X241266Y153921D01*
X242716Y205811D01*
X245256D01*
Y155011D01*
X333636D01*
Y205811D01*
X336176D01*
Y152471D01*
D02*
G37*
D15*
X177292Y573024D02*
G03*
X176276Y574040I-1016J0D01*
G01*
X362141Y584395D02*
G03*
X362145Y584271I2540J20D01*
G01*
X362141Y582665D02*
G03*
X362197Y583357I-2480J549D01*
G01*
X172717Y403330D02*
X180192Y410805D01*
X172717Y388145D02*
X192225Y368637D01*
X172717Y388145D02*
Y403330D01*
X192225Y358955D02*
Y368637D01*
X350281Y334189D02*
X355262Y339170D01*
X350281Y322361D02*
Y334189D01*
X301960Y309935D02*
Y351480D01*
X300187Y353253D02*
X301960Y351480D01*
X314960Y296128D02*
X319638Y291450D01*
X320040Y332740D02*
Y352400D01*
X319638Y291450D02*
X327173D01*
X314960Y327660D02*
X320040Y332740D01*
X314960Y296128D02*
Y327660D01*
X327173Y291450D02*
X327824Y290799D01*
X327960Y309935D02*
X328396Y310371D01*
Y318236D01*
X332401Y322241D01*
X350401D01*
X319380Y353060D02*
X320040Y352400D01*
X350281Y322361D02*
X350401Y322241D01*
X455930Y596900D02*
X474650Y578180D01*
X411480Y596900D02*
X455930D01*
X474650Y559233D02*
Y578180D01*
X390075Y579126D02*
X462020D01*
X388587Y580614D02*
Y594393D01*
Y580614D02*
X390075Y579126D01*
X467360Y563880D02*
Y573786D01*
X462020Y579126D02*
X467360Y573786D01*
X825786Y349134D02*
X830570D01*
X824298Y347646D02*
X825786Y349134D01*
X824298Y316688D02*
Y347646D01*
X354403Y433504D02*
X390002D01*
X339290Y448618D02*
Y502160D01*
Y448618D02*
X354403Y433504D01*
X314112Y488009D02*
X316221Y490117D01*
X314010Y487906D02*
X314112Y488009D01*
X438567Y389983D02*
Y545247D01*
X459740Y566420D01*
X438567Y389983D02*
X480188Y348362D01*
X408066Y397906D02*
X431038Y420878D01*
Y550418D02*
X444500Y563880D01*
X431038Y420878D02*
Y550418D01*
X369799Y570931D02*
X458252D01*
X459740Y569443D01*
Y566420D02*
Y569443D01*
X454660Y398780D02*
Y539243D01*
X474650Y559233D01*
X307700Y510866D02*
X313212Y516379D01*
X242110Y510866D02*
X307700D01*
X313212Y516379D02*
Y523804D01*
X314112Y488009D02*
Y499824D01*
X242079Y505897D02*
X308039D01*
X314112Y499824D01*
X284020Y458766D02*
X291214Y451572D01*
X283832Y484098D02*
X284020Y483910D01*
Y458766D02*
Y483910D01*
X291214Y445386D02*
Y451572D01*
Y445386D02*
X291974Y444626D01*
X265954Y447967D02*
Y453046D01*
X269629Y456721D02*
Y483801D01*
X265954Y453046D02*
X269629Y456721D01*
X283832Y484098D02*
Y494123D01*
X262474Y444487D02*
X265954Y447967D01*
X262473Y444487D02*
X262474D01*
X236870Y457578D02*
X239957Y460665D01*
X239913Y464566D02*
X239957Y464522D01*
Y460665D02*
Y464522D01*
X236870Y448818D02*
Y457578D01*
X239913Y464566D02*
X240152D01*
X228862Y464912D02*
X239567D01*
X240152Y464566D02*
Y465255D01*
X239567Y464912D02*
X239688Y464790D01*
X240152Y465255D02*
X242181Y467284D01*
X228808Y464967D02*
X228862Y464912D01*
X227375Y464967D02*
X228808D01*
X227145Y465196D02*
X227375Y464967D01*
X242181Y467284D02*
Y485951D01*
X218740Y537882D02*
X230725Y525897D01*
X194381Y537882D02*
X218740D01*
X230725Y525897D02*
X241970D01*
X161188Y558773D02*
X165526Y563111D01*
X160940Y558773D02*
X161188D01*
X152945Y566768D02*
X160940Y558773D01*
X336550Y519004D02*
X337020D01*
X340250Y522234D01*
X350520Y543560D02*
X390400D01*
X340250Y522234D02*
Y533290D01*
X350520Y543560D01*
X390400Y528902D02*
Y543560D01*
X390002Y528505D02*
X390400Y528902D01*
X648267Y569340D02*
X658046Y579120D01*
X698500D01*
X648267Y548776D02*
Y569340D01*
X639672Y308306D02*
X646431D01*
X663419Y291319D01*
X639359Y308619D02*
X639672Y308306D01*
X663419Y237148D02*
Y291319D01*
X630150Y203880D02*
X663419Y237148D01*
X571985Y203880D02*
X630150D01*
X629797Y292591D02*
X639331D01*
X639359Y292619D01*
X623592Y298797D02*
X629797Y292591D01*
X623592Y298797D02*
Y308150D01*
X621862Y309880D02*
X623592Y308150D01*
X620200Y309880D02*
X621862D01*
X644616Y273660D02*
X656572Y261704D01*
X657067D01*
X599000Y273660D02*
X642366D01*
X633410Y261366D02*
Y264160D01*
Y261366D02*
X640116Y254660D01*
X642366D01*
X620200Y264160D02*
X633410D01*
X701518Y284836D02*
X715196D01*
X668020Y318335D02*
Y353641D01*
Y318335D02*
X701518Y284836D01*
X695287Y304200D02*
X706083D01*
X675771Y323717D02*
Y357392D01*
Y323717D02*
X695287Y304200D01*
X587756Y377952D02*
X592413Y382609D01*
Y393277D02*
X594106Y394970D01*
X592413Y382609D02*
Y393277D01*
X593300Y395776D02*
X594106Y394970D01*
X593267Y395776D02*
X593300D01*
X678413Y473130D02*
X679267Y472276D01*
X650724Y489228D02*
X666822Y473130D01*
X646630Y489228D02*
X650724D01*
X666822Y473130D02*
X678413D01*
X650838Y474906D02*
X664468Y461276D01*
X645098Y474906D02*
X650838D01*
X644627Y475377D02*
X645098Y474906D01*
X664468Y461276D02*
X679267D01*
X646669Y386493D02*
X675771Y357392D01*
X646669Y386493D02*
Y394179D01*
X679591Y428601D02*
X701141D01*
X679267Y428276D02*
X679591Y428601D01*
X507267Y472276D02*
X516267D01*
X657879Y386794D02*
X683665Y361008D01*
X657879Y386794D02*
Y394388D01*
X635456Y386205D02*
X668020Y353641D01*
X635456Y386205D02*
Y393965D01*
X626680Y415615D02*
X628168Y417103D01*
X626680Y396190D02*
Y415615D01*
X626267Y395776D02*
X626680Y396190D01*
X505722Y507337D02*
Y514732D01*
X646669Y394179D02*
X648267Y395776D01*
X507267Y505276D02*
Y505792D01*
X505722Y507337D02*
X507267Y505792D01*
X657879Y394388D02*
X659267Y395776D01*
X635456Y393965D02*
X637267Y395776D01*
X505722Y514732D02*
X507267Y516276D01*
X698410Y373017D02*
X698425Y373032D01*
Y383615D01*
X664937Y417103D02*
X698425Y383615D01*
X628168Y417103D02*
X664937D01*
X706120Y447040D02*
Y571500D01*
X698500Y579120D02*
X706120Y571500D01*
X683665Y329629D02*
Y361008D01*
Y329629D02*
X689211Y324083D01*
X715196D01*
X706083Y304200D02*
X706089Y304206D01*
X715196D01*
X702148Y428601D02*
Y429505D01*
X710365Y437722D02*
X789118D01*
X702148Y429505D02*
X710365Y437722D01*
X702148Y428601D02*
X712410Y418339D01*
X491522Y361918D02*
X600742D01*
X620200Y342460D01*
X454660Y398780D02*
X491522Y361918D01*
X561247Y355693D02*
X574027Y342913D01*
X485047Y355693D02*
X561247D01*
X447040Y393700D02*
X485047Y355693D01*
X550798Y348362D02*
X561340Y337820D01*
X480188Y348362D02*
X550798D01*
X712410Y374191D02*
Y418339D01*
X789960Y436880D02*
X790400Y437320D01*
X789118Y437722D02*
X789960Y436880D01*
X585736Y273660D02*
X599000D01*
X585736Y318972D02*
X598592D01*
X584248Y317484D02*
X585736Y318972D01*
X584248Y275148D02*
Y317484D01*
Y275148D02*
X585736Y273660D01*
X555640Y210820D02*
X570026D01*
X571514Y209332D01*
Y204350D02*
Y209332D01*
Y204350D02*
X571985Y203880D01*
X632460Y124460D02*
X650240D01*
X161014Y558568D02*
X163805Y555777D01*
X171915D01*
X152945Y566768D02*
Y573861D01*
X171969Y555831D02*
X172145D01*
X171915Y555777D02*
X171969Y555831D01*
X197418Y432586D02*
Y463719D01*
Y432586D02*
X199438Y430566D01*
Y428785D02*
Y430566D01*
Y428785D02*
X199909Y428314D01*
X197145Y471072D02*
X197375Y470841D01*
Y463763D02*
X197418Y463719D01*
X197375Y463763D02*
Y470841D01*
X368126Y259080D02*
X370840Y261794D01*
X350624Y259387D02*
X350931Y259080D01*
X370840Y261794D02*
Y268820D01*
X350931Y259080D02*
X368126D01*
X834120Y402320D02*
X835377Y403577D01*
Y411583D01*
X834120Y402320D02*
X835100D01*
X822811Y315200D02*
X824298Y316688D01*
X824039Y323833D02*
X824044D01*
X819305Y315200D02*
X822811D01*
X819136Y315031D02*
X819305Y315200D01*
X814541Y323833D02*
X824039D01*
X731196Y324208D02*
X731704Y323700D01*
X769050Y321060D02*
X778069D01*
X787038Y330029D01*
X794084D02*
X794465Y330410D01*
X787038Y330029D02*
X794084D01*
X768860Y320870D02*
X769050Y321060D01*
X177218Y572950D02*
X177292Y573024D01*
X166766Y574040D02*
X176276D01*
X35538Y412772D02*
X35978Y412332D01*
X768860Y320870D02*
Y321060D01*
X144347Y490825D02*
X144410Y490888D01*
X143876Y490354D02*
X144347Y490825D01*
X731196Y284836D02*
X780105D01*
X800497Y305228D01*
X620200Y309880D02*
Y342460D01*
X655320Y187960D02*
X656040D01*
X541640Y246299D02*
X542031Y246689D01*
X541640Y210820D02*
Y246299D01*
X561340Y246380D02*
Y269240D01*
X362885Y577845D02*
X369799Y570931D01*
X362145Y584271D02*
X362197Y583357D01*
X362141Y578589D02*
X362885Y577845D01*
X362141Y582665D02*
X362141Y578589D01*
Y584395D02*
Y595439D01*
X360680Y596900D02*
X362141Y595439D01*
X250708Y397906D02*
X408066D01*
X231768Y416846D02*
X250708Y397906D01*
X322514Y374000D02*
X322731Y373782D01*
X352842D02*
X353060Y374000D01*
X322731Y373782D02*
X352842D01*
X353060Y374000D02*
X371220D01*
X268944Y535320D02*
Y555964D01*
X371284Y334804D02*
Y347980D01*
X371220Y374000D02*
X388620D01*
X371220Y347980D02*
Y374000D01*
X561340Y269240D02*
Y337820D01*
X369673Y322752D02*
X382219D01*
X388620Y316351D01*
Y312420D02*
Y316351D01*
X368413Y323229D02*
X369282Y322361D01*
X369673Y322752D01*
X530292Y246689D02*
X542031D01*
X596070Y254660D02*
X599000D01*
X587464D02*
X596070D01*
X574027Y268097D02*
Y342913D01*
Y268097D02*
X587464Y254660D01*
X386080Y596900D02*
X388587Y594393D01*
X596070Y254440D02*
X599000D01*
X447040Y543560D02*
X467360Y563880D01*
X447040Y393700D02*
Y543560D01*
X598592Y318972D02*
X599000Y319380D01*
X726440Y342900D02*
X739140D01*
X731196Y284836D02*
X731520Y284512D01*
X721360Y337820D02*
X726440Y342900D01*
X731520Y274320D02*
Y284512D01*
X739140Y342900D02*
Y343560D01*
X619760Y263720D02*
X620200Y264160D01*
X619760Y238760D02*
Y263720D01*
X599000Y300380D02*
X599440Y299940D01*
Y287020D02*
Y299940D01*
X268944Y535320D02*
X269240D01*
X260136D02*
X268944D01*
X242025Y525951D02*
X242245Y526172D01*
X241970Y525897D02*
X242025Y525951D01*
X157480Y479357D02*
Y485736D01*
Y478691D02*
Y479357D01*
X599000Y254440D02*
Y254660D01*
X794541Y311183D02*
X800490Y305234D01*
X794541Y311183D02*
Y323833D01*
X800490Y305234D02*
X807619D01*
X845820Y369464D02*
Y469900D01*
X830586Y349118D02*
Y354230D01*
X845820Y369464D01*
X762000Y327660D02*
X768860D01*
X739140Y304800D02*
X762000Y327660D01*
X731790Y304800D02*
X739140D01*
X731196Y304206D02*
X731790Y304800D01*
X774770Y327730D02*
X783873Y336833D01*
X768930Y327730D02*
X774770D01*
X768860Y327660D02*
X768930Y327730D01*
X783873Y336833D02*
X794657D01*
X268871Y520951D02*
X269240Y521320D01*
X259310Y527212D02*
X259359Y527262D01*
X259310Y520951D02*
Y527212D01*
Y520951D02*
X268871D01*
X242025D02*
X259310D01*
X242245Y526172D02*
X250987D01*
X260136Y535320D01*
X268944Y555964D02*
X309880Y596900D01*
X525309Y226531D02*
X525780Y226060D01*
X509697Y239754D02*
X522920Y226531D01*
X525309D01*
X202145Y471072D02*
Y486823D01*
X206389Y491068D01*
Y491502D01*
X144410Y490888D02*
X157201D01*
X157265Y490951D01*
Y530951D02*
X157360Y530856D01*
X213498Y524415D02*
X213567Y524484D01*
X175532Y524415D02*
X213498D01*
X169090Y530856D02*
X175532Y524415D01*
X157360Y530856D02*
X169090D01*
X227239Y555926D02*
Y565824D01*
X227145Y555831D02*
X227239Y555926D01*
X231226Y569810D02*
X260303D01*
X227239Y565824D02*
X231226Y569810D01*
X227145Y465196D02*
Y471072D01*
X157265Y485951D02*
X157480Y485736D01*
X172145Y471072D02*
X172227Y470989D01*
Y459309D02*
Y470989D01*
Y459309D02*
X172232Y459304D01*
Y418765D02*
Y459304D01*
Y418765D02*
X180192Y410805D01*
X207010Y446171D02*
Y470937D01*
X207145Y471072D01*
X207010Y446171D02*
X207194Y445987D01*
X242079Y495897D02*
X266103D01*
X242025Y495951D02*
X242079Y495897D01*
X268580Y484849D02*
X269332Y484098D01*
X268580Y484849D02*
Y493420D01*
X266103Y495897D02*
X268580Y493420D01*
X242245Y500732D02*
X277223D01*
X242025Y500951D02*
X242245Y500732D01*
X277223D02*
X283832Y494123D01*
X126181Y520897D02*
X157210D01*
X157265Y520951D01*
X116586Y511302D02*
X126181Y520897D01*
X116586Y391922D02*
Y511302D01*
X112036Y387372D02*
X116586Y391922D01*
X90978Y387372D02*
X112036D01*
X313212Y523804D02*
X314010Y524602D01*
X222199Y458086D02*
Y471017D01*
X222145Y471072D02*
X222199Y471017D01*
X137009Y510897D02*
X157210D01*
X157265Y510951D01*
X128524Y502412D02*
X137009Y510897D01*
X128524Y391922D02*
Y502412D01*
X111274Y374672D02*
X128524Y391922D01*
X90978Y374672D02*
X111274D01*
X241806Y515951D02*
X242025D01*
X241786Y515931D02*
X241806Y515951D01*
X174354Y515931D02*
X241786D01*
X174320Y515965D02*
X174354Y515931D01*
X242025Y505951D02*
X242079Y505897D01*
X157265Y495951D02*
X157319Y495897D01*
X165100Y386080D02*
Y478028D01*
X169418Y482346D01*
Y493522D01*
X167043Y495897D02*
X169418Y493522D01*
X157319Y495897D02*
X167043D01*
X131540Y515842D02*
X157155D01*
X157265Y515951D01*
X122428Y506730D02*
X131540Y515842D01*
X122428Y488950D02*
Y506730D01*
X177218Y555905D02*
Y572950D01*
X177145Y555831D02*
X177218Y555905D01*
X256506Y540986D02*
X256540Y541020D01*
X242059Y540986D02*
X256506D01*
X242025Y540951D02*
X242059Y540986D01*
X336550Y517780D02*
X337020D01*
X338248D01*
X799629Y427191D02*
X800100Y426720D01*
X782791Y427191D02*
X799629D01*
X782320Y426720D02*
X782791Y427191D01*
X800100Y426720D02*
X801000Y427620D01*
Y428320D01*
X840740Y485140D02*
X857420D01*
X857600Y485320D01*
X782320Y502920D02*
X822960D01*
X840740Y485140D01*
X774700Y495300D02*
X782320Y502920D01*
X774700Y452120D02*
Y495300D01*
Y452120D02*
X780500Y446320D01*
X801000D01*
X810260Y454660D02*
X816412Y448508D01*
X795387Y375611D02*
X816412Y396636D01*
Y448508D01*
X801000Y446320D02*
X809457Y437863D01*
X756920Y353060D02*
X809457Y405597D01*
Y437863D01*
X820420Y495300D02*
X845820Y469900D01*
X698410Y363310D02*
Y373017D01*
Y363310D02*
X708660Y353060D01*
X756920D01*
X790840Y454660D02*
X810260D01*
X790400Y454220D02*
X790840Y454660D01*
X858520Y418140D02*
Y485140D01*
X857600Y417220D02*
X858520Y418140D01*
X858340Y485320D02*
X858520Y485140D01*
X857600Y485320D02*
X858340D01*
X818160Y482320D02*
X822960Y477520D01*
X801000Y482320D02*
X818160D01*
X822960Y390484D02*
Y477520D01*
X808014Y375538D02*
X822960Y390484D01*
X791428Y495300D02*
X820420D01*
X789940Y473780D02*
Y493812D01*
X791428Y495300D01*
X789940Y473780D02*
X790400Y473320D01*
X713584Y374191D02*
X736319D01*
X739140Y362560D02*
Y371370D01*
X736319Y374191D02*
X739140Y371370D01*
X712410Y373017D02*
X713584Y374191D01*
X808014Y345677D02*
Y375538D01*
X795387Y337563D02*
Y375611D01*
X794657Y336833D02*
X795387Y337563D01*
X805707Y343370D02*
X808014Y345677D01*
X805707Y327517D02*
Y343370D01*
X803851Y325661D02*
X805707Y327517D01*
X803851Y325484D02*
Y325661D01*
X802363Y323996D02*
X803851Y325484D01*
X794704Y323996D02*
X802363D01*
X794541Y323833D02*
X794704Y323996D01*
X157371Y475090D02*
Y478582D01*
X139236Y466445D02*
X140512Y467721D01*
X150154D01*
X153417Y470984D01*
Y471137D01*
X157371Y475090D01*
X165100Y360680D02*
X167640Y358140D01*
X146980Y387877D02*
X148777Y386080D01*
X165100Y360680D02*
Y386080D01*
X148777D02*
X165100D01*
X180192Y410805D02*
X189002D01*
X192225Y358955D02*
X193040Y358140D01*
X138629Y487155D02*
X141828Y490354D01*
X143876D01*
X558800Y76200D02*
X563880Y71120D01*
X577240D01*
X632460Y124460D02*
X632920Y124000D01*
X633660D01*
X577240Y49760D02*
X578740Y48260D01*
X480874Y443684D02*
X482144Y442414D01*
X427191Y347509D02*
X435909D01*
X439342Y336141D02*
Y344077D01*
X435909Y347509D02*
X439342Y344077D01*
X426720Y347980D02*
X427191Y347509D01*
X177666Y40276D02*
X180764Y37177D01*
X279400Y182455D02*
X289446Y192501D01*
X648551Y81763D02*
Y102020D01*
X637267Y103507D02*
X647063D01*
X648551Y102020D01*
X643456Y66383D02*
Y76668D01*
X648551Y81763D01*
X607060Y71120D02*
X620420Y84480D01*
X596240Y71120D02*
X607060D01*
X620420Y84480D02*
X637240D01*
X596240Y73120D02*
Y93980D01*
X577240Y49760D02*
Y71120D01*
X596240D02*
Y73120D01*
X594740Y48260D02*
Y69620D01*
X596240Y71120D01*
X665846Y69773D02*
X674010D01*
X675498Y71261D02*
Y82992D01*
X674010Y69773D02*
X675498Y71261D01*
X663240Y84480D02*
X674010D01*
X675498Y82992D01*
X662178Y66104D02*
X665846Y69773D01*
X660690Y55004D02*
X662178Y56492D01*
X648627Y55004D02*
X660690D01*
X662178Y56492D02*
Y66104D01*
X646321Y52697D02*
X648627Y55004D01*
X646321Y46221D02*
Y52697D01*
X643280Y43180D02*
X646321Y46221D01*
X731704Y323700D02*
X740736D01*
X731196Y324083D02*
Y324208D01*
X511947Y165959D02*
X512324Y165581D01*
X508511Y147034D02*
X512324Y150847D01*
Y165581D01*
X493957Y264553D02*
Y266553D01*
X497687Y270283D01*
X515467Y287512D02*
Y303918D01*
X497687Y270283D02*
X498238D01*
X515467Y287512D01*
X495300Y314302D02*
Y336208D01*
X494755Y313756D02*
X495300Y314302D01*
X515467Y303918D02*
X515755Y304206D01*
X494765Y336743D02*
X495300Y336208D01*
X471730Y430193D02*
X472060Y429863D01*
X492562Y166344D02*
Y200484D01*
Y166344D02*
X492947Y165959D01*
X492562Y200484D02*
X494505Y202427D01*
X467424Y142018D02*
Y147034D01*
X50930Y361580D02*
X50930D01*
X52200Y360310D01*
X54660Y357850D01*
Y355600D02*
Y357850D01*
X35978Y387372D02*
X36000Y387350D01*
X494511Y246826D02*
X500196Y252512D01*
X509312D01*
X494511Y239940D02*
Y246826D01*
Y239940D02*
X494697Y239754D01*
X512031Y263663D02*
X512802Y264434D01*
X512031Y255231D02*
Y263663D01*
X509312Y252512D02*
X512031Y255231D01*
X494765Y336743D02*
X512371D01*
X421349Y315251D02*
X422319Y314281D01*
X419100Y317500D02*
X421349Y315251D01*
X422319Y314281D02*
X441092D01*
X421349Y315251D02*
X422349D01*
X454012Y313178D02*
X455500Y314666D01*
X442194Y313178D02*
X454012D01*
X455500Y314666D02*
Y335983D01*
X441092Y314281D02*
X442194Y313178D01*
X228280Y458086D02*
X228642Y458447D01*
X222199Y458086D02*
X228280D01*
X29250Y513080D02*
X29430Y512900D01*
Y503508D02*
Y512900D01*
Y503508D02*
X34881Y498056D01*
Y462158D02*
Y498056D01*
X35089Y460211D02*
Y461950D01*
X34881Y462158D02*
X35089Y461950D01*
Y460211D02*
X35560Y459740D01*
X316221Y490117D02*
X321332D01*
X332400Y501185D01*
X336319Y518011D02*
X336550Y517780D01*
X338248D02*
X339472Y519004D01*
X337653Y501185D02*
X339472Y503004D01*
X332400Y501185D02*
X337653D01*
X324787Y525625D02*
X332400Y518011D01*
X336319D01*
X314831Y525625D02*
X324787D01*
X313807Y524602D02*
X314831Y525625D01*
X74468Y514390D02*
Y518302D01*
X76200Y520034D01*
Y520700D01*
X74436Y503334D02*
Y514390D01*
X49560D02*
X74468D01*
X48250Y513080D02*
X49560Y514390D01*
X262473Y428487D02*
X292087D01*
X292100Y428500D01*
X35978Y412332D02*
X36068Y412242D01*
X35978Y412332D02*
Y412772D01*
X138629Y481052D02*
X139236Y480445D01*
X138629Y481052D02*
Y487155D01*
X90978Y399823D02*
Y400072D01*
X78188Y412750D02*
X79248D01*
X79270Y412772D01*
X90978D01*
X222199Y449489D02*
Y458086D01*
Y449489D02*
X222870Y448818D01*
X279400Y353060D02*
X279593Y353253D01*
X300187D01*
X350207Y301947D02*
X350520Y302260D01*
X350207Y300776D02*
Y301947D01*
X350401Y322241D02*
X350520Y322122D01*
Y302260D02*
Y322122D01*
X368413Y323229D02*
Y331933D01*
X371284Y334804D01*
X355262Y339170D02*
Y347938D01*
X355220Y347980D02*
X355262Y347938D01*
X269240Y297740D02*
Y307340D01*
Y297740D02*
X274220Y292760D01*
D16*
X301960Y309935D02*
D03*
Y300435D02*
D03*
Y290935D02*
D03*
X327960D02*
D03*
Y309935D02*
D03*
X663240Y84480D02*
D03*
Y93980D02*
D03*
Y103480D02*
D03*
X637240D02*
D03*
Y84480D02*
D03*
D17*
X390002Y433504D02*
D03*
Y528505D02*
D03*
D18*
X527267Y395776D02*
D03*
X538267D02*
D03*
X549267D02*
D03*
X560267D02*
D03*
X571267D02*
D03*
X582267D02*
D03*
X593267D02*
D03*
X604267D02*
D03*
X615267D02*
D03*
X626267D02*
D03*
X637267D02*
D03*
X648267D02*
D03*
X659267D02*
D03*
Y548776D02*
D03*
X648267D02*
D03*
X637267D02*
D03*
X626267D02*
D03*
X615267D02*
D03*
X604267D02*
D03*
X593267D02*
D03*
X582267D02*
D03*
X571267D02*
D03*
X560267D02*
D03*
X549267D02*
D03*
X538267D02*
D03*
D19*
X679267Y428276D02*
D03*
Y439276D02*
D03*
Y450276D02*
D03*
Y461276D02*
D03*
Y472276D02*
D03*
Y483276D02*
D03*
Y494276D02*
D03*
Y505276D02*
D03*
Y516276D02*
D03*
X507267D02*
D03*
Y505276D02*
D03*
Y494276D02*
D03*
Y483276D02*
D03*
Y472276D02*
D03*
Y461276D02*
D03*
Y450276D02*
D03*
Y439276D02*
D03*
Y428276D02*
D03*
D20*
X527267Y548776D02*
D03*
D21*
X561340Y269240D02*
D03*
X542340D02*
D03*
X561340Y246380D02*
D03*
X542340D02*
D03*
X208002Y410805D02*
D03*
X189002D02*
D03*
X577240Y93980D02*
D03*
X596240D02*
D03*
X662280Y43180D02*
D03*
X643280D02*
D03*
X662456Y66383D02*
D03*
X643456D02*
D03*
X207194Y445987D02*
D03*
X188194D02*
D03*
X279400Y353060D02*
D03*
X260400D02*
D03*
X93320Y434340D02*
D03*
X74320D02*
D03*
X110440Y353060D02*
D03*
X91440D02*
D03*
X74320Y459740D02*
D03*
X93320D02*
D03*
X54660Y332223D02*
D03*
X73660D02*
D03*
Y355600D02*
D03*
X54660D02*
D03*
X29250Y513080D02*
D03*
X48250D02*
D03*
X369282Y322361D02*
D03*
X350281D02*
D03*
X350207Y300776D02*
D03*
X369207D02*
D03*
X319380Y353060D02*
D03*
X300380D02*
D03*
D22*
X599000Y273660D02*
D03*
Y254660D02*
D03*
X620200Y264160D02*
D03*
X599000Y319380D02*
D03*
Y300380D02*
D03*
X620200Y309880D02*
D03*
D23*
X541640Y210820D02*
D03*
X555640D02*
D03*
X712410Y373017D02*
D03*
X698410D02*
D03*
X480874Y443684D02*
D03*
X466874D02*
D03*
Y461295D02*
D03*
X480874D02*
D03*
X88468Y503301D02*
D03*
X74468D02*
D03*
X166766Y574040D02*
D03*
X152766D02*
D03*
X222870Y448818D02*
D03*
X236870D02*
D03*
D24*
X639359Y308619D02*
D03*
Y292619D02*
D03*
X422349Y315251D02*
D03*
Y299251D02*
D03*
X339472Y503004D02*
D03*
Y519004D02*
D03*
D25*
X642366Y273660D02*
D03*
Y254660D02*
D03*
X739140Y343560D02*
D03*
Y362560D02*
D03*
X146980Y406877D02*
D03*
Y387877D02*
D03*
X35647Y313950D02*
D03*
Y294950D02*
D03*
D26*
X157265Y490951D02*
D03*
Y485951D02*
D03*
Y495951D02*
D03*
Y500951D02*
D03*
Y505951D02*
D03*
Y510951D02*
D03*
Y515951D02*
D03*
Y520951D02*
D03*
Y525951D02*
D03*
Y530951D02*
D03*
Y535951D02*
D03*
Y540951D02*
D03*
X242025D02*
D03*
Y535951D02*
D03*
Y530951D02*
D03*
Y525951D02*
D03*
Y520951D02*
D03*
Y515951D02*
D03*
Y510951D02*
D03*
Y505951D02*
D03*
Y500951D02*
D03*
Y495951D02*
D03*
Y490951D02*
D03*
Y485951D02*
D03*
D27*
X227145Y471072D02*
D03*
X222145D02*
D03*
X217145D02*
D03*
X212145D02*
D03*
X207145D02*
D03*
X202145D02*
D03*
X197145D02*
D03*
X192145D02*
D03*
X187145D02*
D03*
X182145D02*
D03*
X177145D02*
D03*
X172145D02*
D03*
Y555831D02*
D03*
X177145D02*
D03*
X182145D02*
D03*
X187145D02*
D03*
X192145D02*
D03*
X197145D02*
D03*
X202145D02*
D03*
X207145D02*
D03*
X212145D02*
D03*
X217145D02*
D03*
X222145D02*
D03*
X227145D02*
D03*
D28*
X790400Y437320D02*
D03*
Y454220D02*
D03*
Y473320D02*
D03*
X801000Y446320D02*
D03*
Y464320D02*
D03*
Y482320D02*
D03*
Y428320D02*
D03*
D29*
X857600Y417220D02*
D03*
Y485320D02*
D03*
D30*
X755100Y402320D02*
D03*
Y508320D02*
D03*
X835100Y402320D02*
D03*
Y508320D02*
D03*
D31*
X370840Y268820D02*
D03*
Y279820D02*
D03*
D32*
X593640Y187960D02*
D03*
X656040D02*
D03*
D33*
X177666Y131276D02*
D03*
Y40276D02*
D03*
D34*
X247740Y43180D02*
D03*
X290740D02*
D03*
D35*
X255446Y85751D02*
D03*
X272446D02*
D03*
X289446D02*
D03*
X306446D02*
D03*
X323446D02*
D03*
D36*
X289446Y192501D02*
D03*
D37*
X337271Y217901D02*
D03*
X241621D02*
D03*
D38*
X577240Y71120D02*
D03*
X596240D02*
D03*
X493957Y264553D02*
D03*
X512957D02*
D03*
X492947Y165959D02*
D03*
X511947D02*
D03*
D39*
X594740Y48260D02*
D03*
X578740D02*
D03*
X371220Y347980D02*
D03*
X355220D02*
D03*
D40*
X601253Y133874D02*
D03*
X584853D02*
D03*
X617260Y124000D02*
D03*
X633660D02*
D03*
X617260Y144320D02*
D03*
X633660D02*
D03*
X278820Y266700D02*
D03*
X295220D02*
D03*
X278820Y246380D02*
D03*
X295220D02*
D03*
X328240D02*
D03*
X311840D02*
D03*
D41*
X768860Y327660D02*
D03*
Y321060D02*
D03*
X807619Y305234D02*
D03*
Y298634D02*
D03*
D42*
X494755Y313756D02*
D03*
Y294656D02*
D03*
X515755Y304206D02*
D03*
X462092Y304731D02*
D03*
X441092Y295181D02*
D03*
Y314281D02*
D03*
D43*
X224000Y241300D02*
D03*
X207800D02*
D03*
D44*
X731196Y284836D02*
D03*
X715196D02*
D03*
X731196Y304206D02*
D03*
X715196D02*
D03*
X731196Y324083D02*
D03*
X715196D02*
D03*
X455342Y336141D02*
D03*
X439342D02*
D03*
X512371Y336743D02*
D03*
X528371D02*
D03*
X494765D02*
D03*
X478765D02*
D03*
D45*
X814541Y336833D02*
D03*
Y330333D02*
D03*
Y323833D02*
D03*
X794541D02*
D03*
Y330333D02*
D03*
Y336833D02*
D03*
D46*
X509697Y239754D02*
D03*
X494697D02*
D03*
D47*
X472060Y429863D02*
D03*
X465460D02*
D03*
X830586Y349118D02*
D03*
X837186D02*
D03*
D48*
X322514Y388000D02*
D03*
Y374000D02*
D03*
X353060Y388000D02*
D03*
Y374000D02*
D03*
X388620Y388000D02*
D03*
Y374000D02*
D03*
X269240Y521320D02*
D03*
Y535320D02*
D03*
X139236Y480445D02*
D03*
Y466445D02*
D03*
D49*
X314010Y487906D02*
D03*
Y471906D02*
D03*
Y524602D02*
D03*
Y540602D02*
D03*
X292100Y444500D02*
D03*
Y428500D02*
D03*
X262473Y444487D02*
D03*
Y428487D02*
D03*
D50*
X46310Y489860D02*
D03*
Y444860D02*
D03*
X24810Y489860D02*
D03*
Y444860D02*
D03*
D51*
X35978Y374672D02*
D03*
Y387372D02*
D03*
Y400072D02*
D03*
Y412772D02*
D03*
X90978D02*
D03*
Y400072D02*
D03*
Y387372D02*
D03*
Y374672D02*
D03*
D52*
X269332Y484098D02*
D03*
X283832D02*
D03*
D53*
X175260Y290280D02*
D03*
Y227880D02*
D03*
D54*
X527383Y590013D02*
D03*
D55*
X542133Y605262D02*
D03*
X512633D02*
D03*
D56*
X426921Y183498D02*
D03*
X364921D02*
D03*
D57*
X350624Y280387D02*
D03*
Y259387D02*
D03*
D58*
X269240Y307340D02*
D03*
X236740D02*
D03*
X704299Y98370D02*
D03*
X736799D02*
D03*
D59*
X133250Y157480D02*
D03*
X120750D02*
D03*
D60*
X513505Y202427D02*
D03*
X494505D02*
D03*
D61*
X416560Y35320D02*
D03*
Y132320D02*
D03*
D113*
X269240Y307340D02*
X285645Y290935D01*
X301960D01*
X328046Y250587D02*
Y290849D01*
X327960Y290935D02*
X328046Y290849D01*
X678899Y450644D02*
X679267Y450276D01*
X668343Y450842D02*
X668542Y450644D01*
X644348Y450842D02*
X668343D01*
X668542Y450644D02*
X678899D01*
X388620Y289520D02*
Y312420D01*
X378920Y279820D02*
X388620Y289520D01*
X370840Y279820D02*
X378920D01*
X256154Y252388D02*
X266441Y242102D01*
X250494Y253846D02*
X251953Y252388D01*
X256154D01*
X528579Y336951D02*
X549547D01*
X549561Y336936D01*
X528371Y336743D02*
X528579Y336951D01*
X466100Y444457D02*
X466874Y443684D01*
X278820Y244262D02*
Y246380D01*
X266441Y242102D02*
X276660D01*
X278820Y244262D01*
Y248382D02*
Y266700D01*
X306446Y85751D02*
Y115946D01*
X324445Y133945D02*
X415317D01*
X306446Y115946D02*
X324445Y133945D01*
X43180Y332740D02*
X55880D01*
X328046Y250587D02*
X331670Y246963D01*
X175260Y290280D02*
Y311197D01*
X142240Y344217D02*
Y358140D01*
Y344217D02*
X175260Y311197D01*
X462418Y304404D02*
X476717D01*
X462092Y304731D02*
X462418Y304404D01*
X73660Y332223D02*
X100465D01*
X115554Y227314D02*
Y317134D01*
X100465Y332223D02*
X115554Y317134D01*
X35942Y387335D02*
X35978Y387372D01*
X18323Y380207D02*
X25451Y387335D01*
X18323Y337656D02*
Y380207D01*
X25451Y387335D02*
X35942D01*
X34181Y315416D02*
X35647Y313950D01*
X34181Y315416D02*
Y321798D01*
X18323Y337656D02*
X34181Y321798D01*
Y315416D02*
X37861Y311736D01*
X52200Y360310D02*
Y385118D01*
X36805Y293792D02*
X46603D01*
X35647Y294950D02*
X36805Y293792D01*
X71185Y177735D02*
X87044D01*
X56403Y192517D02*
X71185Y177735D01*
X56403Y192517D02*
Y283991D01*
X46603Y293792D02*
X56403Y283991D01*
X37861Y311736D02*
X52844D01*
X86939Y254040D02*
Y277641D01*
X52844Y311736D02*
X86939Y277641D01*
X36000Y387350D02*
X49968D01*
X52200Y385118D01*
X278820Y266700D02*
Y267080D01*
X34869Y358635D02*
Y373962D01*
Y341051D02*
Y358635D01*
X47270Y512100D02*
X48250Y513080D01*
X47270Y490820D02*
Y512100D01*
X46310Y489860D02*
X47270Y490820D01*
X71563Y357697D02*
X73660Y355600D01*
X61277Y375602D02*
X71563Y365317D01*
Y357697D02*
Y365317D01*
X61277Y375602D02*
Y395923D01*
X73660Y332223D02*
Y355600D01*
X36000Y400050D02*
X57150D01*
X35978Y400072D02*
X36000Y400050D01*
X90978Y399823D02*
X91440Y399362D01*
X90978Y387620D02*
X91440Y388082D01*
Y399362D01*
X90978Y387372D02*
Y387620D01*
X34869Y373962D02*
X35579Y374672D01*
X35978D01*
X57150Y400050D02*
X61277Y395923D01*
X104075Y215835D02*
X115554Y227314D01*
X87044Y215835D02*
X104075D01*
X34869Y341051D02*
X43180Y332740D01*
X55363Y332223D02*
X55880Y332740D01*
X54660Y332223D02*
X55363D01*
X416560Y132320D02*
X416942D01*
X241300Y269240D02*
X276660D01*
X236740Y273800D02*
X241300Y269240D01*
X276660D02*
X278820Y267080D01*
X133322Y140417D02*
Y157408D01*
X415317Y133945D02*
X426921Y145550D01*
Y183498D01*
X331670Y246963D02*
X394169D01*
X426921Y183498D02*
Y214211D01*
X394169Y246963D02*
X426921Y214211D01*
D114*
X527267Y548776D02*
Y589896D01*
D115*
X289740Y43180D02*
X327660D01*
X414288Y37592D02*
X416560Y35320D01*
X333248Y37592D02*
X414288D01*
X327660Y43180D02*
X333248Y37592D01*
X175120Y131276D02*
X229404D01*
X255446Y85751D02*
Y105234D01*
X229404Y131276D02*
X255446Y105234D01*
X177666Y131276D02*
Y136287D01*
X133322Y140417D02*
X173536D01*
X177666Y136287D01*
X272446Y60474D02*
Y85751D01*
Y60474D02*
X289740Y43180D01*
X87826Y140417D02*
X133322D01*
D116*
X664029Y104269D02*
X701859D01*
X704448Y98519D02*
Y101680D01*
X663240Y103480D02*
X664029Y104269D01*
X701859D02*
X704448Y101680D01*
X585743Y117823D02*
Y132984D01*
X593670Y109896D02*
X618396D01*
X585743Y117823D02*
X593670Y109896D01*
X584853Y133874D02*
X585743Y132984D01*
X624812Y103480D02*
X637240D01*
X618396Y109896D02*
X624812Y103480D01*
D117*
X415317Y133945D02*
X416942Y132320D01*
X175747Y290467D02*
X203109D01*
X219982Y307340D02*
X236740D01*
X203109Y290467D02*
X219982Y307340D01*
X236740Y273800D02*
Y306620D01*
Y256290D02*
Y273800D01*
X416942Y132320D02*
X419100Y130162D01*
Y101600D02*
Y130162D01*
X418652Y101152D02*
X419100Y101600D01*
X418652Y98639D02*
Y101152D01*
X224000Y243550D02*
X236740Y256290D01*
X224000Y241300D02*
Y243550D01*
D118*
X584853Y133874D02*
Y139896D01*
X577715Y147034D02*
X584853Y139896D01*
X508511Y147034D02*
X577715D01*
X472440D02*
X508511D01*
X467424Y142018D02*
X472440Y147034D01*
X457727Y132320D02*
X467424Y142018D01*
X416942Y132320D02*
X457727D01*
D119*
X35560Y459740D02*
X74320D01*
X90978Y374672D02*
X91440Y374210D01*
Y353060D02*
Y374210D01*
X69461Y401320D02*
X89482D01*
X62394Y408386D02*
Y429819D01*
Y408386D02*
X69461Y401320D01*
X74140Y434160D02*
X74320Y434340D01*
X66735Y434160D02*
X74140D01*
X62394Y429819D02*
X66735Y434160D01*
X129540Y358140D02*
X142240D01*
X124460Y353060D02*
X129540Y358140D01*
X110440Y353060D02*
X124460D01*
X104140Y459740D02*
X109220Y454660D01*
X93320Y459740D02*
X104140D01*
X109220Y416560D02*
Y454660D01*
X105432Y412772D02*
X109220Y416560D01*
X93980Y411480D02*
X95272Y412772D01*
X105432D01*
X92688D02*
X93980Y411480D01*
X90978Y412772D02*
X92688D01*
X77415Y448900D02*
X79275Y447040D01*
X90229Y437431D02*
Y445180D01*
X79275Y447040D02*
X88369D01*
X77415Y448900D02*
Y456645D01*
X88369Y447040D02*
X90229Y445180D01*
Y437431D02*
X93320Y434340D01*
X74320Y459740D02*
X77415Y456645D01*
D120*
X88458Y139635D02*
X88458Y139635D01*
X87044Y139635D02*
X88458D01*
D121*
X469900Y190500D02*
D03*
Y165100D02*
D03*
Y215900D02*
D03*
Y241300D02*
D03*
X266700Y213360D02*
D03*
Y172720D02*
D03*
X292100D02*
D03*
X317500D02*
D03*
X292100Y190500D02*
D03*
X266700D02*
D03*
X317500Y193040D02*
D03*
Y213360D02*
D03*
X292100D02*
D03*
X533400Y114300D02*
D03*
Y88900D02*
D03*
Y63500D02*
D03*
Y38100D02*
D03*
X510540Y114300D02*
D03*
Y88900D02*
D03*
X508000Y63500D02*
D03*
Y38100D02*
D03*
X800100Y101600D02*
D03*
X825500D02*
D03*
X850900D02*
D03*
Y127000D02*
D03*
X825500D02*
D03*
X800100D02*
D03*
Y152400D02*
D03*
X825500D02*
D03*
X850900D02*
D03*
X800100Y177800D02*
D03*
X825500D02*
D03*
X850900D02*
D03*
Y203200D02*
D03*
X825500D02*
D03*
X800100D02*
D03*
Y228600D02*
D03*
X825500D02*
D03*
X850900D02*
D03*
Y254000D02*
D03*
X825500D02*
D03*
X800100D02*
D03*
D122*
X309880Y596900D02*
D03*
X335280D02*
D03*
X360680D02*
D03*
X386080D02*
D03*
X87044Y139635D02*
D03*
Y177735D02*
D03*
Y253935D02*
D03*
Y215835D02*
D03*
D123*
X411480Y596900D02*
D03*
D124*
X50800Y50800D02*
D03*
Y584200D02*
D03*
X838200Y50800D02*
D03*
Y584200D02*
D03*
D125*
X142240Y358140D02*
D03*
X167640D02*
D03*
X193040D02*
D03*
X218440D02*
D03*
D126*
X239688Y464790D02*
D03*
X194381Y537882D02*
D03*
X165526Y563111D02*
D03*
X657067Y261704D02*
D03*
X675734Y225048D02*
D03*
X587756Y377952D02*
D03*
X644627Y475377D02*
D03*
X644245Y450946D02*
D03*
X615333Y528436D02*
D03*
X646630Y489228D02*
D03*
X571985Y203880D02*
D03*
X199909Y428314D02*
D03*
X835377Y411583D02*
D03*
X819136Y315031D02*
D03*
X388620Y312420D02*
D03*
X530292Y246689D02*
D03*
X444500Y563880D02*
D03*
X706120Y447040D02*
D03*
X721360Y337820D02*
D03*
X731520Y274320D02*
D03*
X619760Y238760D02*
D03*
X599440Y287020D02*
D03*
X259359Y527262D02*
D03*
X549561Y336936D02*
D03*
X525780Y226060D02*
D03*
X206389Y491502D02*
D03*
X256540Y541020D02*
D03*
X231768Y416846D02*
D03*
X782320Y426720D02*
D03*
X260303Y569810D02*
D03*
X157480Y479357D02*
D03*
X213567Y524484D02*
D03*
X144347Y490825D02*
D03*
X558800Y76200D02*
D03*
X650240Y124460D02*
D03*
X426720Y347980D02*
D03*
X740736Y323700D02*
D03*
X476717Y304404D02*
D03*
X228642Y458447D02*
D03*
X35560Y459740D02*
D03*
X76200Y520700D02*
D03*
X177292Y573024D02*
D03*
X174320Y515965D02*
D03*
X122428Y488950D02*
D03*
X78188Y412750D02*
D03*
D127*
X250494Y253846D02*
D03*
X765444Y301612D02*
D03*
X490220Y581660D02*
D03*
X563822Y598943D02*
D03*
Y581755D02*
D03*
X563626Y614426D02*
D03*
X545074Y581664D02*
D03*
X510540Y581660D02*
D03*
X490220Y596900D02*
D03*
Y612140D02*
D03*
X106680Y25400D02*
D03*
Y40640D02*
D03*
Y60960D02*
D03*
Y81280D02*
D03*
Y101600D02*
D03*
X84422Y99854D02*
D03*
X34869Y358635D02*
D03*
X418652Y98639D02*
D03*
M02*
