G04*
G04 #@! TF.GenerationSoftware,Altium Limited,Altium Designer,23.0.1 (38)*
G04*
G04 Layer_Color=16711935*
%FSLAX44Y44*%
%MOMM*%
G71*
G04*
G04 #@! TF.SameCoordinates,185929F6-D6CA-45C1-83F6-0EDFB83A3BC2*
G04*
G04*
G04 #@! TF.FilePolarity,Negative*
G04*
G01*
G75*
%ADD108C,1.7272*%
%ADD109C,2.3032*%
%ADD110R,2.3032X2.3032*%
%ADD111C,7.4032*%
%ADD112C,1.8382*%
D108*
X469900Y190500D02*
D03*
Y165100D02*
D03*
Y215900D02*
D03*
Y241300D02*
D03*
X266700Y213360D02*
D03*
Y172720D02*
D03*
X292100D02*
D03*
X317500D02*
D03*
X292100Y190500D02*
D03*
X266700D02*
D03*
X317500Y193040D02*
D03*
Y213360D02*
D03*
X292100D02*
D03*
X533400Y114300D02*
D03*
Y88900D02*
D03*
Y63500D02*
D03*
Y38100D02*
D03*
X510540Y114300D02*
D03*
Y88900D02*
D03*
X508000Y63500D02*
D03*
Y38100D02*
D03*
X800100Y101600D02*
D03*
X825500D02*
D03*
X850900D02*
D03*
Y127000D02*
D03*
X825500D02*
D03*
X800100D02*
D03*
Y152400D02*
D03*
X825500D02*
D03*
X850900D02*
D03*
X800100Y177800D02*
D03*
X825500D02*
D03*
X850900D02*
D03*
Y203200D02*
D03*
X825500D02*
D03*
X800100D02*
D03*
Y228600D02*
D03*
X825500D02*
D03*
X850900D02*
D03*
Y254000D02*
D03*
X825500D02*
D03*
X800100D02*
D03*
D109*
X309880Y596900D02*
D03*
X335280D02*
D03*
X360680D02*
D03*
X386080D02*
D03*
X87044Y139635D02*
D03*
Y177735D02*
D03*
Y253935D02*
D03*
Y215835D02*
D03*
D110*
X411480Y596900D02*
D03*
D111*
X50800Y50800D02*
D03*
Y584200D02*
D03*
X838200Y50800D02*
D03*
Y584200D02*
D03*
D112*
X142240Y358140D02*
D03*
X167640D02*
D03*
X193040D02*
D03*
X218440D02*
D03*
M02*
