G04*
G04 #@! TF.GenerationSoftware,Altium Limited,Altium Designer,23.0.1 (38)*
G04*
G04 Layer_Color=65535*
%FSLAX44Y44*%
%MOMM*%
G71*
G04*
G04 #@! TF.SameCoordinates,185929F6-D6CA-45C1-83F6-0EDFB83A3BC2*
G04*
G04*
G04 #@! TF.FilePolarity,Positive*
G04*
G01*
G75*
%ADD10C,0.1000*%
%ADD11C,0.2000*%
%ADD12C,0.2500*%
%ADD13C,0.4000*%
%ADD14C,0.1270*%
%ADD15C,0.2540*%
D10*
X390002Y401005D02*
G03*
X390002Y400005I0J-500D01*
G01*
D02*
G03*
X390002Y401005I0J500D01*
G01*
X790400Y395320D02*
G03*
X790400Y396320I0J500D01*
G01*
D02*
G03*
X790400Y395320I0J-500D01*
G01*
X286990Y306340D02*
G03*
X285990Y306340I-500J0D01*
G01*
D02*
G03*
X286990Y306340I500J0D01*
G01*
D02*
G03*
X285990Y306340I-500J0D01*
G01*
X686549Y99370D02*
G03*
X687549Y99370I500J0D01*
G01*
D02*
G03*
X686549Y99370I-500J0D01*
G01*
D02*
G03*
X687549Y99370I500J0D01*
G01*
X141000Y157480D02*
G03*
X140000Y157480I-500J0D01*
G01*
D02*
G03*
X141000Y157480I500J0D01*
G01*
X504767Y393276D02*
Y551276D01*
X681767D01*
Y393276D02*
Y551276D01*
X504767Y393276D02*
X681767D01*
X588340Y209460D02*
X661340D01*
X588340Y166460D02*
X661340D01*
X230440Y342940D02*
Y373340D01*
X129540D02*
X230440D01*
X129540Y342940D02*
Y373340D01*
Y342940D02*
X230440D01*
X51560Y446610D02*
Y488360D01*
X19560Y446610D02*
Y488360D01*
X196760Y222580D02*
Y295580D01*
X153760Y222580D02*
Y295580D01*
D11*
X588100Y273660D02*
G03*
X588100Y273660I-1000J0D01*
G01*
Y319380D02*
G03*
X588100Y319380I-1000J0D01*
G01*
X672540Y187960D02*
G03*
X672540Y187960I-500J0D01*
G01*
X256956Y64851D02*
G03*
X256956Y64851I-1260J0D01*
G01*
X603740Y48260D02*
G03*
X603740Y48260I-500J0D01*
G01*
X314510Y463406D02*
G03*
X314510Y463406I-500J0D01*
G01*
Y549101D02*
G03*
X314510Y549101I-500J0D01*
G01*
X292600Y420000D02*
G03*
X292600Y420000I-500J0D01*
G01*
X262973Y419987D02*
G03*
X262973Y419987I-500J0D01*
G01*
X47560Y498360D02*
G03*
X45560Y498360I-1000J0D01*
G01*
D02*
G03*
X47560Y498360I1000J0D01*
G01*
X293582Y484098D02*
G03*
X292582Y484098I-500J0D01*
G01*
D02*
G03*
X293582Y484098I500J0D01*
G01*
D02*
G03*
X292582Y484098I-500J0D01*
G01*
X175760Y306280D02*
G03*
X175760Y306280I-500J0D01*
G01*
X527383Y577142D02*
G03*
X527383Y578143I0J500D01*
G01*
D02*
G03*
X527383Y577142I0J-500D01*
G01*
X347220Y347980D02*
G03*
X347220Y347980I-500J0D01*
G01*
X311460Y315185D02*
X318460D01*
Y285685D02*
Y315185D01*
X311460Y285685D02*
X318460D01*
X311460D02*
Y315185D01*
X295960Y315435D02*
X307960D01*
X365502Y424005D02*
X376002D01*
X365502D02*
Y538004D01*
X376002D01*
X404002Y424005D02*
X414502D01*
Y538004D01*
X404002D02*
X414502D01*
X493267Y381776D02*
Y397276D01*
Y381776D02*
X508767D01*
X493267Y387776D02*
X499267Y381776D01*
X493267Y393776D02*
X505267Y381776D01*
X551840Y263990D02*
Y274490D01*
X294680Y582900D02*
X411480D01*
X294680D02*
Y610900D01*
X426680D01*
Y596900D02*
Y610900D01*
X551840Y241130D02*
Y251630D01*
X636359Y300619D02*
X642359D01*
X637116Y264160D02*
X647616D01*
X231145Y481951D02*
Y544952D01*
X168145D02*
X231145D01*
X168145Y481951D02*
Y544952D01*
Y481951D02*
X231145D01*
X733890Y353060D02*
X744390D01*
X765350Y401820D02*
X825350D01*
X845350D02*
X872600D01*
Y508820D01*
X845350D02*
X872600D01*
X765350D02*
X825350D01*
X738100D02*
X745350D01*
X738100Y401820D02*
Y508820D01*
Y401820D02*
X745350D01*
X141730Y397377D02*
X152230D01*
X198502Y405555D02*
Y416055D01*
X229166Y34276D02*
Y153776D01*
X126166Y34276D02*
Y111526D01*
X242890Y61280D02*
X295590D01*
X242890Y25080D02*
X300990D01*
X238646Y123961D02*
X340246D01*
Y202801D01*
X238646Y123961D02*
Y202801D01*
X586740Y88730D02*
Y99230D01*
Y65870D02*
Y76370D01*
X593053Y128624D02*
Y139123D01*
X652780Y37930D02*
Y48430D01*
X646740Y79230D02*
X653740D01*
X646740D02*
Y108730D01*
X653740D01*
Y79230D02*
Y108730D01*
X657240Y78980D02*
X669240D01*
X652956Y61133D02*
Y71633D01*
X625460Y118750D02*
Y129250D01*
Y139070D02*
Y149570D01*
X504505Y318806D02*
X506005D01*
Y289606D02*
Y318806D01*
X504505Y289606D02*
X506005D01*
X504505D02*
Y318806D01*
X488505Y319256D02*
X501005D01*
X723196Y281836D02*
Y287836D01*
Y301206D02*
Y307206D01*
Y321083D02*
Y327083D01*
X789041Y342333D02*
X800041D01*
X803541Y320083D02*
Y340583D01*
Y320083D02*
X805541D01*
Y340583D01*
X803541D02*
X805541D01*
X447341Y333141D02*
Y339141D01*
X520371Y333743D02*
Y339743D01*
X486447Y231504D02*
X509697D01*
X486447D02*
Y248004D01*
X509697D01*
X486765Y333743D02*
Y339743D01*
X503457Y259303D02*
Y269803D01*
X419349Y307251D02*
X425349D01*
X434842Y319781D02*
X447342D01*
X450842Y290131D02*
Y319331D01*
Y290131D02*
X452342D01*
Y319331D01*
X450842D02*
X452342D01*
X336472Y511004D02*
X342472D01*
X197694Y440737D02*
Y451237D01*
X269900Y347810D02*
Y358310D01*
X83228Y367922D02*
X98728D01*
X79728Y369122D02*
Y418322D01*
X47228D02*
X79728D01*
X47228Y369122D02*
Y418322D01*
Y369122D02*
X79728D01*
X83820Y429090D02*
Y439590D01*
X100940Y347810D02*
Y358310D01*
X83820Y454490D02*
Y464990D01*
X30396Y304450D02*
X40897D01*
X64160Y326973D02*
Y337473D01*
Y350350D02*
Y360850D01*
X38750Y507830D02*
Y518330D01*
X100044Y144685D02*
Y172685D01*
Y182785D02*
Y210785D01*
Y220885D02*
Y248885D01*
Y259885D02*
Y279935D01*
X6044D02*
X100044D01*
X6044Y113635D02*
Y279935D01*
Y113635D02*
X100044D01*
Y133685D01*
X522383Y618262D02*
X532383D01*
X522383D02*
X532383D01*
X527383Y577142D02*
Y578143D01*
X359421Y161748D02*
X438421D01*
X359421Y205248D02*
X432421D01*
X360874Y259387D02*
Y287887D01*
X340374D02*
X360874D01*
X340374Y259387D02*
Y287887D01*
X280490Y280840D02*
Y333840D01*
X225490Y280840D02*
X280490D01*
X225490D02*
Y333840D01*
X280990D01*
X693049Y71870D02*
Y124870D01*
X748049D01*
Y71870D02*
Y124870D01*
X692549Y71870D02*
X748049D01*
X502447Y160709D02*
Y171209D01*
X494005Y196177D02*
X518755D01*
X494005Y208677D02*
X514005D01*
X359782Y317111D02*
Y327611D01*
X359707Y295526D02*
Y306026D01*
X309880Y347810D02*
Y358310D01*
X287020Y261450D02*
Y271950D01*
Y241130D02*
Y251630D01*
X320040Y241130D02*
Y251630D01*
D12*
X248145Y478451D02*
G03*
X248145Y478451I-1250J0D01*
G01*
D13*
X76044Y267885D02*
G03*
X76044Y267885I-1000J0D01*
G01*
D14*
X616100Y249660D02*
Y257960D01*
Y270360D02*
Y278660D01*
X608350D02*
X616100D01*
X608350Y249660D02*
X616100D01*
Y295380D02*
Y303680D01*
Y316080D02*
Y324380D01*
X608350D02*
X616100D01*
X608350Y295380D02*
X616100D01*
D15*
X354060Y21320D02*
Y146320D01*
X479060Y21320D02*
Y146320D01*
X446560D02*
X479060D01*
X354060D02*
X386560D01*
X354060Y21320D02*
X386560D01*
X446560D02*
X479060D01*
X606076Y98228D02*
X608615D01*
X607345D01*
Y90610D01*
X606076D01*
X608615D01*
X617502Y96958D02*
X616233Y98228D01*
X613693D01*
X612424Y96958D01*
Y91880D01*
X613693Y90610D01*
X616233D01*
X617502Y91880D01*
X620041Y96958D02*
X621311Y98228D01*
X623850D01*
X625120Y96958D01*
Y95689D01*
X623850Y94419D01*
X622580D01*
X623850D01*
X625120Y93149D01*
Y91880D01*
X623850Y90610D01*
X621311D01*
X620041Y91880D01*
X397620Y491161D02*
X395081D01*
X390002Y486083D01*
X395081Y481004D01*
X397620D01*
X390002Y486083D02*
X382385D01*
Y475926D02*
Y470848D01*
Y473387D01*
X397620D01*
X395081Y475926D01*
X599654Y240664D02*
Y233258D01*
X601135Y231776D01*
X604098D01*
X605579Y233258D01*
Y240664D01*
X608541Y239182D02*
X610022Y240664D01*
X612985D01*
X614466Y239182D01*
Y237701D01*
X612985Y236220D01*
X611504D01*
X612985D01*
X614466Y234739D01*
Y233258D01*
X612985Y231776D01*
X610022D01*
X608541Y233258D01*
X596043Y342213D02*
Y334807D01*
X597524Y333326D01*
X600486D01*
X601968Y334807D01*
Y342213D01*
X610855Y333326D02*
X604930D01*
X610855Y339251D01*
Y340732D01*
X609374Y342213D01*
X606411D01*
X604930Y340732D01*
X638136Y231776D02*
Y240664D01*
X642580D01*
X644061Y239182D01*
Y236220D01*
X642580Y234739D01*
X638136D01*
X641099D02*
X644061Y231776D01*
X647024Y239182D02*
X648505Y240664D01*
X651467D01*
X652948Y239182D01*
Y237701D01*
X651467Y236220D01*
X649986D01*
X651467D01*
X652948Y234739D01*
Y233258D01*
X651467Y231776D01*
X648505D01*
X647024Y233258D01*
X660354Y231776D02*
Y240664D01*
X655911Y236220D01*
X661835D01*
X623498Y322709D02*
Y331596D01*
X627942D01*
X629423Y330115D01*
Y327153D01*
X627942Y325672D01*
X623498D01*
X626460D02*
X629423Y322709D01*
X632385Y330115D02*
X633867Y331596D01*
X636829D01*
X638310Y330115D01*
Y328634D01*
X636829Y327153D01*
X635348D01*
X636829D01*
X638310Y325672D01*
Y324190D01*
X636829Y322709D01*
X633867D01*
X632385Y324190D01*
X641272Y330115D02*
X642754Y331596D01*
X645716D01*
X647197Y330115D01*
Y328634D01*
X645716Y327153D01*
X644235D01*
X645716D01*
X647197Y325672D01*
Y324190D01*
X645716Y322709D01*
X642754D01*
X641272Y324190D01*
X536791Y282576D02*
Y291464D01*
X541234D01*
X542715Y289982D01*
Y287020D01*
X541234Y285539D01*
X536791D01*
X539753D02*
X542715Y282576D01*
X545678Y289982D02*
X547159Y291464D01*
X550121D01*
X551602Y289982D01*
Y288501D01*
X550121Y287020D01*
X548640D01*
X550121D01*
X551602Y285539D01*
Y284058D01*
X550121Y282576D01*
X547159D01*
X545678Y284058D01*
X560490Y282576D02*
X554565D01*
X560490Y288501D01*
Y289982D01*
X559008Y291464D01*
X556046D01*
X554565Y289982D01*
X536791Y224156D02*
Y233044D01*
X541234D01*
X542715Y231562D01*
Y228600D01*
X541234Y227119D01*
X536791D01*
X539753D02*
X542715Y224156D01*
X551602D02*
X545678D01*
X551602Y230081D01*
Y231562D01*
X550121Y233044D01*
X547159D01*
X545678Y231562D01*
X559008Y224156D02*
Y233044D01*
X554565Y228600D01*
X560490D01*
X272839Y596264D02*
X269876D01*
X271358D01*
Y588858D01*
X269876Y587376D01*
X268395D01*
X266914Y588858D01*
X281726Y596264D02*
X275801D01*
Y591820D01*
X278764Y593301D01*
X280245D01*
X281726Y591820D01*
Y588858D01*
X280245Y587376D01*
X277282D01*
X275801Y588858D01*
X545255Y198542D02*
X543774Y200024D01*
X540812D01*
X539330Y198542D01*
Y192618D01*
X540812Y191136D01*
X543774D01*
X545255Y192618D01*
X548218Y198542D02*
X549699Y200024D01*
X552661D01*
X554142Y198542D01*
Y197061D01*
X552661Y195580D01*
X551180D01*
X552661D01*
X554142Y194099D01*
Y192618D01*
X552661Y191136D01*
X549699D01*
X548218Y192618D01*
X557105Y198542D02*
X558586Y200024D01*
X561548D01*
X563030Y198542D01*
Y197061D01*
X561548Y195580D01*
X560067D01*
X561548D01*
X563030Y194099D01*
Y192618D01*
X561548Y191136D01*
X558586D01*
X557105Y192618D01*
X137916Y417919D02*
Y426806D01*
X142359D01*
X143841Y425325D01*
Y422363D01*
X142359Y420882D01*
X137916D01*
X140878D02*
X143841Y417919D01*
X146803D02*
X149765D01*
X148284D01*
Y426806D01*
X146803Y425325D01*
X160134Y426806D02*
X154209D01*
Y422363D01*
X157171Y423844D01*
X158652D01*
X160134Y422363D01*
Y419401D01*
X158652Y417919D01*
X155690D01*
X154209Y419401D01*
X187262Y388805D02*
Y397692D01*
X191705D01*
X193187Y396211D01*
Y393248D01*
X191705Y391767D01*
X187262D01*
X190224D02*
X193187Y388805D01*
X202074D02*
X196149D01*
X202074Y394729D01*
Y396211D01*
X200592Y397692D01*
X197630D01*
X196149Y396211D01*
X205036D02*
X206517Y397692D01*
X209480D01*
X210961Y396211D01*
Y394729D01*
X209480Y393248D01*
X207998D01*
X209480D01*
X210961Y391767D01*
Y390286D01*
X209480Y388805D01*
X206517D01*
X205036Y390286D01*
X188536Y520435D02*
X191498D01*
X190017D01*
Y511548D01*
X188536D01*
X191498D01*
X201866Y518954D02*
X200385Y520435D01*
X197423D01*
X195942Y518954D01*
Y513029D01*
X197423Y511548D01*
X200385D01*
X201866Y513029D01*
X209272Y511548D02*
Y520435D01*
X204829Y515992D01*
X210754D01*
X28436Y431379D02*
X26955Y432860D01*
X23992D01*
X22511Y431379D01*
Y429898D01*
X23992Y428417D01*
X26955D01*
X28436Y426936D01*
Y425454D01*
X26955Y423973D01*
X23992D01*
X22511Y425454D01*
X31398Y423973D02*
X34361D01*
X32879D01*
Y432860D01*
X31398Y431379D01*
X269346Y515061D02*
Y513580D01*
X272308Y510618D01*
X275271Y513580D01*
Y515061D01*
X272308Y510618D02*
Y506174D01*
X284158D02*
X278233D01*
X284158Y512099D01*
Y513580D01*
X282676Y515061D01*
X279714D01*
X278233Y513580D01*
X580057Y579622D02*
Y572216D01*
X581538Y570735D01*
X584500D01*
X585981Y572216D01*
Y579622D01*
X588944Y570735D02*
X591906D01*
X590425D01*
Y579622D01*
X588944Y578141D01*
X475249Y348113D02*
Y357001D01*
X479693D01*
X481174Y355519D01*
Y352557D01*
X479693Y351076D01*
X475249D01*
X478212D02*
X481174Y348113D01*
X484136Y355519D02*
X485617Y357001D01*
X488580D01*
X490061Y355519D01*
Y354038D01*
X488580Y352557D01*
X487099D01*
X488580D01*
X490061Y351076D01*
Y349595D01*
X488580Y348113D01*
X485617D01*
X484136Y349595D01*
X493023Y348113D02*
X495986D01*
X494505D01*
Y357001D01*
X493023Y355519D01*
X677809Y321507D02*
Y330395D01*
X682252D01*
X683733Y328913D01*
Y325951D01*
X682252Y324470D01*
X677809D01*
X680771D02*
X683733Y321507D01*
X686696Y328913D02*
X688177Y330395D01*
X691139D01*
X692620Y328913D01*
Y327432D01*
X691139Y325951D01*
X689658D01*
X691139D01*
X692620Y324470D01*
Y322989D01*
X691139Y321507D01*
X688177D01*
X686696Y322989D01*
X695583Y328913D02*
X697064Y330395D01*
X700026D01*
X701508Y328913D01*
Y322989D01*
X700026Y321507D01*
X697064D01*
X695583Y322989D01*
Y328913D01*
X678103Y280626D02*
Y289513D01*
X682546D01*
X684027Y288032D01*
Y285070D01*
X682546Y283589D01*
X678103D01*
X681065D02*
X684027Y280626D01*
X692915D02*
X686990D01*
X692915Y286551D01*
Y288032D01*
X691433Y289513D01*
X688471D01*
X686990Y288032D01*
X695877Y282107D02*
X697358Y280626D01*
X700320D01*
X701802Y282107D01*
Y288032D01*
X700320Y289513D01*
X697358D01*
X695877Y288032D01*
Y286551D01*
X697358Y285070D01*
X701802D01*
X491032Y275804D02*
Y284691D01*
X495475D01*
X496956Y283210D01*
Y280248D01*
X495475Y278767D01*
X491032D01*
X493994D02*
X496956Y275804D01*
X505844D02*
X499919D01*
X505844Y281729D01*
Y283210D01*
X504362Y284691D01*
X501400D01*
X499919Y283210D01*
X508806D02*
X510287Y284691D01*
X513249D01*
X514731Y283210D01*
Y281729D01*
X513249Y280248D01*
X514731Y278767D01*
Y277285D01*
X513249Y275804D01*
X510287D01*
X508806Y277285D01*
Y278767D01*
X510287Y280248D01*
X508806Y281729D01*
Y283210D01*
X510287Y280248D02*
X513249D01*
X505888Y347823D02*
Y356710D01*
X510332D01*
X511813Y355229D01*
Y352267D01*
X510332Y350785D01*
X505888D01*
X508851D02*
X511813Y347823D01*
X520700D02*
X514776D01*
X520700Y353748D01*
Y355229D01*
X519219Y356710D01*
X516257D01*
X514776Y355229D01*
X523663Y356710D02*
X529588D01*
Y355229D01*
X523663Y349304D01*
Y347823D01*
X677869Y300243D02*
Y309130D01*
X682313D01*
X683794Y307649D01*
Y304686D01*
X682313Y303205D01*
X677869D01*
X680832D02*
X683794Y300243D01*
X692681D02*
X686756D01*
X692681Y306168D01*
Y307649D01*
X691200Y309130D01*
X688237D01*
X686756Y307649D01*
X701568Y309130D02*
X698606Y307649D01*
X695643Y304686D01*
Y301724D01*
X697124Y300243D01*
X700087D01*
X701568Y301724D01*
Y303205D01*
X700087Y304686D01*
X695643D01*
X754808Y354569D02*
Y363456D01*
X759252D01*
X760733Y361975D01*
Y359013D01*
X759252Y357532D01*
X754808D01*
X757770D02*
X760733Y354569D01*
X769620D02*
X763695D01*
X769620Y360494D01*
Y361975D01*
X768139Y363456D01*
X765176D01*
X763695Y361975D01*
X778507Y363456D02*
X772582D01*
Y359013D01*
X775545Y360494D01*
X777026D01*
X778507Y359013D01*
Y356050D01*
X777026Y354569D01*
X774063D01*
X772582Y356050D01*
X412948Y275646D02*
Y284533D01*
X417392D01*
X418873Y283052D01*
Y280090D01*
X417392Y278609D01*
X412948D01*
X415911D02*
X418873Y275646D01*
X427760D02*
X421836D01*
X427760Y281571D01*
Y283052D01*
X426279Y284533D01*
X423317D01*
X421836Y283052D01*
X436647Y275646D02*
X430723D01*
X436647Y281571D01*
Y283052D01*
X435166Y284533D01*
X432204D01*
X430723Y283052D01*
X438001Y347533D02*
Y356420D01*
X442445D01*
X443926Y354939D01*
Y351976D01*
X442445Y350495D01*
X438001D01*
X440964D02*
X443926Y347533D01*
X452813D02*
X446888D01*
X452813Y353458D01*
Y354939D01*
X451332Y356420D01*
X448369D01*
X446888Y354939D01*
X455775Y347533D02*
X458738D01*
X457257D01*
Y356420D01*
X455775Y354939D01*
X186555Y426312D02*
Y435199D01*
X190999D01*
X192480Y433718D01*
Y430756D01*
X190999Y429274D01*
X186555D01*
X189517D02*
X192480Y426312D01*
X201367D02*
X195442D01*
X201367Y432237D01*
Y433718D01*
X199886Y435199D01*
X196923D01*
X195442Y433718D01*
X204329D02*
X205811Y435199D01*
X208773D01*
X210254Y433718D01*
Y427793D01*
X208773Y426312D01*
X205811D01*
X204329Y427793D01*
Y433718D01*
X382602Y268825D02*
Y277712D01*
X387046D01*
X388527Y276231D01*
Y273268D01*
X387046Y271787D01*
X382602D01*
X385565D02*
X388527Y268825D01*
X391489D02*
X394452D01*
X392971D01*
Y277712D01*
X391489Y276231D01*
X398895Y270306D02*
X400377Y268825D01*
X403339D01*
X404820Y270306D01*
Y276231D01*
X403339Y277712D01*
X400377D01*
X398895Y276231D01*
Y274750D01*
X400377Y273268D01*
X404820D01*
X342560Y470209D02*
X333673D01*
Y474653D01*
X335154Y476134D01*
X338117D01*
X339598Y474653D01*
Y470209D01*
Y473171D02*
X342560Y476134D01*
Y479096D02*
Y482058D01*
Y480577D01*
X333673D01*
X335154Y479096D01*
Y486502D02*
X333673Y487983D01*
Y490946D01*
X335154Y492427D01*
X336635D01*
X338117Y490946D01*
X339598Y492427D01*
X341079D01*
X342560Y490946D01*
Y487983D01*
X341079Y486502D01*
X339598D01*
X338117Y487983D01*
X336635Y486502D01*
X335154D01*
X338117Y487983D02*
Y490946D01*
X73405Y477463D02*
Y486350D01*
X77848D01*
X79330Y484869D01*
Y481906D01*
X77848Y480425D01*
X73405D01*
X76367D02*
X79330Y477463D01*
X82292D02*
X85254D01*
X83773D01*
Y486350D01*
X82292Y484869D01*
X89698Y486350D02*
X95623D01*
Y484869D01*
X89698Y478944D01*
Y477463D01*
X42231Y429896D02*
Y438784D01*
X46675D01*
X48156Y437302D01*
Y434340D01*
X46675Y432859D01*
X42231D01*
X45194D02*
X48156Y429896D01*
X51118D02*
X54081D01*
X52599D01*
Y438784D01*
X51118Y437302D01*
X64449Y438784D02*
X61487Y437302D01*
X58524Y434340D01*
Y431378D01*
X60005Y429896D01*
X62968D01*
X64449Y431378D01*
Y432859D01*
X62968Y434340D01*
X58524D01*
X90491Y330836D02*
Y339724D01*
X94935D01*
X96416Y338242D01*
Y335280D01*
X94935Y333799D01*
X90491D01*
X93454D02*
X96416Y330836D01*
X99378D02*
X102341D01*
X100859D01*
Y339724D01*
X99378Y338242D01*
X111228Y330836D02*
Y339724D01*
X106784Y335280D01*
X112709D01*
X51752Y312448D02*
Y321335D01*
X56195D01*
X57677Y319854D01*
Y316892D01*
X56195Y315411D01*
X51752D01*
X54714D02*
X57677Y312448D01*
X60639D02*
X63601D01*
X62120D01*
Y321335D01*
X60639Y319854D01*
X68045D02*
X69526Y321335D01*
X72488D01*
X73970Y319854D01*
Y318373D01*
X72488Y316892D01*
X71007D01*
X72488D01*
X73970Y315411D01*
Y313929D01*
X72488Y312448D01*
X69526D01*
X68045Y313929D01*
X59067Y283483D02*
Y292370D01*
X63510D01*
X64991Y290889D01*
Y287927D01*
X63510Y286446D01*
X59067D01*
X62029D02*
X64991Y283483D01*
X67954D02*
X70916D01*
X69435D01*
Y292370D01*
X67954Y290889D01*
X81285Y283483D02*
X75360D01*
X81285Y289408D01*
Y290889D01*
X79803Y292370D01*
X76841D01*
X75360Y290889D01*
X26195Y340286D02*
Y349173D01*
X30639D01*
X32120Y347692D01*
Y344729D01*
X30639Y343248D01*
X26195D01*
X29158D02*
X32120Y340286D01*
X35083D02*
X38045D01*
X36564D01*
Y349173D01*
X35083Y347692D01*
X42489Y340286D02*
X45451D01*
X43970D01*
Y349173D01*
X42489Y347692D01*
X641345Y22057D02*
Y32213D01*
X646424D01*
X648116Y30521D01*
Y27135D01*
X646424Y25442D01*
X641345D01*
X644731D02*
X648116Y22057D01*
X651502D02*
X654887D01*
X653195D01*
Y32213D01*
X651502Y30521D01*
X659966D02*
X661659Y32213D01*
X665044D01*
X666737Y30521D01*
Y23749D01*
X665044Y22057D01*
X661659D01*
X659966Y23749D01*
Y30521D01*
X623747Y73730D02*
X633904D01*
Y68652D01*
X632211Y66959D01*
X628825D01*
X627133Y68652D01*
Y73730D01*
Y70345D02*
X623747Y66959D01*
X625440Y63574D02*
X623747Y61881D01*
Y58495D01*
X625440Y56802D01*
X632211D01*
X633904Y58495D01*
Y61881D01*
X632211Y63574D01*
X630518D01*
X628825Y61881D01*
Y56802D01*
X548854Y89536D02*
Y98424D01*
X553298D01*
X554779Y96942D01*
Y93980D01*
X553298Y92499D01*
X548854D01*
X551816D02*
X554779Y89536D01*
X557741Y96942D02*
X559222Y98424D01*
X562185D01*
X563666Y96942D01*
Y95461D01*
X562185Y93980D01*
X563666Y92499D01*
Y91018D01*
X562185Y89536D01*
X559222D01*
X557741Y91018D01*
Y92499D01*
X559222Y93980D01*
X557741Y95461D01*
Y96942D01*
X559222Y93980D02*
X562185D01*
X33915Y525608D02*
Y534495D01*
X38358D01*
X39839Y533014D01*
Y530052D01*
X38358Y528571D01*
X33915D01*
X36877D02*
X39839Y525608D01*
X42802Y534495D02*
X48727D01*
Y533014D01*
X42802Y527089D01*
Y525608D01*
X548854Y66676D02*
Y75564D01*
X553298D01*
X554779Y74082D01*
Y71120D01*
X553298Y69639D01*
X548854D01*
X551816D02*
X554779Y66676D01*
X563666Y75564D02*
X560704Y74082D01*
X557741Y71120D01*
Y68158D01*
X559222Y66676D01*
X562185D01*
X563666Y68158D01*
Y69639D01*
X562185Y71120D01*
X557741D01*
X383144Y309744D02*
Y318632D01*
X387588D01*
X389069Y317150D01*
Y314188D01*
X387588Y312707D01*
X383144D01*
X386107D02*
X389069Y309744D01*
X397956Y318632D02*
X392032D01*
Y314188D01*
X394994Y315669D01*
X396475D01*
X397956Y314188D01*
Y311226D01*
X396475Y309744D01*
X393513D01*
X392032Y311226D01*
X383144Y295238D02*
Y304126D01*
X387588D01*
X389069Y302644D01*
Y299682D01*
X387588Y298201D01*
X383144D01*
X386107D02*
X389069Y295238D01*
X396475D02*
Y304126D01*
X392032Y299682D01*
X397956D01*
X311119Y366182D02*
Y375069D01*
X315563D01*
X317044Y373588D01*
Y370626D01*
X315563Y369145D01*
X311119D01*
X314082D02*
X317044Y366182D01*
X320006Y373588D02*
X321488Y375069D01*
X324450D01*
X325931Y373588D01*
Y372107D01*
X324450Y370626D01*
X322969D01*
X324450D01*
X325931Y369145D01*
Y367663D01*
X324450Y366182D01*
X321488D01*
X320006Y367663D01*
X247151Y366938D02*
Y375825D01*
X251595D01*
X253076Y374344D01*
Y371382D01*
X251595Y369900D01*
X247151D01*
X250114D02*
X253076Y366938D01*
X261963D02*
X256038D01*
X261963Y372863D01*
Y374344D01*
X260482Y375825D01*
X257519D01*
X256038Y374344D01*
X495829Y140599D02*
Y149486D01*
X500273D01*
X501754Y148005D01*
Y145042D01*
X500273Y143561D01*
X495829D01*
X498792D02*
X501754Y140599D01*
X504716D02*
X507679D01*
X506198D01*
Y149486D01*
X504716Y148005D01*
X474865Y290405D02*
Y296330D01*
X473384Y297811D01*
X470421D01*
X468940Y296330D01*
Y290405D01*
X470421Y288924D01*
X473384D01*
X471903Y291886D02*
X474865Y288924D01*
X473384D02*
X474865Y290405D01*
X483752Y288924D02*
X477827D01*
X483752Y294849D01*
Y296330D01*
X482271Y297811D01*
X479308D01*
X477827Y296330D01*
X450846Y276542D02*
Y282467D01*
X449365Y283948D01*
X446403D01*
X444921Y282467D01*
Y276542D01*
X446403Y275061D01*
X449365D01*
X447884Y278023D02*
X450846Y275061D01*
X449365D02*
X450846Y276542D01*
X453809Y275061D02*
X456771D01*
X455290D01*
Y283948D01*
X453809Y282467D01*
X488067Y222959D02*
Y214072D01*
X493992D01*
X502879Y222959D02*
X496954D01*
Y214072D01*
X502879D01*
X496954Y218515D02*
X499916D01*
X505841Y222959D02*
Y214072D01*
X510285D01*
X511766Y215553D01*
Y221478D01*
X510285Y222959D01*
X505841D01*
X514728Y221478D02*
X516210Y222959D01*
X519172D01*
X520653Y221478D01*
Y219996D01*
X519172Y218515D01*
X517691D01*
X519172D01*
X520653Y217034D01*
Y215553D01*
X519172Y214072D01*
X516210D01*
X514728Y215553D01*
X338735Y251924D02*
Y243036D01*
X344659D01*
X353546Y251924D02*
X347622D01*
Y243036D01*
X353546D01*
X347622Y247480D02*
X350584D01*
X356509Y251924D02*
Y243036D01*
X360952D01*
X362434Y244518D01*
Y250442D01*
X360952Y251924D01*
X356509D01*
X371321Y243036D02*
X365396D01*
X371321Y248961D01*
Y250442D01*
X369840Y251924D01*
X366877D01*
X365396Y250442D01*
X489335Y188207D02*
Y179320D01*
X495260D01*
X504147Y188207D02*
X498222D01*
Y179320D01*
X504147D01*
X498222Y183764D02*
X501184D01*
X507109Y188207D02*
Y179320D01*
X511553D01*
X513034Y180802D01*
Y186726D01*
X511553Y188207D01*
X507109D01*
X515996Y179320D02*
X518959D01*
X517477D01*
Y188207D01*
X515996Y186726D01*
X695153Y65348D02*
Y50113D01*
X705310D01*
X710388Y62808D02*
X712927Y65348D01*
X718006D01*
X720545Y62808D01*
Y60269D01*
X718006Y57730D01*
X715467D01*
X718006D01*
X720545Y55191D01*
Y52652D01*
X718006Y50113D01*
X712927D01*
X710388Y52652D01*
X200193Y313786D02*
Y304899D01*
X206117D01*
X215004D02*
X209080D01*
X215004Y310824D01*
Y312305D01*
X213523Y313786D01*
X210561D01*
X209080Y312305D01*
X336461Y32670D02*
Y23783D01*
X342385D01*
X345348D02*
X348310D01*
X346829D01*
Y32670D01*
X345348Y31189D01*
X584623Y611544D02*
X581661D01*
X583142D01*
Y604139D01*
X581661Y602657D01*
X580180D01*
X578699Y604139D01*
X592029Y602657D02*
Y611544D01*
X587586Y607101D01*
X593511D01*
X871802Y539781D02*
Y544859D01*
Y542320D01*
X859106D01*
X856567Y544859D01*
Y547399D01*
X859106Y549938D01*
X869262Y534703D02*
X871802Y532164D01*
Y527085D01*
X869262Y524546D01*
X866723D01*
X864184Y527085D01*
Y529624D01*
Y527085D01*
X861645Y524546D01*
X859106D01*
X856567Y527085D01*
Y532164D01*
X859106Y534703D01*
X140759Y335914D02*
X137796D01*
X139278D01*
Y328508D01*
X137796Y327026D01*
X136315D01*
X134834Y328508D01*
X149646Y327026D02*
X143721D01*
X149646Y332951D01*
Y334432D01*
X148165Y335914D01*
X145202D01*
X143721Y334432D01*
X25776Y106292D02*
X22813D01*
X24294D01*
Y98886D01*
X22813Y97405D01*
X21332D01*
X19851Y98886D01*
X28738Y97405D02*
X31700D01*
X30219D01*
Y106292D01*
X28738Y104811D01*
X788329Y355154D02*
X791291D01*
X789810D01*
Y346267D01*
X788329D01*
X791291D01*
X801660Y353673D02*
X800178Y355154D01*
X797216D01*
X795735Y353673D01*
Y347748D01*
X797216Y346267D01*
X800178D01*
X801660Y347748D01*
X810547Y355154D02*
X807584Y353673D01*
X804622Y350711D01*
Y347748D01*
X806103Y346267D01*
X809065D01*
X810547Y347748D01*
Y349230D01*
X809065Y350711D01*
X804622D01*
X16149Y370000D02*
Y372962D01*
Y371481D01*
X25037D01*
Y370000D01*
Y372962D01*
X17631Y383331D02*
X16149Y381849D01*
Y378887D01*
X17631Y377406D01*
X23555D01*
X25037Y378887D01*
Y381849D01*
X23555Y383331D01*
X16149Y392218D02*
Y386293D01*
X20593D01*
X19112Y389255D01*
Y390737D01*
X20593Y392218D01*
X23555D01*
X25037Y390737D01*
Y387774D01*
X23555Y386293D01*
X304610Y332863D02*
X307573D01*
X306091D01*
Y323976D01*
X304610D01*
X307573D01*
X317941Y331382D02*
X316460Y332863D01*
X313497D01*
X312016Y331382D01*
Y325457D01*
X313497Y323976D01*
X316460D01*
X317941Y325457D01*
X326828Y323976D02*
X320903D01*
X326828Y329900D01*
Y331382D01*
X325347Y332863D01*
X322384D01*
X320903Y331382D01*
X211352Y182244D02*
X214315D01*
X212833D01*
Y173356D01*
X211352D01*
X214315D01*
X224683Y180762D02*
X223202Y182244D01*
X220239D01*
X218758Y180762D01*
Y174838D01*
X220239Y173356D01*
X223202D01*
X224683Y174838D01*
X227645Y173356D02*
X230608D01*
X229126D01*
Y182244D01*
X227645Y180762D01*
X119594Y146684D02*
Y137796D01*
X124038D01*
X125519Y139278D01*
Y145202D01*
X124038Y146684D01*
X119594D01*
X134406Y137796D02*
X128481D01*
X134406Y143721D01*
Y145202D01*
X132925Y146684D01*
X129962D01*
X128481Y145202D01*
X215670Y29421D02*
Y20534D01*
X220113D01*
X221594Y22015D01*
Y27940D01*
X220113Y29421D01*
X215670D01*
X224557Y20534D02*
X227519D01*
X226038D01*
Y29421D01*
X224557Y27940D01*
X760733Y343522D02*
X759252Y345003D01*
X756290D01*
X754808Y343522D01*
Y337597D01*
X756290Y336116D01*
X759252D01*
X760733Y337597D01*
X763696Y343522D02*
X765177Y345003D01*
X768139D01*
X769620Y343522D01*
Y342041D01*
X768139Y340560D01*
X766658D01*
X768139D01*
X769620Y339078D01*
Y337597D01*
X768139Y336116D01*
X765177D01*
X763696Y337597D01*
X778508Y336116D02*
X772583D01*
X778508Y342041D01*
Y343522D01*
X777026Y345003D01*
X774064D01*
X772583Y343522D01*
X804346Y286612D02*
X802865Y288094D01*
X799902D01*
X798421Y286612D01*
Y280688D01*
X799902Y279206D01*
X802865D01*
X804346Y280688D01*
X807308Y286612D02*
X808789Y288094D01*
X811752D01*
X813233Y286612D01*
Y285131D01*
X811752Y283650D01*
X810270D01*
X811752D01*
X813233Y282169D01*
Y280688D01*
X811752Y279206D01*
X808789D01*
X807308Y280688D01*
X816195Y279206D02*
X819158D01*
X817676D01*
Y288094D01*
X816195Y286612D01*
X850939Y352350D02*
X849458Y353832D01*
X846496D01*
X845015Y352350D01*
Y346426D01*
X846496Y344944D01*
X849458D01*
X850939Y346426D01*
X853902Y352350D02*
X855383Y353832D01*
X858345D01*
X859827Y352350D01*
Y350869D01*
X858345Y349388D01*
X856864D01*
X858345D01*
X859827Y347907D01*
Y346426D01*
X858345Y344944D01*
X855383D01*
X853902Y346426D01*
X862789Y352350D02*
X864270Y353832D01*
X867233D01*
X868714Y352350D01*
Y346426D01*
X867233Y344944D01*
X864270D01*
X862789Y346426D01*
Y352350D01*
X671209Y376189D02*
X669728Y377671D01*
X666766D01*
X665285Y376189D01*
Y370265D01*
X666766Y368783D01*
X669728D01*
X671209Y370265D01*
X680097Y368783D02*
X674172D01*
X680097Y374708D01*
Y376189D01*
X678615Y377671D01*
X675653D01*
X674172Y376189D01*
X683059Y370265D02*
X684540Y368783D01*
X687503D01*
X688984Y370265D01*
Y376189D01*
X687503Y377671D01*
X684540D01*
X683059Y376189D01*
Y374708D01*
X684540Y373227D01*
X688984D01*
X310562Y438244D02*
X309080Y436763D01*
Y433800D01*
X310562Y432319D01*
X316486D01*
X317967Y433800D01*
Y436763D01*
X316486Y438244D01*
X317967Y447131D02*
Y441206D01*
X312043Y447131D01*
X310562D01*
X309080Y445650D01*
Y442688D01*
X310562Y441206D01*
Y450093D02*
X309080Y451575D01*
Y454537D01*
X310562Y456018D01*
X312043D01*
X313524Y454537D01*
X315005Y456018D01*
X316486D01*
X317967Y454537D01*
Y451575D01*
X316486Y450093D01*
X315005D01*
X313524Y451575D01*
X312043Y450093D01*
X310562D01*
X313524Y451575D02*
Y454537D01*
X308091Y566015D02*
X306610Y567496D01*
X303648D01*
X302167Y566015D01*
Y560091D01*
X303648Y558609D01*
X306610D01*
X308091Y560091D01*
X316978Y558609D02*
X311054D01*
X316978Y564534D01*
Y566015D01*
X315497Y567496D01*
X312535D01*
X311054Y566015D01*
X319941Y567496D02*
X325866D01*
Y566015D01*
X319941Y560091D01*
Y558609D01*
X286164Y410700D02*
X284683Y412181D01*
X281720D01*
X280239Y410700D01*
Y404775D01*
X281720Y403294D01*
X284683D01*
X286164Y404775D01*
X295051Y403294D02*
X289126D01*
X295051Y409219D01*
Y410700D01*
X293570Y412181D01*
X290607D01*
X289126Y410700D01*
X303938Y412181D02*
X300976Y410700D01*
X298013Y407738D01*
Y404775D01*
X299495Y403294D01*
X302457D01*
X303938Y404775D01*
Y406256D01*
X302457Y407738D01*
X298013D01*
X75323Y519904D02*
X73841Y521385D01*
X70879D01*
X69398Y519904D01*
Y513979D01*
X70879Y512498D01*
X73841D01*
X75323Y513979D01*
X84210Y512498D02*
X78285D01*
X84210Y518423D01*
Y519904D01*
X82729Y521385D01*
X79766D01*
X78285Y519904D01*
X93097Y521385D02*
X87172D01*
Y516941D01*
X90134Y518423D01*
X91616D01*
X93097Y516941D01*
Y513979D01*
X91616Y512498D01*
X88653D01*
X87172Y513979D01*
X364133Y375678D02*
X362652Y374197D01*
Y371235D01*
X364133Y369754D01*
X370058D01*
X371539Y371235D01*
Y374197D01*
X370058Y375678D01*
X371539Y384566D02*
Y378641D01*
X365614Y384566D01*
X364133D01*
X362652Y383084D01*
Y380122D01*
X364133Y378641D01*
X371539Y391971D02*
X362652D01*
X367095Y387528D01*
Y393453D01*
X334567Y374188D02*
X333086Y372707D01*
Y369745D01*
X334567Y368264D01*
X340492D01*
X341973Y369745D01*
Y372707D01*
X340492Y374188D01*
X341973Y383076D02*
Y377151D01*
X336048Y383076D01*
X334567D01*
X333086Y381594D01*
Y378632D01*
X334567Y377151D01*
Y386038D02*
X333086Y387519D01*
Y390482D01*
X334567Y391963D01*
X336048D01*
X337529Y390482D01*
Y389000D01*
Y390482D01*
X339011Y391963D01*
X340492D01*
X341973Y390482D01*
Y387519D01*
X340492Y386038D01*
X389307Y364245D02*
X387826Y365727D01*
X384864D01*
X383382Y364245D01*
Y358321D01*
X384864Y356839D01*
X387826D01*
X389307Y358321D01*
X398194Y356839D02*
X392270D01*
X398194Y362764D01*
Y364245D01*
X396713Y365727D01*
X393751D01*
X392270Y364245D01*
X407081Y356839D02*
X401157D01*
X407081Y362764D01*
Y364245D01*
X405600Y365727D01*
X402638D01*
X401157Y364245D01*
X211290Y227169D02*
X209808Y228650D01*
X206846D01*
X205365Y227169D01*
Y221244D01*
X206846Y219763D01*
X209808D01*
X211290Y221244D01*
X220177Y219763D02*
X214252D01*
X220177Y225688D01*
Y227169D01*
X218695Y228650D01*
X215733D01*
X214252Y227169D01*
X223139Y219763D02*
X226101D01*
X224620D01*
Y228650D01*
X223139Y227169D01*
X255940Y410128D02*
X254459Y411609D01*
X251497D01*
X250016Y410128D01*
Y404203D01*
X251497Y402722D01*
X254459D01*
X255940Y404203D01*
X264827Y402722D02*
X258903D01*
X264827Y408647D01*
Y410128D01*
X263346Y411609D01*
X260384D01*
X258903Y410128D01*
X267790D02*
X269271Y411609D01*
X272233D01*
X273715Y410128D01*
Y404203D01*
X272233Y402722D01*
X269271D01*
X267790Y404203D01*
Y410128D01*
X587586Y152962D02*
X586105Y154443D01*
X583142D01*
X581661Y152962D01*
Y147037D01*
X583142Y145556D01*
X586105D01*
X587586Y147037D01*
X590548Y145556D02*
X593511D01*
X592029D01*
Y154443D01*
X590548Y152962D01*
X597954Y147037D02*
X599435Y145556D01*
X602398D01*
X603879Y147037D01*
Y152962D01*
X602398Y154443D01*
X599435D01*
X597954Y152962D01*
Y151481D01*
X599435Y149999D01*
X603879D01*
X647487Y146869D02*
X646217Y148139D01*
X643678D01*
X642409Y146869D01*
Y141791D01*
X643678Y140522D01*
X646217D01*
X647487Y141791D01*
X650026Y140522D02*
X652565D01*
X651296D01*
Y148139D01*
X650026Y146869D01*
X656374D02*
X657644Y148139D01*
X660183D01*
X661452Y146869D01*
Y145600D01*
X660183Y144330D01*
X661452Y143061D01*
Y141791D01*
X660183Y140522D01*
X657644D01*
X656374Y141791D01*
Y143061D01*
X657644Y144330D01*
X656374Y145600D01*
Y146869D01*
X657644Y144330D02*
X660183D01*
X662268Y131200D02*
X660999Y132469D01*
X658459D01*
X657190Y131200D01*
Y126121D01*
X658459Y124852D01*
X660999D01*
X662268Y126121D01*
X664807Y124852D02*
X667347D01*
X666077D01*
Y132469D01*
X664807Y131200D01*
X671155Y132469D02*
X676234D01*
Y131200D01*
X671155Y126121D01*
Y124852D01*
X439316Y447462D02*
X437835Y448944D01*
X434872D01*
X433391Y447462D01*
Y441538D01*
X434872Y440056D01*
X437835D01*
X439316Y441538D01*
X442278Y440056D02*
X445241D01*
X443759D01*
Y448944D01*
X442278Y447462D01*
X455609Y448944D02*
X452646Y447462D01*
X449684Y444500D01*
Y441538D01*
X451165Y440056D01*
X454128D01*
X455609Y441538D01*
Y443019D01*
X454128Y444500D01*
X449684D01*
X440521Y432751D02*
X439039Y434232D01*
X436077D01*
X434596Y432751D01*
Y426826D01*
X436077Y425345D01*
X439039D01*
X440521Y426826D01*
X443483Y425345D02*
X446446D01*
X444964D01*
Y434232D01*
X443483Y432751D01*
X456814Y434232D02*
X450889D01*
Y429788D01*
X453851Y431269D01*
X455333D01*
X456814Y429788D01*
Y426826D01*
X455333Y425345D01*
X452370D01*
X450889Y426826D01*
X439312Y465480D02*
X437831Y466962D01*
X434869D01*
X433388Y465480D01*
Y459556D01*
X434869Y458074D01*
X437831D01*
X439312Y459556D01*
X442275Y458074D02*
X445237D01*
X443756D01*
Y466962D01*
X442275Y465480D01*
X454124Y458074D02*
Y466962D01*
X449681Y462518D01*
X455606D01*
X545996Y51222D02*
X544515Y52704D01*
X541552D01*
X540071Y51222D01*
Y45298D01*
X541552Y43816D01*
X544515D01*
X545996Y45298D01*
X548958Y43816D02*
X551921D01*
X550439D01*
Y52704D01*
X548958Y51222D01*
X556364D02*
X557845Y52704D01*
X560808D01*
X562289Y51222D01*
Y49741D01*
X560808Y48260D01*
X559327D01*
X560808D01*
X562289Y46779D01*
Y45298D01*
X560808Y43816D01*
X557845D01*
X556364Y45298D01*
X685584Y178312D02*
X684103Y176831D01*
Y173869D01*
X685584Y172388D01*
X691509D01*
X692990Y173869D01*
Y176831D01*
X691509Y178312D01*
X692990Y181275D02*
Y184237D01*
Y182756D01*
X684103D01*
X685584Y181275D01*
X692990Y194605D02*
Y188681D01*
X687066Y194605D01*
X685584D01*
X684103Y193124D01*
Y190162D01*
X685584Y188681D01*
X285218Y531936D02*
X286700Y533417D01*
Y536379D01*
X285218Y537860D01*
X279293D01*
X277812Y536379D01*
Y533417D01*
X279293Y531936D01*
X277812Y528973D02*
Y526011D01*
Y527492D01*
X286700D01*
X285218Y528973D01*
X277812Y521567D02*
Y518605D01*
Y520086D01*
X286700D01*
X285218Y521567D01*
X224644Y436841D02*
X223163Y438322D01*
X220201D01*
X218719Y436841D01*
Y430916D01*
X220201Y429435D01*
X223163D01*
X224644Y430916D01*
X227607Y429435D02*
X230569D01*
X229088D01*
Y438322D01*
X227607Y436841D01*
X235012D02*
X236494Y438322D01*
X239456D01*
X240937Y436841D01*
Y430916D01*
X239456Y429435D01*
X236494D01*
X235012Y430916D01*
Y436841D01*
X151514Y471964D02*
X150032Y470482D01*
Y467520D01*
X151514Y466039D01*
X157438D01*
X158919Y467520D01*
Y470482D01*
X157438Y471964D01*
Y474926D02*
X158919Y476407D01*
Y479370D01*
X157438Y480851D01*
X151514D01*
X150032Y479370D01*
Y476407D01*
X151514Y474926D01*
X152995D01*
X154476Y476407D01*
Y480851D01*
X148633Y564048D02*
X147152Y565530D01*
X144189D01*
X142708Y564048D01*
Y558124D01*
X144189Y556642D01*
X147152D01*
X148633Y558124D01*
X151595Y564048D02*
X153076Y565530D01*
X156039D01*
X157520Y564048D01*
Y562567D01*
X156039Y561086D01*
X157520Y559605D01*
Y558124D01*
X156039Y556642D01*
X153076D01*
X151595Y558124D01*
Y559605D01*
X153076Y561086D01*
X151595Y562567D01*
Y564048D01*
X153076Y561086D02*
X156039D01*
X176319Y196002D02*
X174838Y197484D01*
X171875D01*
X170394Y196002D01*
Y190078D01*
X171875Y188596D01*
X174838D01*
X176319Y190078D01*
X179281Y197484D02*
X185206D01*
Y196002D01*
X179281Y190078D01*
Y188596D01*
X313773Y270296D02*
X312292Y271777D01*
X309329D01*
X307848Y270296D01*
Y264371D01*
X309329Y262890D01*
X312292D01*
X313773Y264371D01*
X322660Y271777D02*
X319697Y270296D01*
X316735Y267334D01*
Y264371D01*
X318216Y262890D01*
X321179D01*
X322660Y264371D01*
Y265852D01*
X321179Y267334D01*
X316735D01*
X339131Y113552D02*
X337649Y115033D01*
X334687D01*
X333206Y113552D01*
Y107627D01*
X334687Y106146D01*
X337649D01*
X339131Y107627D01*
X348018Y115033D02*
X342093D01*
Y110589D01*
X345055Y112071D01*
X346536D01*
X348018Y110589D01*
Y107627D01*
X346536Y106146D01*
X343574D01*
X342093Y107627D01*
X362840Y363126D02*
X361359Y364607D01*
X358396D01*
X356915Y363126D01*
Y357201D01*
X358396Y355720D01*
X361359D01*
X362840Y357201D01*
X370246Y355720D02*
Y364607D01*
X365802Y360163D01*
X371727D01*
X256263Y274574D02*
X254782Y276055D01*
X251820D01*
X250339Y274574D01*
Y268649D01*
X251820Y267168D01*
X254782D01*
X256263Y268649D01*
X259226Y274574D02*
X260707Y276055D01*
X263669D01*
X265151Y274574D01*
Y273092D01*
X263669Y271611D01*
X262188D01*
X263669D01*
X265151Y270130D01*
Y268649D01*
X263669Y267168D01*
X260707D01*
X259226Y268649D01*
X365377Y218105D02*
X363896Y219586D01*
X360933D01*
X359452Y218105D01*
Y212180D01*
X360933Y210699D01*
X363896D01*
X365377Y212180D01*
X374264Y210699D02*
X368339D01*
X374264Y216624D01*
Y218105D01*
X372783Y219586D01*
X369821D01*
X368339Y218105D01*
X156585Y167659D02*
X155104Y169140D01*
X152142D01*
X150660Y167659D01*
Y161734D01*
X152142Y160253D01*
X155104D01*
X156585Y161734D01*
X159548Y160253D02*
X162510D01*
X161029D01*
Y169140D01*
X159548Y167659D01*
M02*
